<svg xmlns="http://www.w3.org/2000/svg" xmlns:xlink="http://www.w3.org/1999/xlink" width="500" zoomAndPan="magnify" viewBox="0 0 375 374.999991" height="500" preserveAspectRatio="xMidYMid meet" version="1.0"><defs><g/></defs><rect x="-37.5" width="450" fill="#ffffff" y="-37.499999" height="449.999989" fill-opacity="1"/><rect x="-37.5" width="450" fill="#d9f4cd" y="-37.499999" height="449.999989" fill-opacity="1"/><g fill="#4e2a2a" fill-opacity="1"><g transform="translate(113.486189, 229.675408)"><g><path d="M 140.984375 25.046875 C 136.742188 26.503906 132.398438 27.597656 127.953125 28.328125 C 123.515625 29.054688 119.039062 29.421875 114.53125 29.421875 C 104.851562 29.421875 97 27.832031 90.96875 24.65625 C 84.9375 21.476562 79.960938 17.367188 76.046875 12.328125 C 72.140625 7.285156 69.023438 1.6875 66.703125 -4.46875 C 64.390625 -10.632812 62.140625 -16.734375 59.953125 -22.765625 C 57.765625 -28.796875 55.273438 -34.429688 52.484375 -39.671875 C 49.703125 -44.910156 45.992188 -49.050781 41.359375 -52.09375 C 40.960938 -52.363281 40.53125 -52.597656 40.0625 -52.796875 C 39.601562 -52.992188 39.175781 -53.09375 38.78125 -53.09375 C 38.25 -53.09375 37.484375 -52.660156 36.484375 -51.796875 C 35.492188 -50.929688 34.46875 -49.96875 33.40625 -48.90625 C 32.34375 -47.851562 31.347656 -46.757812 30.421875 -45.625 C 29.492188 -44.5 28.832031 -43.738281 28.4375 -43.34375 C 27.507812 -42.28125 26.878906 -41.453125 26.546875 -40.859375 C 26.210938 -40.265625 26.046875 -39.238281 26.046875 -37.78125 L 26.046875 -13.125 C 26.046875 -10.46875 26.507812 -7.847656 27.4375 -5.265625 C 28.363281 -2.679688 30.222656 -0.925781 33.015625 0 L 6.765625 0 C 9.804688 -0.925781 11.757812 -2.679688 12.625 -5.265625 C 13.488281 -7.847656 13.921875 -10.535156 13.921875 -13.328125 L 13.921875 -85.296875 C 13.921875 -87.953125 13.421875 -90.4375 12.421875 -92.75 C 11.429688 -95.070312 9.546875 -96.632812 6.765625 -97.4375 L 33.015625 -97.4375 C 30.222656 -96.507812 28.363281 -94.882812 27.4375 -92.5625 C 26.507812 -90.238281 26.046875 -87.753906 26.046875 -85.109375 L 26.046875 -43.15625 L 65.015625 -84.90625 C 65.679688 -85.570312 66.210938 -86.332031 66.609375 -87.1875 C 67.003906 -88.050781 67.203125 -89.015625 67.203125 -90.078125 C 67.203125 -91.796875 66.640625 -93.285156 65.515625 -94.546875 C 64.390625 -95.804688 63.097656 -96.769531 61.640625 -97.4375 L 83.71875 -97.4375 C 81.195312 -96.632812 78.476562 -95.007812 75.5625 -92.5625 C 72.644531 -90.113281 70.257812 -87.957031 68.40625 -86.09375 L 40.359375 -55.875 C 40.097656 -55.613281 39.96875 -55.28125 39.96875 -54.875 L 40.5625 -54.078125 L 44.140625 -52.09375 C 45.460938 -51.4375 46.59375 -50.640625 47.53125 -49.703125 C 49.113281 -48.378906 50.664062 -46.789062 52.1875 -44.9375 C 53.71875 -43.082031 55.144531 -41.09375 56.46875 -38.96875 C 57.789062 -36.851562 59.082031 -34.734375 60.34375 -32.609375 C 61.601562 -30.484375 62.695312 -28.492188 63.625 -26.640625 C 66.8125 -20.941406 70.160156 -14.941406 73.671875 -8.640625 C 77.179688 -2.347656 81.222656 3.378906 85.796875 8.546875 C 90.367188 13.722656 95.570312 17.96875 101.40625 21.28125 C 107.238281 24.59375 114 26.25 121.6875 26.25 C 128.445312 26.25 134.878906 25.253906 140.984375 23.265625 Z M 140.984375 25.046875 "/></g></g></g><g fill="#4e2a2a" fill-opacity="1"><g transform="translate(190.499992, 226.526676)"><g><path d="M 59.453125 -78.421875 C 61.960938 -82.722656 63.441406 -86.265625 63.890625 -89.046875 C 64.335938 -91.828125 64.25 -93.21875 63.625 -93.21875 L 45.0625 -93.21875 C 41.65625 -92.863281 38.601562 -92.367188 35.90625 -91.734375 C 33.21875 -91.109375 30.726562 -90.347656 28.4375 -89.453125 C 26.15625 -88.554688 24.003906 -87.566406 21.984375 -86.484375 C 19.972656 -85.410156 17.9375 -84.25 15.875 -83 L 14.65625 -83 L 14.65625 -94.4375 L 83.671875 -94.4375 L 83.671875 -93.21875 C 82.679688 -93.21875 81.535156 -92.519531 80.234375 -91.125 C 78.929688 -89.738281 77.519531 -87.925781 76 -85.6875 L 71.96875 -79.765625 L 69 -75.46875 L 28.375 -16 C 26.945312 -13.488281 25.875 -11.3125 25.15625 -9.46875 C 24.4375 -7.632812 23.941406 -6.113281 23.671875 -4.90625 C 23.398438 -3.695312 23.3125 -2.773438 23.40625 -2.140625 C 23.5 -1.515625 23.675781 -1.203125 23.9375 -1.203125 L 46.40625 -1.203125 C 49.726562 -1.566406 52.753906 -2.0625 55.484375 -2.6875 C 58.222656 -3.3125 60.734375 -4.050781 63.015625 -4.90625 C 65.304688 -5.757812 67.457031 -6.722656 69.46875 -7.796875 C 71.488281 -8.878906 73.53125 -10.046875 75.59375 -11.296875 L 76.671875 -11.296875 L 76.671875 0 L 4.03125 0 L 4.03125 -1.203125 C 4.570312 -1.203125 5.3125 -1.671875 6.25 -2.609375 C 7.195312 -3.554688 8.296875 -4.835938 9.546875 -6.453125 C 10.804688 -8.066406 12.21875 -9.945312 13.78125 -12.09375 C 15.351562 -14.25 16.992188 -16.539062 18.703125 -18.96875 Z M 59.453125 -78.421875 "/></g></g></g><g fill="#d9f4cd" fill-opacity="1"><g transform="translate(218.558179, 185.382175)"><g><path d="M -13.171875 8.46875 C -13.171875 11.308594 -13.808594 13.886719 -15.082031 16.203125 C -16.277344 18.382812 -17.820312 20.449219 -19.707031 22.402344 L -21.078125 21.078125 L -19.886719 19.59375 C -17.84375 21.230469 -15.75 22.882812 -13.605469 24.550781 C -11.375 26.285156 -9.34375 28.105469 -7.511719 30.019531 C -5.628906 31.984375 -4.082031 34.0625 -2.867188 36.253906 C -1.578125 38.589844 -0.933594 41.117188 -0.933594 43.832031 C -0.933594 46.800781 -1.628906 49.519531 -3.015625 51.980469 C -4.367188 54.375 -6.136719 56.417969 -8.328125 58.113281 C -10.480469 59.777344 -12.933594 61.074219 -15.679688 61.996094 C -18.421875 62.914062 -21.195312 63.375 -24.011719 63.375 C -26.285156 63.375 -28.347656 63.078125 -30.195312 62.492188 C -32.082031 61.890625 -33.703125 61.042969 -35.054688 59.945312 C -36.445312 58.8125 -37.515625 57.4375 -38.257812 55.820312 C -38.996094 54.214844 -39.363281 52.46875 -39.363281 50.578125 C -39.363281 48.660156 -39.042969 46.996094 -38.402344 45.582031 C -37.78125 44.207031 -36.984375 43.035156 -36.011719 42.066406 C -35.074219 41.125 -34.054688 40.363281 -32.957031 39.777344 C -31.929688 39.230469 -30.957031 38.804688 -30.046875 38.507812 C -29.148438 38.214844 -28.371094 38.011719 -27.71875 37.902344 L -24.878906 37.429688 L -24.269531 43.363281 L -26.382812 43.363281 C -26.308594 43.363281 -26.25 43.363281 -26.207031 43.355469 C -26.226562 43.359375 -26.261719 43.363281 -26.3125 43.371094 C -26.433594 43.394531 -26.609375 43.425781 -26.835938 43.46875 C -27.242188 43.546875 -27.753906 43.683594 -28.363281 43.878906 C -28.9375 44.0625 -29.570312 44.335938 -30.261719 44.703125 C -30.882812 45.03125 -31.460938 45.460938 -31.992188 45.992188 C -32.496094 46.496094 -32.914062 47.125 -33.253906 47.875 C -33.574219 48.585938 -33.738281 49.488281 -33.738281 50.578125 C -33.738281 52.144531 -33.441406 53.363281 -32.851562 54.234375 C -32.222656 55.167969 -31.449219 55.878906 -30.535156 56.363281 C -29.527344 56.902344 -28.453125 57.261719 -27.3125 57.445312 C -26.0625 57.644531 -24.964844 57.746094 -24.011719 57.746094 C -21.648438 57.746094 -19.550781 57.378906 -17.710938 56.648438 C -15.875 55.917969 -14.339844 54.96875 -13.105469 53.800781 C -11.878906 52.640625 -10.945312 51.339844 -10.304688 49.898438 C -9.667969 48.46875 -9.351562 47.050781 -9.351562 45.648438 C -9.351562 43.847656 -9.800781 42.171875 -10.699219 40.625 C -11.6875 38.917969 -12.96875 37.273438 -14.546875 35.679688 C -16.175781 34.035156 -17.992188 32.4375 -19.988281 30.890625 C -22.0625 29.285156 -24.097656 27.671875 -26.097656 26.046875 L -24.894531 24.566406 L -23.652344 26.015625 C -25.660156 27.738281 -27.738281 29.441406 -29.886719 31.117188 C -31.945312 32.726562 -33.8125 34.386719 -35.492188 36.09375 C -37.113281 37.742188 -38.441406 39.480469 -39.476562 41.304688 C -40.425781 42.984375 -40.902344 44.847656 -40.902344 46.902344 C -40.902344 47.734375 -40.78125 48.617188 -40.542969 49.546875 C -40.292969 50.519531 -39.925781 51.53125 -39.449219 52.574219 L -38.652344 54.308594 L -43.75 56.640625 L -44.542969 54.910156 C -45.835938 52.082031 -46.484375 49.382812 -46.484375 46.808594 C -46.484375 44.972656 -46.179688 43.226562 -45.574219 41.570312 C -44.992188 39.980469 -44.199219 38.449219 -43.195312 36.984375 C -42.214844 35.558594 -41.085938 34.1875 -39.800781 32.871094 C -38.554688 31.59375 -37.230469 30.339844 -35.828125 29.113281 C -34.441406 27.898438 -33.015625 26.710938 -31.546875 25.542969 C -30.132812 24.414062 -28.769531 23.273438 -27.457031 22.117188 L -26.195312 23.542969 L -27.417969 25.007812 C -28.761719 23.890625 -30.011719 22.761719 -31.164062 21.621094 C -32.359375 20.441406 -33.410156 19.21875 -34.3125 17.949219 C -35.242188 16.636719 -35.976562 15.28125 -36.515625 13.871094 C -37.078125 12.398438 -37.363281 10.859375 -37.363281 9.257812 C -37.363281 7.425781 -37.042969 5.734375 -36.40625 4.183594 C -35.765625 2.628906 -34.890625 1.296875 -33.78125 0.1875 C -32.671875 -0.917969 -31.375 -1.785156 -29.890625 -2.410156 C -28.398438 -3.035156 -26.792969 -3.347656 -25.082031 -3.347656 C -23.359375 -3.347656 -21.773438 -3.074219 -20.332031 -2.527344 C -18.863281 -1.96875 -17.59375 -1.171875 -16.519531 -0.136719 C -15.4375 0.90625 -14.605469 2.171875 -14.023438 3.65625 C -13.453125 5.101562 -13.171875 6.707031 -13.171875 8.46875 Z M -16.980469 8.46875 C -16.980469 7.1875 -17.179688 6.046875 -17.570312 5.046875 C -17.949219 4.078125 -18.484375 3.265625 -19.167969 2.605469 C -19.863281 1.933594 -20.703125 1.410156 -21.683594 1.039062 C -22.691406 0.65625 -23.824219 0.464844 -25.082031 0.464844 C -26.28125 0.464844 -27.394531 0.675781 -28.414062 1.105469 C -29.441406 1.535156 -30.332031 2.128906 -31.085938 2.882812 C -31.835938 3.632812 -32.433594 4.550781 -32.878906 5.632812 C -33.328125 6.71875 -33.550781 7.929688 -33.550781 9.257812 C -33.550781 10.390625 -33.351562 11.472656 -32.957031 12.511719 C -32.53125 13.617188 -31.949219 14.691406 -31.203125 15.738281 C -30.429688 16.828125 -29.527344 17.882812 -28.488281 18.90625 C -27.410156 19.972656 -26.238281 21.027344 -24.976562 22.082031 L -23.269531 23.503906 L -24.933594 24.972656 C -26.292969 26.171875 -27.707031 27.359375 -29.175781 28.527344 C -30.59375 29.65625 -31.976562 30.808594 -33.316406 31.980469 C -34.644531 33.144531 -35.894531 34.324219 -37.070312 35.53125 C -38.203125 36.691406 -39.195312 37.898438 -40.050781 39.140625 C -40.875 40.34375 -41.523438 41.589844 -41.996094 42.882812 C -42.445312 44.113281 -42.671875 45.421875 -42.671875 46.808594 C -42.671875 48.828125 -42.140625 51 -41.074219 53.320312 L -42.808594 54.117188 L -43.601562 52.382812 L -41.972656 51.636719 L -41.179688 53.371094 L -42.910156 54.167969 C -43.488281 52.914062 -43.929688 51.691406 -44.234375 50.496094 C -44.554688 49.253906 -44.714844 48.054688 -44.714844 46.902344 C -44.714844 44.179688 -44.074219 41.6875 -42.792969 39.425781 C -41.59375 37.3125 -40.066406 35.308594 -38.210938 33.421875 C -36.417969 31.59375 -34.421875 29.824219 -32.234375 28.113281 C -30.132812 26.472656 -28.097656 24.808594 -26.136719 23.121094 L -24.929688 22.085938 L -23.691406 23.089844 C -21.71875 24.691406 -19.707031 26.289062 -17.65625 27.878906 C -15.527344 29.527344 -13.585938 31.234375 -11.835938 33 C -10.03125 34.820312 -8.554688 36.722656 -7.402344 38.710938 C -6.160156 40.851562 -5.539062 43.164062 -5.539062 45.648438 C -5.539062 47.589844 -5.964844 49.523438 -6.820312 51.445312 C -7.667969 53.355469 -8.890625 55.0625 -10.488281 56.570312 C -12.074219 58.070312 -14.011719 59.277344 -16.300781 60.191406 C -18.589844 61.101562 -21.160156 61.558594 -24.011719 61.558594 C -25.167969 61.558594 -26.46875 61.441406 -27.917969 61.207031 C -29.476562 60.957031 -30.945312 60.464844 -32.328125 59.730469 C -33.800781 58.945312 -35.027344 57.824219 -36.011719 56.367188 C -37.035156 54.851562 -37.546875 52.921875 -37.546875 50.578125 C -37.546875 48.941406 -37.273438 47.515625 -36.726562 46.304688 C -36.199219 45.132812 -35.519531 44.128906 -34.6875 43.296875 C -33.886719 42.496094 -33.003906 41.839844 -32.042969 41.332031 C -31.152344 40.859375 -30.3125 40.5 -29.519531 40.246094 C -28.765625 40.007812 -28.113281 39.835938 -27.558594 39.726562 C -26.957031 39.609375 -26.566406 39.554688 -26.382812 39.554688 L -26.382812 41.457031 L -28.277344 41.652344 L -28.464844 39.839844 L -26.570312 39.644531 L -26.253906 41.523438 L -27.09375 41.664062 C -27.558594 41.742188 -28.144531 41.898438 -28.863281 42.128906 C -29.5625 42.359375 -30.328125 42.695312 -31.164062 43.140625 C -31.925781 43.546875 -32.644531 44.089844 -33.316406 44.761719 C -33.960938 45.402344 -34.5 46.203125 -34.929688 47.15625 C -35.34375 48.066406 -35.550781 49.210938 -35.550781 50.578125 C -35.550781 51.914062 -35.300781 53.128906 -34.792969 54.226562 C -34.296875 55.308594 -33.582031 56.226562 -32.648438 56.988281 C -31.671875 57.78125 -30.46875 58.40625 -29.039062 58.859375 C -27.566406 59.328125 -25.890625 59.5625 -24.011719 59.5625 C -21.613281 59.5625 -19.238281 59.167969 -16.890625 58.378906 C -14.550781 57.59375 -12.472656 56.5 -10.660156 55.097656 C -8.875 53.71875 -7.433594 52.054688 -6.335938 50.109375 C -5.273438 48.226562 -4.746094 46.136719 -4.746094 43.832031 C -4.746094 41.769531 -5.230469 39.859375 -6.203125 38.101562 C -7.257812 36.199219 -8.609375 34.382812 -10.265625 32.65625 C -11.96875 30.878906 -13.859375 29.179688 -15.941406 27.5625 C -18.105469 25.882812 -20.214844 24.214844 -22.273438 22.566406 L -23.902344 21.257812 L -22.449219 19.753906 C -20.800781 18.046875 -19.457031 16.25 -18.421875 14.367188 C -17.460938 12.621094 -16.980469 10.65625 -16.980469 8.46875 Z M -29.828125 6.5625 C -29.828125 7.519531 -29.636719 8.460938 -29.25 9.390625 C -28.832031 10.402344 -28.253906 11.394531 -27.519531 12.363281 C -26.742188 13.382812 -25.835938 14.382812 -24.796875 15.367188 C -23.714844 16.386719 -22.539062 17.410156 -21.273438 18.433594 L -22.472656 19.914062 L -23.847656 18.59375 C -22.289062 16.976562 -21.035156 15.292969 -20.078125 13.535156 C -19.191406 11.914062 -18.75 10.191406 -18.75 8.375 C -18.75 6.445312 -19.308594 4.953125 -20.429688 3.902344 C -21.582031 2.820312 -23.164062 2.277344 -25.171875 2.277344 C -26.058594 2.277344 -26.789062 2.402344 -27.367188 2.65625 C -27.9375 2.902344 -28.390625 3.214844 -28.730469 3.597656 C -29.089844 4 -29.363281 4.457031 -29.542969 4.964844 C -29.734375 5.503906 -29.828125 6.035156 -29.828125 6.5625 Z M -33.640625 6.5625 C -33.640625 5.597656 -33.472656 4.640625 -33.136719 3.691406 C -32.789062 2.710938 -32.265625 1.832031 -31.574219 1.054688 C -30.859375 0.257812 -29.964844 -0.375 -28.886719 -0.839844 C -27.824219 -1.304688 -26.585938 -1.535156 -25.171875 -1.535156 C -22.15625 -1.535156 -19.707031 -0.648438 -17.820312 1.121094 C -15.898438 2.925781 -14.9375 5.34375 -14.9375 8.375 C -14.9375 10.839844 -15.535156 13.167969 -16.730469 15.359375 C -17.851562 17.417969 -19.308594 19.378906 -21.101562 21.238281 L -22.316406 22.496094 L -23.671875 21.398438 C -25.015625 20.3125 -26.261719 19.226562 -27.414062 18.136719 C -28.605469 17.011719 -29.652344 15.855469 -30.550781 14.671875 C -31.488281 13.4375 -32.230469 12.164062 -32.773438 10.847656 C -33.351562 9.453125 -33.640625 8.023438 -33.640625 6.5625 Z M -33.640625 6.5625 "/></g></g></g><g fill="#d29f51" fill-opacity="1"><g transform="translate(218.558179, 185.382175)"><g><path d="M -15.078125 8.46875 C -15.078125 10.976562 -15.632812 13.25 -16.75 15.28125 C -17.863281 17.3125 -19.304688 19.242188 -21.078125 21.078125 C -19.023438 22.722656 -16.921875 24.382812 -14.765625 26.0625 C -12.617188 27.738281 -10.660156 29.5 -8.890625 31.34375 C -7.117188 33.1875 -5.664062 35.128906 -4.53125 37.171875 C -3.40625 39.222656 -2.84375 41.441406 -2.84375 43.828125 C -2.84375 46.460938 -3.453125 48.863281 -4.671875 51.03125 C -5.898438 53.207031 -7.503906 55.0625 -9.484375 56.59375 C -11.472656 58.132812 -13.738281 59.332031 -16.28125 60.1875 C -18.832031 61.039062 -21.410156 61.46875 -24.015625 61.46875 C -26.085938 61.46875 -27.953125 61.203125 -29.609375 60.671875 C -31.273438 60.148438 -32.6875 59.414062 -33.84375 58.46875 C -35.007812 57.519531 -35.898438 56.367188 -36.515625 55.015625 C -37.140625 53.671875 -37.453125 52.191406 -37.453125 50.578125 C -37.453125 48.929688 -37.1875 47.523438 -36.65625 46.359375 C -36.132812 45.203125 -35.46875 44.21875 -34.65625 43.40625 C -33.851562 42.601562 -32.988281 41.953125 -32.0625 41.453125 C -31.132812 40.960938 -30.265625 40.582031 -29.453125 40.3125 C -28.648438 40.050781 -27.96875 39.875 -27.40625 39.78125 C -26.84375 39.6875 -26.5625 39.640625 -26.5625 39.640625 L -26.390625 41.453125 C -26.441406 41.453125 -26.707031 41.5 -27.1875 41.59375 C -27.675781 41.6875 -28.257812 41.84375 -28.9375 42.0625 C -29.625 42.28125 -30.363281 42.597656 -31.15625 43.015625 C -31.945312 43.429688 -32.675781 43.972656 -33.34375 44.640625 C -34.007812 45.304688 -34.554688 46.117188 -34.984375 47.078125 C -35.421875 48.046875 -35.640625 49.210938 -35.640625 50.578125 C -35.640625 52.535156 -35.234375 54.109375 -34.421875 55.296875 C -33.617188 56.492188 -32.617188 57.410156 -31.421875 58.046875 C -30.234375 58.679688 -28.960938 59.109375 -27.609375 59.328125 C -26.265625 59.546875 -25.066406 59.65625 -24.015625 59.65625 C -21.410156 59.65625 -19.070312 59.242188 -17 58.421875 C -14.9375 57.597656 -13.195312 56.519531 -11.78125 55.1875 C -10.375 53.851562 -9.296875 52.347656 -8.546875 50.671875 C -7.804688 48.992188 -7.4375 47.316406 -7.4375 45.640625 C -7.4375 43.503906 -7.972656 41.515625 -9.046875 39.671875 C -10.117188 37.828125 -11.5 36.050781 -13.1875 34.34375 C -14.882812 32.632812 -16.765625 30.976562 -18.828125 29.375 C -20.890625 27.78125 -22.910156 26.175781 -24.890625 24.5625 C -26.878906 26.269531 -28.9375 27.953125 -31.0625 29.609375 C -33.1875 31.273438 -35.113281 32.988281 -36.84375 34.75 C -38.582031 36.519531 -40.007812 38.390625 -41.125 40.359375 C -42.25 42.335938 -42.8125 44.519531 -42.8125 46.90625 C -42.8125 47.894531 -42.671875 48.929688 -42.390625 50.015625 C -42.109375 51.109375 -41.707031 52.226562 -41.1875 53.375 L -42.8125 54.109375 C -43.988281 51.535156 -44.578125 49.101562 -44.578125 46.8125 C -44.578125 45.195312 -44.3125 43.664062 -43.78125 42.21875 C -43.257812 40.78125 -42.539062 39.394531 -41.625 38.0625 C -40.707031 36.726562 -39.644531 35.441406 -38.4375 34.203125 C -37.226562 32.960938 -35.941406 31.742188 -34.578125 30.546875 C -33.210938 29.347656 -31.804688 28.175781 -30.359375 27.03125 C -28.921875 25.882812 -27.535156 24.722656 -26.203125 23.546875 C -27.503906 22.460938 -28.710938 21.367188 -29.828125 20.265625 C -30.941406 19.160156 -31.914062 18.019531 -32.75 16.84375 C -33.59375 15.664062 -34.253906 14.445312 -34.734375 13.1875 C -35.210938 11.9375 -35.453125 10.628906 -35.453125 9.265625 C -35.453125 7.679688 -35.179688 6.226562 -34.640625 4.90625 C -34.097656 3.59375 -33.359375 2.46875 -32.421875 1.53125 C -31.492188 0.601562 -30.398438 -0.117188 -29.140625 -0.640625 C -27.890625 -1.171875 -26.535156 -1.4375 -25.078125 -1.4375 C -23.585938 -1.4375 -22.226562 -1.203125 -21 -0.734375 C -19.78125 -0.273438 -18.726562 0.378906 -17.84375 1.234375 C -16.957031 2.085938 -16.273438 3.125 -15.796875 4.34375 C -15.316406 5.570312 -15.078125 6.945312 -15.078125 8.46875 Z M -31.734375 6.5625 C -31.734375 7.769531 -31.492188 8.953125 -31.015625 10.109375 C -30.535156 11.273438 -29.875 12.410156 -29.03125 13.515625 C -28.195312 14.617188 -27.21875 15.695312 -26.09375 16.75 C -24.976562 17.800781 -23.769531 18.859375 -22.46875 19.921875 C -20.800781 18.179688 -19.445312 16.359375 -18.40625 14.453125 C -17.363281 12.546875 -16.84375 10.519531 -16.84375 8.375 C -16.84375 5.894531 -17.601562 3.941406 -19.125 2.515625 C -20.644531 1.085938 -22.660156 0.375 -25.171875 0.375 C -26.316406 0.375 -27.300781 0.550781 -28.125 0.90625 C -28.945312 1.257812 -29.617188 1.726562 -30.140625 2.3125 C -30.671875 2.90625 -31.066406 3.570312 -31.328125 4.3125 C -31.597656 5.0625 -31.734375 5.8125 -31.734375 6.5625 Z M -31.734375 6.5625 "/></g></g></g><g fill="#4e2a2a" fill-opacity="1"><g transform="translate(122.049114, 309.35002)"><g><path d="M 17.015625 3.03125 C 16.503906 3.195312 15.976562 3.320312 15.4375 3.40625 C 14.90625 3.5 14.367188 3.546875 13.828125 3.546875 C 12.660156 3.546875 11.710938 3.351562 10.984375 2.96875 C 10.253906 2.59375 9.648438 2.097656 9.171875 1.484375 C 8.703125 0.878906 8.328125 0.207031 8.046875 -0.53125 C 7.765625 -1.28125 7.492188 -2.019531 7.234375 -2.75 C 6.972656 -3.476562 6.671875 -4.15625 6.328125 -4.78125 C 5.992188 -5.414062 5.546875 -5.914062 4.984375 -6.28125 C 4.941406 -6.320312 4.890625 -6.351562 4.828125 -6.375 C 4.773438 -6.394531 4.726562 -6.40625 4.6875 -6.40625 C 4.613281 -6.40625 4.515625 -6.351562 4.390625 -6.25 C 4.273438 -6.144531 4.15625 -6.03125 4.03125 -5.90625 C 3.90625 -5.78125 3.785156 -5.644531 3.671875 -5.5 C 3.554688 -5.363281 3.476562 -5.273438 3.4375 -5.234375 C 3.320312 -5.109375 3.242188 -5.007812 3.203125 -4.9375 C 3.160156 -4.863281 3.140625 -4.738281 3.140625 -4.5625 L 3.140625 -1.578125 C 3.140625 -1.265625 3.195312 -0.953125 3.3125 -0.640625 C 3.425781 -0.328125 3.648438 -0.113281 3.984375 0 L 0.8125 0 C 1.1875 -0.113281 1.425781 -0.328125 1.53125 -0.640625 C 1.632812 -0.953125 1.6875 -1.273438 1.6875 -1.609375 L 1.6875 -10.296875 C 1.6875 -10.617188 1.625 -10.914062 1.5 -11.1875 C 1.375 -11.46875 1.144531 -11.660156 0.8125 -11.765625 L 3.984375 -11.765625 C 3.648438 -11.648438 3.425781 -11.453125 3.3125 -11.171875 C 3.195312 -10.890625 3.140625 -10.585938 3.140625 -10.265625 L 3.140625 -5.203125 L 7.84375 -10.25 C 7.925781 -10.332031 7.988281 -10.425781 8.03125 -10.53125 C 8.082031 -10.632812 8.109375 -10.75 8.109375 -10.875 C 8.109375 -11.082031 8.039062 -11.257812 7.90625 -11.40625 C 7.769531 -11.5625 7.613281 -11.679688 7.4375 -11.765625 L 10.109375 -11.765625 C 9.796875 -11.660156 9.460938 -11.460938 9.109375 -11.171875 C 8.765625 -10.878906 8.476562 -10.617188 8.25 -10.390625 L 4.875 -6.75 C 4.84375 -6.71875 4.828125 -6.675781 4.828125 -6.625 L 4.890625 -6.53125 L 5.328125 -6.28125 C 5.484375 -6.207031 5.617188 -6.113281 5.734375 -6 C 5.929688 -5.84375 6.117188 -5.648438 6.296875 -5.421875 C 6.484375 -5.203125 6.65625 -4.960938 6.8125 -4.703125 C 6.976562 -4.441406 7.132812 -4.179688 7.28125 -3.921875 C 7.4375 -3.671875 7.570312 -3.4375 7.6875 -3.21875 C 8.0625 -2.53125 8.460938 -1.804688 8.890625 -1.046875 C 9.316406 -0.285156 9.804688 0.40625 10.359375 1.03125 C 10.910156 1.65625 11.535156 2.164062 12.234375 2.5625 C 12.941406 2.96875 13.757812 3.171875 14.6875 3.171875 C 15.5 3.171875 16.273438 3.050781 17.015625 2.8125 Z M 17.015625 3.03125 "/></g></g></g><g fill="#4e2a2a" fill-opacity="1"><g transform="translate(132.777137, 309.35002)"><g><path d="M 3.171875 -1.484375 C 3.171875 -1.171875 3.234375 -0.875 3.359375 -0.59375 C 3.484375 -0.3125 3.707031 -0.113281 4.03125 0 L 0.859375 0 C 1.203125 -0.113281 1.425781 -0.316406 1.53125 -0.609375 C 1.644531 -0.910156 1.703125 -1.21875 1.703125 -1.53125 L 1.703125 -10.296875 C 1.703125 -10.617188 1.644531 -10.914062 1.53125 -11.1875 C 1.425781 -11.46875 1.203125 -11.660156 0.859375 -11.765625 L 4.9375 -11.765625 C 5.519531 -11.765625 6.085938 -11.695312 6.640625 -11.5625 C 7.191406 -11.4375 7.679688 -11.234375 8.109375 -10.953125 C 8.546875 -10.671875 8.894531 -10.300781 9.15625 -9.84375 C 9.414062 -9.394531 9.546875 -8.84375 9.546875 -8.1875 C 9.546875 -7.238281 9.257812 -6.46875 8.6875 -5.875 C 8.125 -5.28125 7.40625 -4.882812 6.53125 -4.6875 L 8.71875 -1.15625 C 8.882812 -0.894531 9.085938 -0.660156 9.328125 -0.453125 C 9.578125 -0.242188 9.835938 -0.09375 10.109375 0 L 7.875 0 L 5.015625 -4.625 L 3.171875 -4.625 Z M 3.171875 -4.796875 L 4.796875 -4.796875 C 5.804688 -4.796875 6.601562 -5.109375 7.1875 -5.734375 C 7.769531 -6.359375 8.0625 -7.175781 8.0625 -8.1875 C 8.0625 -9.238281 7.78125 -10.0625 7.21875 -10.65625 C 6.664062 -11.257812 5.859375 -11.5625 4.796875 -11.5625 L 3.171875 -11.5625 Z M 3.171875 -4.796875 "/></g></g></g><g fill="#4e2a2a" fill-opacity="1"><g transform="translate(142.041152, 309.35002)"><g><path d="M 6.484375 -1.484375 C 6.484375 -1.171875 6.539062 -0.875 6.65625 -0.59375 C 6.78125 -0.3125 7.007812 -0.113281 7.34375 0 L 4.171875 0 C 4.515625 -0.113281 4.738281 -0.3125 4.84375 -0.59375 C 4.957031 -0.882812 5.015625 -1.195312 5.015625 -1.53125 L 5.015625 -5.140625 L 2.109375 -10.4375 C 1.984375 -10.695312 1.8125 -10.960938 1.59375 -11.234375 C 1.375 -11.503906 1.128906 -11.679688 0.859375 -11.765625 L 4.109375 -11.765625 C 3.941406 -11.679688 3.8125 -11.566406 3.71875 -11.421875 C 3.632812 -11.273438 3.59375 -11.113281 3.59375 -10.9375 C 3.59375 -10.726562 3.648438 -10.53125 3.765625 -10.34375 L 6.3125 -5.59375 L 8.609375 -10.015625 C 8.679688 -10.117188 8.734375 -10.226562 8.765625 -10.34375 C 8.804688 -10.46875 8.828125 -10.597656 8.828125 -10.734375 C 8.828125 -10.953125 8.757812 -11.15625 8.625 -11.34375 C 8.488281 -11.539062 8.3125 -11.679688 8.09375 -11.765625 L 10.515625 -11.765625 C 10.222656 -11.660156 9.925781 -11.445312 9.625 -11.125 C 9.332031 -10.8125 9.125 -10.519531 9 -10.25 L 6.484375 -5.453125 Z M 6.484375 -1.484375 "/></g></g></g><g fill="#4e2a2a" fill-opacity="1"><g transform="translate(152.985182, 309.35002)"><g><path d="M 8.875 -2.921875 C 8.875 -2.378906 8.757812 -1.910156 8.53125 -1.515625 C 8.300781 -1.128906 8 -0.8125 7.625 -0.5625 C 7.257812 -0.3125 6.84375 -0.128906 6.375 -0.015625 C 5.914062 0.0859375 5.445312 0.140625 4.96875 0.140625 C 4.664062 0.140625 4.367188 0.0976562 4.078125 0.015625 C 3.785156 -0.0546875 3.507812 -0.132812 3.25 -0.21875 C 2.988281 -0.3125 2.726562 -0.394531 2.46875 -0.46875 C 2.21875 -0.550781 1.960938 -0.59375 1.703125 -0.59375 C 1.523438 -0.59375 1.351562 -0.546875 1.1875 -0.453125 C 1.03125 -0.359375 0.90625 -0.238281 0.8125 -0.09375 L 0.8125 -3.71875 C 0.957031 -3.300781 1.160156 -2.875 1.421875 -2.4375 C 1.691406 -2.007812 2.003906 -1.625 2.359375 -1.28125 C 2.722656 -0.9375 3.125 -0.648438 3.5625 -0.421875 C 4 -0.203125 4.457031 -0.09375 4.9375 -0.09375 C 5.28125 -0.09375 5.625 -0.128906 5.96875 -0.203125 C 6.320312 -0.273438 6.640625 -0.394531 6.921875 -0.5625 C 7.203125 -0.726562 7.429688 -0.953125 7.609375 -1.234375 C 7.796875 -1.515625 7.890625 -1.851562 7.890625 -2.25 C 7.890625 -2.75 7.722656 -3.160156 7.390625 -3.484375 C 7.054688 -3.816406 6.632812 -4.117188 6.125 -4.390625 C 5.625 -4.660156 5.078125 -4.921875 4.484375 -5.171875 C 3.890625 -5.421875 3.34375 -5.707031 2.84375 -6.03125 C 2.34375 -6.363281 1.921875 -6.753906 1.578125 -7.203125 C 1.242188 -7.660156 1.078125 -8.226562 1.078125 -8.90625 C 1.078125 -9.414062 1.175781 -9.863281 1.375 -10.25 C 1.582031 -10.632812 1.847656 -10.957031 2.171875 -11.21875 C 2.492188 -11.476562 2.867188 -11.671875 3.296875 -11.796875 C 3.734375 -11.929688 4.195312 -12 4.6875 -12 C 5 -12 5.300781 -11.953125 5.59375 -11.859375 C 5.882812 -11.773438 6.148438 -11.679688 6.390625 -11.578125 C 6.640625 -11.472656 6.867188 -11.375 7.078125 -11.28125 C 7.285156 -11.195312 7.460938 -11.15625 7.609375 -11.15625 C 7.828125 -11.15625 8 -11.222656 8.125 -11.359375 C 8.257812 -11.492188 8.359375 -11.648438 8.421875 -11.828125 C 8.410156 -11.335938 8.378906 -10.847656 8.328125 -10.359375 C 8.273438 -9.867188 8.25 -9.375 8.25 -8.875 C 8.144531 -9.257812 7.972656 -9.628906 7.734375 -9.984375 C 7.492188 -10.335938 7.210938 -10.648438 6.890625 -10.921875 C 6.566406 -11.191406 6.210938 -11.410156 5.828125 -11.578125 C 5.441406 -11.742188 5.039062 -11.828125 4.625 -11.828125 C 4.3125 -11.828125 4 -11.78125 3.6875 -11.6875 C 3.375 -11.601562 3.097656 -11.476562 2.859375 -11.3125 C 2.617188 -11.144531 2.421875 -10.925781 2.265625 -10.65625 C 2.117188 -10.394531 2.046875 -10.09375 2.046875 -9.75 C 2.046875 -9.226562 2.210938 -8.796875 2.546875 -8.453125 C 2.878906 -8.109375 3.300781 -7.789062 3.8125 -7.5 C 4.320312 -7.21875 4.867188 -6.945312 5.453125 -6.6875 C 6.046875 -6.4375 6.597656 -6.140625 7.109375 -5.796875 C 7.617188 -5.460938 8.039062 -5.066406 8.375 -4.609375 C 8.707031 -4.160156 8.875 -3.597656 8.875 -2.921875 Z M 8.875 -2.921875 "/></g></g></g><g fill="#4e2a2a" fill-opacity="1"><g transform="translate(162.537198, 309.35002)"><g><path d="M 3.171875 -1.484375 C 3.171875 -1.171875 3.226562 -0.875 3.34375 -0.59375 C 3.46875 -0.3125 3.691406 -0.113281 4.015625 0 L 0.84375 0 C 1.195312 -0.113281 1.425781 -0.3125 1.53125 -0.59375 C 1.644531 -0.875 1.703125 -1.171875 1.703125 -1.484375 L 1.703125 -10.296875 C 1.703125 -10.617188 1.644531 -10.914062 1.53125 -11.1875 C 1.425781 -11.457031 1.195312 -11.648438 0.84375 -11.765625 L 4.015625 -11.765625 C 3.671875 -11.648438 3.441406 -11.457031 3.328125 -11.1875 C 3.222656 -10.914062 3.171875 -10.617188 3.171875 -10.296875 L 3.171875 -6.125 L 8.71875 -6.125 L 8.71875 -10.296875 C 8.71875 -10.617188 8.660156 -10.914062 8.546875 -11.1875 C 8.429688 -11.457031 8.207031 -11.648438 7.875 -11.765625 L 11.046875 -11.765625 C 10.691406 -11.648438 10.457031 -11.457031 10.34375 -11.1875 C 10.226562 -10.914062 10.171875 -10.617188 10.171875 -10.296875 L 10.171875 -1.53125 C 10.171875 -1.21875 10.226562 -0.910156 10.34375 -0.609375 C 10.457031 -0.316406 10.691406 -0.113281 11.046875 0 L 7.875 0 C 8.207031 -0.113281 8.429688 -0.316406 8.546875 -0.609375 C 8.660156 -0.910156 8.71875 -1.21875 8.71875 -1.53125 L 8.71875 -5.921875 L 3.171875 -5.921875 Z M 3.171875 -1.484375 "/></g></g></g><g fill="#4e2a2a" fill-opacity="1"><g transform="translate(174.417218, 309.35002)"><g><path d="M 2.5 -1.109375 C 2.5 -0.796875 2.585938 -0.550781 2.765625 -0.375 C 2.941406 -0.207031 3.164062 -0.0820312 3.4375 0 L 0.859375 0 C 1.148438 -0.09375 1.421875 -0.265625 1.671875 -0.515625 C 1.929688 -0.773438 2.117188 -1.0625 2.234375 -1.375 L 6.3125 -11.90625 L 10.421875 -1.375 C 10.546875 -1.082031 10.707031 -0.800781 10.90625 -0.53125 C 11.101562 -0.269531 11.351562 -0.09375 11.65625 0 L 8.203125 0 C 8.410156 -0.0625 8.582031 -0.203125 8.71875 -0.421875 C 8.851562 -0.640625 8.921875 -0.84375 8.921875 -1.03125 C 8.921875 -1.15625 8.863281 -1.378906 8.75 -1.703125 C 8.644531 -2.023438 8.519531 -2.367188 8.375 -2.734375 C 8.226562 -3.097656 8.085938 -3.445312 7.953125 -3.78125 C 7.816406 -4.125 7.71875 -4.375 7.65625 -4.53125 L 3.703125 -4.53125 C 3.628906 -4.375 3.53125 -4.140625 3.40625 -3.828125 C 3.28125 -3.515625 3.148438 -3.1875 3.015625 -2.84375 C 2.878906 -2.5 2.757812 -2.164062 2.65625 -1.84375 C 2.550781 -1.53125 2.5 -1.285156 2.5 -1.109375 Z M 3.75 -4.734375 L 7.5625 -4.734375 L 5.65625 -9.671875 Z M 3.75 -4.734375 "/></g></g></g><g fill="#4e2a2a" fill-opacity="1"><g transform="translate(186.945247, 309.35002)"><g/></g></g><g fill="#4e2a2a" fill-opacity="1"><g transform="translate(192.801257, 309.35002)"><g><path d="M 8.875 -1.828125 C 8.351562 -1.171875 7.789062 -0.679688 7.1875 -0.359375 C 6.582031 -0.0351562 5.859375 0.125 5.015625 0.125 C 4.453125 0.125 3.90625 0.0390625 3.375 -0.125 C 2.851562 -0.300781 2.390625 -0.550781 1.984375 -0.875 C 1.585938 -1.207031 1.269531 -1.609375 1.03125 -2.078125 C 0.789062 -2.546875 0.671875 -3.078125 0.671875 -3.671875 C 0.671875 -4.535156 0.90625 -5.300781 1.375 -5.96875 C 1.851562 -6.644531 2.488281 -7.144531 3.28125 -7.46875 C 3.070312 -7.75 2.898438 -8.050781 2.765625 -8.375 C 2.628906 -8.707031 2.5625 -9.0625 2.5625 -9.4375 C 2.5625 -9.800781 2.640625 -10.128906 2.796875 -10.421875 C 2.953125 -10.722656 3.15625 -10.976562 3.40625 -11.1875 C 3.664062 -11.40625 3.953125 -11.570312 4.265625 -11.6875 C 4.585938 -11.800781 4.925781 -11.859375 5.28125 -11.859375 C 5.550781 -11.859375 5.828125 -11.8125 6.109375 -11.71875 C 6.390625 -11.632812 6.640625 -11.507812 6.859375 -11.34375 C 7.085938 -11.175781 7.269531 -10.972656 7.40625 -10.734375 C 7.550781 -10.503906 7.625 -10.238281 7.625 -9.9375 C 7.625 -9.664062 7.550781 -9.425781 7.40625 -9.21875 C 7.269531 -9.019531 7.085938 -8.851562 6.859375 -8.71875 C 6.890625 -8.820312 6.90625 -8.925781 6.90625 -9.03125 C 6.90625 -9.132812 6.90625 -9.238281 6.90625 -9.34375 C 6.90625 -9.59375 6.878906 -9.851562 6.828125 -10.125 C 6.773438 -10.394531 6.679688 -10.640625 6.546875 -10.859375 C 6.421875 -11.085938 6.257812 -11.273438 6.0625 -11.421875 C 5.863281 -11.566406 5.609375 -11.640625 5.296875 -11.640625 C 4.773438 -11.640625 4.351562 -11.476562 4.03125 -11.15625 C 3.707031 -10.84375 3.546875 -10.425781 3.546875 -9.90625 C 3.546875 -9.625 3.65625 -9.28125 3.875 -8.875 C 4.101562 -8.476562 4.394531 -8.054688 4.75 -7.609375 C 5.101562 -7.171875 5.5 -6.726562 5.9375 -6.28125 C 6.375 -5.832031 6.804688 -5.40625 7.234375 -5 C 7.660156 -4.59375 8.0625 -4.222656 8.4375 -3.890625 C 8.8125 -3.566406 9.117188 -3.3125 9.359375 -3.125 C 9.515625 -3.394531 9.644531 -3.679688 9.75 -3.984375 C 9.851562 -4.285156 9.90625 -4.597656 9.90625 -4.921875 C 9.90625 -5.285156 9.78125 -5.585938 9.53125 -5.828125 C 9.289062 -6.066406 9.019531 -6.269531 8.71875 -6.4375 L 11.734375 -6.171875 C 11.523438 -6.085938 11.320312 -5.90625 11.125 -5.625 C 10.9375 -5.34375 10.753906 -5.023438 10.578125 -4.671875 C 10.398438 -4.328125 10.234375 -3.984375 10.078125 -3.640625 C 9.929688 -3.304688 9.785156 -3.046875 9.640625 -2.859375 C 9.960938 -2.597656 10.289062 -2.316406 10.625 -2.015625 C 10.96875 -1.722656 11.3125 -1.4375 11.65625 -1.15625 C 12 -0.882812 12.359375 -0.640625 12.734375 -0.421875 C 13.109375 -0.203125 13.492188 -0.0351562 13.890625 0.078125 L 12 0.078125 C 11.769531 0.078125 11.5625 0.0507812 11.375 0 C 11.1875 -0.0625 11.003906 -0.164062 10.828125 -0.3125 Z M 2.09375 -4.171875 C 2.09375 -3.691406 2.175781 -3.21875 2.34375 -2.75 C 2.507812 -2.289062 2.738281 -1.878906 3.03125 -1.515625 C 3.332031 -1.160156 3.691406 -0.867188 4.109375 -0.640625 C 4.535156 -0.421875 5.003906 -0.3125 5.515625 -0.3125 C 6.128906 -0.3125 6.703125 -0.484375 7.234375 -0.828125 C 7.773438 -1.171875 8.226562 -1.578125 8.59375 -2.046875 C 7.675781 -2.835938 6.785156 -3.65625 5.921875 -4.5 C 5.054688 -5.34375 4.242188 -6.242188 3.484375 -7.203125 C 3.046875 -6.828125 2.703125 -6.375 2.453125 -5.84375 C 2.210938 -5.3125 2.09375 -4.753906 2.09375 -4.171875 Z M 2.09375 -4.171875 "/></g></g></g><g fill="#4e2a2a" fill-opacity="1"><g transform="translate(204.921282, 309.35002)"><g/></g></g><g fill="#4e2a2a" fill-opacity="1"><g transform="translate(210.777292, 309.35002)"><g><path d="M 16.703125 2.15625 C 16.429688 2.300781 16.140625 2.457031 15.828125 2.625 C 15.515625 2.789062 15.191406 2.9375 14.859375 3.0625 C 14.535156 3.195312 14.207031 3.304688 13.875 3.390625 C 13.550781 3.484375 13.226562 3.53125 12.90625 3.53125 C 12.25 3.53125 11.617188 3.441406 11.015625 3.265625 C 10.421875 3.085938 9.84375 2.867188 9.28125 2.609375 C 8.726562 2.359375 8.164062 2.078125 7.59375 1.765625 C 7.03125 1.453125 6.453125 1.164062 5.859375 0.90625 C 5.265625 0.65625 4.640625 0.441406 3.984375 0.265625 C 3.328125 0.0859375 2.613281 0 1.84375 0 L 0.859375 0 L 7.984375 -11.5625 L 5.09375 -11.5625 C 4.351562 -11.5625 3.640625 -11.363281 2.953125 -10.96875 C 2.265625 -10.570312 1.753906 -10.035156 1.421875 -9.359375 L 2.015625 -11.765625 L 9.71875 -11.765625 L 2.5625 -0.1875 C 3.539062 -0.125 4.488281 0.0625 5.40625 0.375 C 6.332031 0.695312 7.242188 1.035156 8.140625 1.390625 C 9.046875 1.742188 9.957031 2.0625 10.875 2.34375 C 11.800781 2.625 12.753906 2.765625 13.734375 2.765625 C 14.242188 2.765625 14.738281 2.695312 15.21875 2.5625 C 15.707031 2.4375 16.175781 2.265625 16.625 2.046875 Z M 16.703125 2.15625 "/></g></g></g><g fill="#4e2a2a" fill-opacity="1"><g transform="translate(220.689317, 309.35002)"><g><path d="M 3.171875 -1.53125 C 3.171875 -1.21875 3.222656 -0.910156 3.328125 -0.609375 C 3.441406 -0.316406 3.671875 -0.113281 4.015625 0 L 0.84375 0 C 1.195312 -0.113281 1.425781 -0.3125 1.53125 -0.59375 C 1.644531 -0.882812 1.703125 -1.195312 1.703125 -1.53125 L 1.703125 -10.296875 C 1.703125 -10.617188 1.644531 -10.914062 1.53125 -11.1875 C 1.425781 -11.457031 1.195312 -11.648438 0.84375 -11.765625 L 4.015625 -11.765625 C 3.671875 -11.648438 3.441406 -11.457031 3.328125 -11.1875 C 3.222656 -10.914062 3.171875 -10.617188 3.171875 -10.296875 Z M 3.171875 -1.53125 "/></g></g></g><g fill="#4e2a2a" fill-opacity="1"><g transform="translate(225.537331, 309.35002)"><g><path d="M 9.84375 -3.21875 C 9.84375 -2.644531 9.722656 -2.148438 9.484375 -1.734375 C 9.253906 -1.328125 8.945312 -0.992188 8.5625 -0.734375 C 8.175781 -0.484375 7.738281 -0.296875 7.25 -0.171875 C 6.769531 -0.0546875 6.273438 0 5.765625 0 L 0.84375 0 C 1.195312 -0.09375 1.425781 -0.289062 1.53125 -0.59375 C 1.644531 -0.90625 1.703125 -1.21875 1.703125 -1.53125 L 1.703125 -10.3125 C 1.703125 -10.632812 1.640625 -10.929688 1.515625 -11.203125 C 1.398438 -11.472656 1.175781 -11.660156 0.84375 -11.765625 L 4.9375 -11.765625 C 5.40625 -11.765625 5.863281 -11.710938 6.3125 -11.609375 C 6.757812 -11.515625 7.160156 -11.359375 7.515625 -11.140625 C 7.878906 -10.929688 8.171875 -10.644531 8.390625 -10.28125 C 8.617188 -9.925781 8.734375 -9.472656 8.734375 -8.921875 C 8.734375 -8.265625 8.53125 -7.71875 8.125 -7.28125 C 7.726562 -6.84375 7.226562 -6.535156 6.625 -6.359375 C 7.070312 -6.304688 7.488281 -6.203125 7.875 -6.046875 C 8.269531 -5.898438 8.613281 -5.695312 8.90625 -5.4375 C 9.195312 -5.175781 9.425781 -4.859375 9.59375 -4.484375 C 9.757812 -4.117188 9.84375 -3.695312 9.84375 -3.21875 Z M 3.140625 -6.390625 L 4.625 -6.390625 C 5.445312 -6.390625 6.09375 -6.601562 6.5625 -7.03125 C 7.03125 -7.46875 7.265625 -8.097656 7.265625 -8.921875 C 7.265625 -9.742188 7.046875 -10.390625 6.609375 -10.859375 C 6.171875 -11.328125 5.546875 -11.5625 4.734375 -11.5625 L 3.140625 -11.5625 Z M 3.140625 -0.1875 L 5.359375 -0.1875 C 6.316406 -0.1875 7.035156 -0.457031 7.515625 -1 C 8.003906 -1.550781 8.25 -2.289062 8.25 -3.21875 C 8.25 -4.175781 7.96875 -4.910156 7.40625 -5.421875 C 6.851562 -5.929688 6.101562 -6.1875 5.15625 -6.1875 L 3.140625 -6.1875 Z M 3.140625 -0.1875 "/></g></g></g><g fill="#4e2a2a" fill-opacity="1"><g transform="translate(236.217358, 309.35002)"><g><path d="M 5.453125 -0.1875 C 6.203125 -0.1875 6.9375 -0.363281 7.65625 -0.71875 C 8.375 -1.070312 8.914062 -1.59375 9.28125 -2.28125 L 8.734375 0 L 0.84375 0 C 1.195312 -0.113281 1.425781 -0.316406 1.53125 -0.609375 C 1.644531 -0.910156 1.703125 -1.21875 1.703125 -1.53125 L 1.703125 -10.296875 C 1.703125 -10.617188 1.644531 -10.914062 1.53125 -11.1875 C 1.425781 -11.46875 1.195312 -11.660156 0.84375 -11.765625 L 8.5625 -11.765625 L 9.046875 -9.5 C 8.679688 -10.207031 8.1875 -10.726562 7.5625 -11.0625 C 6.945312 -11.394531 6.25 -11.5625 5.46875 -11.5625 L 3.171875 -11.5625 L 3.171875 -6.078125 L 4.65625 -6.078125 C 5.082031 -6.078125 5.476562 -6.164062 5.84375 -6.34375 C 6.21875 -6.53125 6.46875 -6.851562 6.59375 -7.3125 L 6.59375 -4.6875 C 6.46875 -5.144531 6.21875 -5.457031 5.84375 -5.625 C 5.476562 -5.789062 5.082031 -5.875 4.65625 -5.875 L 3.171875 -5.875 L 3.171875 -0.1875 Z M 5.453125 -0.1875 "/></g></g></g><g fill="#4e2a2a" fill-opacity="1"><g transform="translate(246.345378, 309.35002)"><g><path d="M 3.171875 -1.484375 C 3.171875 -1.171875 3.234375 -0.875 3.359375 -0.59375 C 3.484375 -0.3125 3.707031 -0.113281 4.03125 0 L 0.859375 0 C 1.203125 -0.113281 1.425781 -0.316406 1.53125 -0.609375 C 1.644531 -0.910156 1.703125 -1.21875 1.703125 -1.53125 L 1.703125 -10.296875 C 1.703125 -10.617188 1.644531 -10.914062 1.53125 -11.1875 C 1.425781 -11.46875 1.203125 -11.660156 0.859375 -11.765625 L 4.9375 -11.765625 C 5.519531 -11.765625 6.085938 -11.695312 6.640625 -11.5625 C 7.191406 -11.4375 7.679688 -11.234375 8.109375 -10.953125 C 8.546875 -10.671875 8.894531 -10.300781 9.15625 -9.84375 C 9.414062 -9.394531 9.546875 -8.84375 9.546875 -8.1875 C 9.546875 -7.238281 9.257812 -6.46875 8.6875 -5.875 C 8.125 -5.28125 7.40625 -4.882812 6.53125 -4.6875 L 8.71875 -1.15625 C 8.882812 -0.894531 9.085938 -0.660156 9.328125 -0.453125 C 9.578125 -0.242188 9.835938 -0.09375 10.109375 0 L 7.875 0 L 5.015625 -4.625 L 3.171875 -4.625 Z M 3.171875 -4.796875 L 4.796875 -4.796875 C 5.804688 -4.796875 6.601562 -5.109375 7.1875 -5.734375 C 7.769531 -6.359375 8.0625 -7.175781 8.0625 -8.1875 C 8.0625 -9.238281 7.78125 -10.0625 7.21875 -10.65625 C 6.664062 -11.257812 5.859375 -11.5625 4.796875 -11.5625 L 3.171875 -11.5625 Z M 3.171875 -4.796875 "/></g></g></g><g fill="#4e2a2a" fill-opacity="1"><g transform="translate(257.31864, 309.35002)"><g/></g></g><g fill="#4e2a2a" fill-opacity="1"><g transform="translate(148.00684, 333.849998)"><g><path d="M 6.015625 -1.84375 C 5.203125 -3.644531 4.570312 -5.0625 4.125 -6.09375 C 3.675781 -7.132812 3.238281 -8.234375 2.8125 -9.390625 L 2.796875 -8.6875 C 2.703125 -5.5625 2.644531 -3.332031 2.625 -2 C 2.625 -1.84375 2.617188 -1.722656 2.609375 -1.640625 C 2.609375 -1.285156 2.59375 -0.953125 2.5625 -0.640625 L 3.765625 -0.703125 L 3.765625 0 L 0.703125 0 L 0.703125 -0.53125 C 1.148438 -0.539062 1.441406 -0.664062 1.578125 -0.90625 C 1.710938 -1.144531 1.789062 -1.507812 1.8125 -2 L 2.15625 -10.5625 L 1.015625 -10.515625 L 1.015625 -11.203125 L 3.453125 -11.203125 L 5.625 -6.171875 C 6.414062 -4.316406 7.023438 -2.910156 7.453125 -1.953125 L 7.484375 -1.953125 C 7.617188 -2.273438 7.890625 -2.960938 8.296875 -4.015625 C 8.703125 -5.035156 9.171875 -6.160156 9.703125 -7.390625 C 10.304688 -8.816406 10.828125 -10.085938 11.265625 -11.203125 L 13.625 -11.203125 L 13.625 -10.671875 C 13.25 -10.679688 12.96875 -10.578125 12.78125 -10.359375 C 12.601562 -10.140625 12.515625 -9.769531 12.515625 -9.25 L 12.53125 -8.921875 L 12.9375 -1.640625 C 12.957031 -1.398438 12.96875 -1.070312 12.96875 -0.65625 L 14.140625 -0.703125 L 14.140625 0 L 10.5625 0 L 10.5625 -0.53125 C 10.976562 -0.539062 11.257812 -0.660156 11.40625 -0.890625 C 11.550781 -1.117188 11.625 -1.476562 11.625 -1.96875 C 11.625 -2.164062 11.617188 -2.320312 11.609375 -2.4375 L 11.203125 -9.25 C 11.179688 -9.195312 11.148438 -9.125 11.109375 -9.03125 C 11.078125 -8.945312 11.035156 -8.847656 10.984375 -8.734375 L 7.390625 0.15625 L 6.90625 0.15625 Z M 6.015625 -1.84375 "/></g></g></g><g fill="#4e2a2a" fill-opacity="1"><g transform="translate(162.691314, 333.849998)"><g><path d="M 2.9375 0.25 C 2.164062 0.25 1.570312 0.078125 1.15625 -0.265625 C 0.75 -0.617188 0.546875 -1.078125 0.546875 -1.640625 C 0.546875 -2.265625 0.789062 -2.789062 1.28125 -3.21875 C 1.78125 -3.644531 2.40625 -3.960938 3.15625 -4.171875 C 3.90625 -4.378906 4.660156 -4.476562 5.421875 -4.46875 L 5.421875 -5.453125 C 5.421875 -6.148438 5.316406 -6.691406 5.109375 -7.078125 C 4.910156 -7.460938 4.484375 -7.65625 3.828125 -7.65625 C 3.492188 -7.65625 3.175781 -7.585938 2.875 -7.453125 C 2.582031 -7.316406 2.363281 -7.109375 2.21875 -6.828125 C 2.363281 -6.679688 2.4375 -6.476562 2.4375 -6.21875 C 2.4375 -6.0625 2.375 -5.910156 2.25 -5.765625 C 2.132812 -5.617188 1.96875 -5.546875 1.75 -5.546875 C 1.519531 -5.546875 1.34375 -5.617188 1.21875 -5.765625 C 1.09375 -5.910156 1.03125 -6.101562 1.03125 -6.34375 C 1.03125 -6.6875 1.164062 -7.003906 1.4375 -7.296875 C 1.707031 -7.597656 2.082031 -7.832031 2.5625 -8 C 3.050781 -8.164062 3.59375 -8.25 4.1875 -8.25 C 5.082031 -8.25 5.742188 -8.007812 6.171875 -7.53125 C 6.597656 -7.0625 6.804688 -6.316406 6.796875 -5.296875 L 6.78125 -1.703125 C 6.78125 -1.359375 6.757812 -0.992188 6.71875 -0.609375 L 7.859375 -0.671875 L 7.859375 0 L 5.5625 0 C 5.53125 -0.15625 5.492188 -0.457031 5.453125 -0.90625 C 4.671875 -0.132812 3.832031 0.25 2.9375 0.25 Z M 3.3125 -0.65625 C 3.71875 -0.65625 4.082031 -0.734375 4.40625 -0.890625 C 4.738281 -1.046875 5.078125 -1.28125 5.421875 -1.59375 C 5.410156 -1.757812 5.40625 -2.035156 5.40625 -2.421875 L 5.421875 -3.921875 C 4.546875 -3.890625 3.765625 -3.707031 3.078125 -3.375 C 2.398438 -3.050781 2.0625 -2.554688 2.0625 -1.890625 C 2.0625 -1.492188 2.175781 -1.1875 2.40625 -0.96875 C 2.644531 -0.757812 2.945312 -0.65625 3.3125 -0.65625 Z M 3.3125 -0.65625 "/></g></g></g><g fill="#4e2a2a" fill-opacity="1"><g transform="translate(170.945331, 333.849998)"><g><path d="M 1.9375 4.34375 C 1.582031 4.34375 1.289062 4.253906 1.0625 4.078125 C 0.84375 3.910156 0.734375 3.671875 0.734375 3.359375 C 0.734375 3.160156 0.800781 2.984375 0.9375 2.828125 C 1.070312 2.671875 1.242188 2.59375 1.453125 2.59375 C 1.671875 2.59375 1.828125 2.664062 1.921875 2.8125 C 2.023438 2.96875 2.078125 3.125 2.078125 3.28125 C 2.078125 3.375 2.070312 3.445312 2.0625 3.5 C 2.09375 3.519531 2.148438 3.53125 2.234375 3.53125 C 2.378906 3.53125 2.519531 3.476562 2.65625 3.375 C 2.800781 3.269531 2.9375 3.113281 3.0625 2.90625 C 3.300781 2.5 3.671875 1.585938 4.171875 0.171875 L 1.6875 -5.171875 C 1.238281 -6.128906 0.953125 -6.863281 0.828125 -7.375 L 0.0625 -7.34375 L 0.0625 -8 L 3.375 -8 L 3.375 -7.515625 L 3.3125 -7.515625 C 2.8125 -7.484375 2.5625 -7.269531 2.5625 -6.875 C 2.5625 -6.613281 2.6875 -6.195312 2.9375 -5.625 L 4.8125 -1.609375 C 5.132812 -2.515625 5.59375 -3.851562 6.1875 -5.625 C 6.550781 -6.6875 6.8125 -7.28125 6.96875 -7.40625 L 5.875 -7.34375 L 5.875 -8 L 8.390625 -8 L 8.390625 -7.515625 C 8.023438 -7.378906 7.742188 -7.160156 7.546875 -6.859375 C 7.347656 -6.554688 7.128906 -6.082031 6.890625 -5.4375 L 4.890625 0.140625 C 4.503906 1.222656 4.1875 2.035156 3.9375 2.578125 C 3.6875 3.128906 3.40625 3.5625 3.09375 3.875 C 2.78125 4.1875 2.394531 4.34375 1.9375 4.34375 Z M 1.9375 4.34375 "/></g></g></g><g fill="#4e2a2a" fill-opacity="1"><g transform="translate(179.391299, 333.849998)"><g/></g></g><g fill="#4e2a2a" fill-opacity="1"><g transform="translate(183.598284, 333.849998)"><g><path d="M 4.421875 0.25 C 3.859375 0.25 3.3125 0.164062 2.78125 0 C 2.257812 -0.175781 1.820312 -0.460938 1.46875 -0.859375 C 1.113281 -1.253906 0.9375 -1.769531 0.9375 -2.40625 C 0.9375 -3.582031 1.75 -4.675781 3.375 -5.6875 C 1.90625 -6.570312 1.171875 -7.53125 1.171875 -8.5625 C 1.171875 -9.195312 1.332031 -9.726562 1.65625 -10.15625 C 1.976562 -10.59375 2.398438 -10.914062 2.921875 -11.125 C 3.453125 -11.34375 4 -11.453125 4.5625 -11.453125 C 5.113281 -11.453125 5.625 -11.347656 6.09375 -11.140625 C 6.570312 -10.941406 6.957031 -10.648438 7.25 -10.265625 C 7.539062 -9.878906 7.6875 -9.414062 7.6875 -8.875 C 7.6875 -8.28125 7.484375 -7.742188 7.078125 -7.265625 C 6.679688 -6.796875 6.160156 -6.398438 5.515625 -6.078125 C 6.304688 -5.617188 6.945312 -5.09375 7.4375 -4.5 C 7.9375 -3.90625 8.1875 -3.289062 8.1875 -2.65625 C 8.1875 -1.707031 7.828125 -0.984375 7.109375 -0.484375 C 6.390625 0.00390625 5.492188 0.25 4.421875 0.25 Z M 4.953125 -6.40625 C 5.441406 -6.726562 5.8125 -7.097656 6.0625 -7.515625 C 6.3125 -7.929688 6.4375 -8.347656 6.4375 -8.765625 C 6.4375 -9.429688 6.265625 -9.941406 5.921875 -10.296875 C 5.585938 -10.648438 5.132812 -10.828125 4.5625 -10.828125 C 3.957031 -10.828125 3.488281 -10.640625 3.15625 -10.265625 C 2.820312 -9.890625 2.65625 -9.4375 2.65625 -8.90625 C 2.65625 -8.34375 2.867188 -7.84375 3.296875 -7.40625 C 3.722656 -6.96875 4.273438 -6.632812 4.953125 -6.40625 Z M 4.5 -0.390625 C 5.164062 -0.390625 5.6875 -0.5625 6.0625 -0.90625 C 6.4375 -1.25 6.625 -1.734375 6.625 -2.359375 C 6.625 -3.628906 5.742188 -4.640625 3.984375 -5.390625 C 3.398438 -4.972656 2.96875 -4.503906 2.6875 -3.984375 C 2.414062 -3.460938 2.28125 -2.972656 2.28125 -2.515625 C 2.28125 -1.867188 2.484375 -1.351562 2.890625 -0.96875 C 3.296875 -0.582031 3.832031 -0.390625 4.5 -0.390625 Z M 4.5 -0.390625 "/></g></g></g><g fill="#4e2a2a" fill-opacity="1"><g transform="translate(192.588121, 333.849998)"><g><path d="M 1.453125 2.546875 C 1.640625 2.304688 1.8125 1.972656 1.96875 1.546875 C 2.125 1.117188 2.203125 0.695312 2.203125 0.28125 C 2.203125 0.15625 2.195312 0.0625 2.1875 0 C 2.050781 0.0625 1.921875 0.09375 1.796875 0.09375 C 1.578125 0.09375 1.398438 0.0195312 1.265625 -0.125 C 1.128906 -0.28125 1.0625 -0.46875 1.0625 -0.6875 C 1.0625 -0.976562 1.144531 -1.203125 1.3125 -1.359375 C 1.476562 -1.523438 1.6875 -1.609375 1.9375 -1.609375 C 2.289062 -1.609375 2.566406 -1.472656 2.765625 -1.203125 C 2.972656 -0.929688 3.078125 -0.582031 3.078125 -0.15625 C 3.078125 0.28125 2.960938 0.804688 2.734375 1.421875 C 2.503906 2.046875 2.222656 2.523438 1.890625 2.859375 Z M 1.453125 2.546875 "/></g></g></g><g fill="#4e2a2a" fill-opacity="1"><g transform="translate(196.635152, 333.849998)"><g/></g></g><g fill="#4e2a2a" fill-opacity="1"><g transform="translate(200.842137, 333.849998)"><g><path d="M 0.734375 0 C 0.734375 -0.601562 0.84375 -1.144531 1.0625 -1.625 C 1.28125 -2.113281 1.550781 -2.539062 1.875 -2.90625 C 2.195312 -3.269531 2.65625 -3.726562 3.25 -4.28125 C 3.664062 -4.664062 3.878906 -4.863281 3.890625 -4.875 C 4.566406 -5.53125 5.0625 -6.140625 5.375 -6.703125 C 5.695312 -7.265625 5.859375 -7.816406 5.859375 -8.359375 C 5.859375 -9.054688 5.703125 -9.640625 5.390625 -10.109375 C 5.085938 -10.585938 4.585938 -10.828125 3.890625 -10.828125 C 3.453125 -10.828125 3.0625 -10.71875 2.71875 -10.5 C 2.375 -10.289062 2.144531 -10.023438 2.03125 -9.703125 C 2.21875 -9.492188 2.3125 -9.253906 2.3125 -8.984375 C 2.3125 -8.804688 2.25 -8.632812 2.125 -8.46875 C 2 -8.3125 1.8125 -8.234375 1.5625 -8.234375 C 1.332031 -8.234375 1.144531 -8.316406 1 -8.484375 C 0.863281 -8.648438 0.796875 -8.863281 0.796875 -9.125 C 0.796875 -9.445312 0.925781 -9.789062 1.1875 -10.15625 C 1.445312 -10.519531 1.832031 -10.828125 2.34375 -11.078125 C 2.851562 -11.328125 3.453125 -11.453125 4.140625 -11.453125 C 5.097656 -11.453125 5.894531 -11.21875 6.53125 -10.75 C 7.175781 -10.289062 7.5 -9.5625 7.5 -8.5625 C 7.5 -8 7.25 -7.363281 6.75 -6.65625 C 6.257812 -5.945312 5.46875 -5.144531 4.375 -4.25 C 3.625 -3.632812 3.019531 -3.066406 2.5625 -2.546875 C 2.113281 -2.023438 1.851562 -1.582031 1.78125 -1.21875 L 4.609375 -1.140625 C 4.835938 -1.128906 5.15625 -1.125 5.5625 -1.125 C 6.15625 -1.125 6.585938 -1.195312 6.859375 -1.34375 C 7.140625 -1.488281 7.28125 -1.785156 7.28125 -2.234375 L 7.765625 -2.234375 L 7.65625 0 Z M 0.734375 0 "/></g></g></g><g fill="#4e2a2a" fill-opacity="1"><g transform="translate(209.432072, 333.849998)"><g><path d="M 4.96875 0.25 C 3.488281 0.25 2.4375 -0.3125 1.8125 -1.4375 C 1.195312 -2.570312 0.890625 -3.941406 0.890625 -5.546875 C 0.890625 -6.523438 1.035156 -7.460938 1.328125 -8.359375 C 1.628906 -9.265625 2.085938 -10.003906 2.703125 -10.578125 C 3.316406 -11.160156 4.097656 -11.453125 5.046875 -11.453125 C 6.015625 -11.453125 6.796875 -11.164062 7.390625 -10.59375 C 7.984375 -10.03125 8.410156 -9.3125 8.671875 -8.4375 C 8.929688 -7.5625 9.0625 -6.625 9.0625 -5.625 C 9.0625 -4.664062 8.914062 -3.738281 8.625 -2.84375 C 8.34375 -1.945312 7.894531 -1.207031 7.28125 -0.625 C 6.675781 -0.0390625 5.90625 0.25 4.96875 0.25 Z M 5.078125 -0.375 C 5.898438 -0.375 6.492188 -0.847656 6.859375 -1.796875 C 7.222656 -2.753906 7.40625 -3.921875 7.40625 -5.296875 C 7.40625 -6.828125 7.21875 -8.132812 6.84375 -9.21875 C 6.476562 -10.300781 5.867188 -10.84375 5.015625 -10.84375 C 4.160156 -10.84375 3.535156 -10.359375 3.140625 -9.390625 C 2.742188 -8.421875 2.546875 -7.253906 2.546875 -5.890625 C 2.546875 -4.460938 2.734375 -3.1875 3.109375 -2.0625 C 3.492188 -0.9375 4.148438 -0.375 5.078125 -0.375 Z M 5.078125 -0.375 "/></g></g></g><g fill="#4e2a2a" fill-opacity="1"><g transform="translate(219.365681, 333.849998)"><g><path d="M 0.734375 0 C 0.734375 -0.601562 0.84375 -1.144531 1.0625 -1.625 C 1.28125 -2.113281 1.550781 -2.539062 1.875 -2.90625 C 2.195312 -3.269531 2.65625 -3.726562 3.25 -4.28125 C 3.664062 -4.664062 3.878906 -4.863281 3.890625 -4.875 C 4.566406 -5.53125 5.0625 -6.140625 5.375 -6.703125 C 5.695312 -7.265625 5.859375 -7.816406 5.859375 -8.359375 C 5.859375 -9.054688 5.703125 -9.640625 5.390625 -10.109375 C 5.085938 -10.585938 4.585938 -10.828125 3.890625 -10.828125 C 3.453125 -10.828125 3.0625 -10.71875 2.71875 -10.5 C 2.375 -10.289062 2.144531 -10.023438 2.03125 -9.703125 C 2.21875 -9.492188 2.3125 -9.253906 2.3125 -8.984375 C 2.3125 -8.804688 2.25 -8.632812 2.125 -8.46875 C 2 -8.3125 1.8125 -8.234375 1.5625 -8.234375 C 1.332031 -8.234375 1.144531 -8.316406 1 -8.484375 C 0.863281 -8.648438 0.796875 -8.863281 0.796875 -9.125 C 0.796875 -9.445312 0.925781 -9.789062 1.1875 -10.15625 C 1.445312 -10.519531 1.832031 -10.828125 2.34375 -11.078125 C 2.851562 -11.328125 3.453125 -11.453125 4.140625 -11.453125 C 5.097656 -11.453125 5.894531 -11.21875 6.53125 -10.75 C 7.175781 -10.289062 7.5 -9.5625 7.5 -8.5625 C 7.5 -8 7.25 -7.363281 6.75 -6.65625 C 6.257812 -5.945312 5.46875 -5.144531 4.375 -4.25 C 3.625 -3.632812 3.019531 -3.066406 2.5625 -2.546875 C 2.113281 -2.023438 1.851562 -1.582031 1.78125 -1.21875 L 4.609375 -1.140625 C 4.835938 -1.128906 5.15625 -1.125 5.5625 -1.125 C 6.15625 -1.125 6.585938 -1.195312 6.859375 -1.34375 C 7.140625 -1.488281 7.28125 -1.785156 7.28125 -2.234375 L 7.765625 -2.234375 L 7.65625 0 Z M 0.734375 0 "/></g></g></g><g fill="#4e2a2a" fill-opacity="1"><g transform="translate(227.955615, 333.849998)"><g><path d="M 4.71875 0.25 C 3.351562 0.25 2.375 -0.21875 1.78125 -1.15625 C 1.1875 -2.101562 0.890625 -3.472656 0.890625 -5.265625 C 0.890625 -6.085938 1.007812 -6.96875 1.25 -7.90625 C 1.5 -8.851562 1.945312 -9.679688 2.59375 -10.390625 C 3.25 -11.097656 4.132812 -11.453125 5.25 -11.453125 C 5.84375 -11.453125 6.351562 -11.34375 6.78125 -11.125 C 7.207031 -10.90625 7.53125 -10.640625 7.75 -10.328125 C 7.96875 -10.015625 8.078125 -9.710938 8.078125 -9.421875 C 8.078125 -9.191406 8.019531 -9 7.90625 -8.84375 C 7.789062 -8.6875 7.617188 -8.601562 7.390625 -8.59375 C 7.148438 -8.582031 6.96875 -8.648438 6.84375 -8.796875 C 6.726562 -8.941406 6.671875 -9.097656 6.671875 -9.265625 C 6.671875 -9.484375 6.734375 -9.707031 6.859375 -9.9375 C 6.796875 -10.15625 6.617188 -10.363281 6.328125 -10.5625 C 6.035156 -10.757812 5.6875 -10.859375 5.28125 -10.859375 C 4.21875 -10.859375 3.484375 -10.300781 3.078125 -9.1875 C 2.671875 -8.070312 2.445312 -6.890625 2.40625 -5.640625 C 2.6875 -6.035156 3.054688 -6.359375 3.515625 -6.609375 C 3.972656 -6.859375 4.5 -6.984375 5.09375 -6.984375 C 5.882812 -6.984375 6.535156 -6.804688 7.046875 -6.453125 C 7.554688 -6.109375 7.921875 -5.660156 8.140625 -5.109375 C 8.359375 -4.566406 8.46875 -4 8.46875 -3.40625 C 8.46875 -2.75 8.300781 -2.140625 7.96875 -1.578125 C 7.644531 -1.015625 7.195312 -0.566406 6.625 -0.234375 C 6.0625 0.0859375 5.425781 0.25 4.71875 0.25 Z M 4.75 -0.375 C 5.457031 -0.375 5.984375 -0.628906 6.328125 -1.140625 C 6.671875 -1.648438 6.84375 -2.289062 6.84375 -3.0625 C 6.84375 -3.875 6.691406 -4.609375 6.390625 -5.265625 C 6.085938 -5.929688 5.539062 -6.265625 4.75 -6.265625 C 4.257812 -6.265625 3.785156 -6.085938 3.328125 -5.734375 C 2.878906 -5.390625 2.578125 -4.984375 2.421875 -4.515625 C 2.484375 -3.316406 2.691406 -2.328125 3.046875 -1.546875 C 3.410156 -0.765625 3.976562 -0.375 4.75 -0.375 Z M 4.75 -0.375 "/></g></g></g></svg>