<svg xmlns="http://www.w3.org/2000/svg" xmlns:xlink="http://www.w3.org/1999/xlink" width="1280" zoomAndPan="magnify" viewBox="0 0 960 225" height="300" preserveAspectRatio="xMidYMid meet" version="1.0"><defs><clipPath id="60cd6d11e6"><path d="M 741.132812 0.554688 L 907.023438 0.554688 L 907.023438 166.445312 L 741.132812 166.445312 Z M 741.132812 0.554688 " clip-rule="nonzero"/></clipPath><clipPath id="e02ba327ba"><path d="M 824.078125 0.554688 C 778.269531 0.554688 741.132812 37.691406 741.132812 83.5 C 741.132812 129.308594 778.269531 166.445312 824.078125 166.445312 C 869.886719 166.445312 907.023438 129.308594 907.023438 83.5 C 907.023438 37.691406 869.886719 0.554688 824.078125 0.554688 Z M 824.078125 0.554688 " clip-rule="nonzero"/></clipPath><clipPath id="119d73fcb6"><path d="M 0.132812 0.554688 L 166.023438 0.554688 L 166.023438 166.445312 L 0.132812 166.445312 Z M 0.132812 0.554688 " clip-rule="nonzero"/></clipPath><clipPath id="a9f82fdc3d"><path d="M 83.078125 0.554688 C 37.269531 0.554688 0.132812 37.691406 0.132812 83.5 C 0.132812 129.308594 37.269531 166.445312 83.078125 166.445312 C 128.886719 166.445312 166.023438 129.308594 166.023438 83.5 C 166.023438 37.691406 128.886719 0.554688 83.078125 0.554688 Z M 83.078125 0.554688 " clip-rule="nonzero"/></clipPath><clipPath id="27e48e9244"><rect x="0" width="167" y="0" height="167"/></clipPath><clipPath id="7e1736bb2e"><path d="M 554.746094 0.554688 L 720.640625 0.554688 L 720.640625 166.445312 L 554.746094 166.445312 Z M 554.746094 0.554688 " clip-rule="nonzero"/></clipPath><clipPath id="160ac6cd3a"><path d="M 637.691406 0.554688 C 591.882812 0.554688 554.746094 37.691406 554.746094 83.5 C 554.746094 129.308594 591.882812 166.445312 637.691406 166.445312 C 683.503906 166.445312 720.640625 129.308594 720.640625 83.5 C 720.640625 37.691406 683.503906 0.554688 637.691406 0.554688 Z M 637.691406 0.554688 " clip-rule="nonzero"/></clipPath><clipPath id="164a863b3e"><path d="M 0.746094 0.554688 L 166.640625 0.554688 L 166.640625 166.445312 L 0.746094 166.445312 Z M 0.746094 0.554688 " clip-rule="nonzero"/></clipPath><clipPath id="75f633081e"><path d="M 83.691406 0.554688 C 37.882812 0.554688 0.746094 37.691406 0.746094 83.5 C 0.746094 129.308594 37.882812 166.445312 83.691406 166.445312 C 129.503906 166.445312 166.640625 129.308594 166.640625 83.5 C 166.640625 37.691406 129.503906 0.554688 83.691406 0.554688 Z M 83.691406 0.554688 " clip-rule="nonzero"/></clipPath><clipPath id="44701113be"><rect x="0" width="167" y="0" height="167"/></clipPath><clipPath id="9f888ce026"><path d="M 370.15625 0.554688 L 536.046875 0.554688 L 536.046875 166.445312 L 370.15625 166.445312 Z M 370.15625 0.554688 " clip-rule="nonzero"/></clipPath><clipPath id="ac17cf2cfd"><path d="M 453.101562 0.554688 C 407.292969 0.554688 370.15625 37.691406 370.15625 83.5 C 370.15625 129.308594 407.292969 166.445312 453.101562 166.445312 C 498.914062 166.445312 536.046875 129.308594 536.046875 83.5 C 536.046875 37.691406 498.914062 0.554688 453.101562 0.554688 Z M 453.101562 0.554688 " clip-rule="nonzero"/></clipPath><clipPath id="145787b2f5"><path d="M 0.15625 0.554688 L 166.046875 0.554688 L 166.046875 166.445312 L 0.15625 166.445312 Z M 0.15625 0.554688 " clip-rule="nonzero"/></clipPath><clipPath id="8b25cfd712"><path d="M 83.101562 0.554688 C 37.292969 0.554688 0.15625 37.691406 0.15625 83.5 C 0.15625 129.308594 37.292969 166.445312 83.101562 166.445312 C 128.914062 166.445312 166.046875 129.308594 166.046875 83.5 C 166.046875 37.691406 128.914062 0.554688 83.101562 0.554688 Z M 83.101562 0.554688 " clip-rule="nonzero"/></clipPath><clipPath id="bfe01446e9"><rect x="0" width="167" y="0" height="167"/></clipPath><clipPath id="8a727e4e9a"><path d="M 185.566406 0.554688 L 351.457031 0.554688 L 351.457031 166.445312 L 185.566406 166.445312 Z M 185.566406 0.554688 " clip-rule="nonzero"/></clipPath><clipPath id="9987fcf0b7"><path d="M 268.511719 0.554688 C 222.703125 0.554688 185.566406 37.691406 185.566406 83.5 C 185.566406 129.308594 222.703125 166.445312 268.511719 166.445312 C 314.320312 166.445312 351.457031 129.308594 351.457031 83.5 C 351.457031 37.691406 314.320312 0.554688 268.511719 0.554688 Z M 268.511719 0.554688 " clip-rule="nonzero"/></clipPath><clipPath id="1a757149da"><path d="M 0.566406 0.554688 L 166.457031 0.554688 L 166.457031 166.445312 L 0.566406 166.445312 Z M 0.566406 0.554688 " clip-rule="nonzero"/></clipPath><clipPath id="88cc965654"><path d="M 83.511719 0.554688 C 37.703125 0.554688 0.566406 37.691406 0.566406 83.5 C 0.566406 129.308594 37.703125 166.445312 83.511719 166.445312 C 129.320312 166.445312 166.457031 129.308594 166.457031 83.5 C 166.457031 37.691406 129.320312 0.554688 83.511719 0.554688 Z M 83.511719 0.554688 " clip-rule="nonzero"/></clipPath><clipPath id="e5c008d360"><rect x="0" width="167" y="0" height="167"/></clipPath><clipPath id="1373b4833a"><path d="M 0.976562 0.554688 L 166.867188 0.554688 L 166.867188 166.445312 L 0.976562 166.445312 Z M 0.976562 0.554688 " clip-rule="nonzero"/></clipPath><clipPath id="7222558d5e"><path d="M 83.921875 0.554688 C 38.113281 0.554688 0.976562 37.691406 0.976562 83.5 C 0.976562 129.308594 38.113281 166.445312 83.921875 166.445312 C 129.730469 166.445312 166.867188 129.308594 166.867188 83.5 C 166.867188 37.691406 129.730469 0.554688 83.921875 0.554688 Z M 83.921875 0.554688 " clip-rule="nonzero"/></clipPath><clipPath id="d0b5d122be"><path d="M 0.976562 0.554688 L 166.867188 0.554688 L 166.867188 166.445312 L 0.976562 166.445312 Z M 0.976562 0.554688 " clip-rule="nonzero"/></clipPath><clipPath id="e3046369cd"><path d="M 83.921875 0.554688 C 38.113281 0.554688 0.976562 37.691406 0.976562 83.5 C 0.976562 129.308594 38.113281 166.445312 83.921875 166.445312 C 129.730469 166.445312 166.867188 129.308594 166.867188 83.5 C 166.867188 37.691406 129.730469 0.554688 83.921875 0.554688 Z M 83.921875 0.554688 " clip-rule="nonzero"/></clipPath><clipPath id="05ca87d8c0"><rect x="0" width="167" y="0" height="167"/></clipPath><clipPath id="84d2e11545"><rect x="0" width="908" y="0" height="167"/></clipPath></defs><g transform="matrix(1, 0, 0, 1, 26, 29)"><g clip-path="url(#84d2e11545)"><g clip-path="url(#60cd6d11e6)"><g clip-path="url(#e02ba327ba)"><g transform="matrix(1, 0, 0, 1, 741, -0.000000000000010658)"><g clip-path="url(#27e48e9244)"><g clip-path="url(#119d73fcb6)"><g clip-path="url(#a9f82fdc3d)"><path fill="#ead7ac" d="M 0.132812 0.554688 L 166.023438 0.554688 L 166.023438 166.445312 L 0.132812 166.445312 Z M 0.132812 0.554688 " fill-opacity="1" fill-rule="nonzero"/></g></g></g></g></g></g><g clip-path="url(#7e1736bb2e)"><g clip-path="url(#160ac6cd3a)"><g transform="matrix(1, 0, 0, 1, 554, -0.000000000000010658)"><g clip-path="url(#44701113be)"><g clip-path="url(#164a863b3e)"><g clip-path="url(#75f633081e)"><path fill="#d2b48c" d="M 0.746094 0.554688 L 166.640625 0.554688 L 166.640625 166.445312 L 0.746094 166.445312 Z M 0.746094 0.554688 " fill-opacity="1" fill-rule="nonzero"/></g></g></g></g></g></g><g clip-path="url(#9f888ce026)"><g clip-path="url(#ac17cf2cfd)"><g transform="matrix(1, 0, 0, 1, 370, -0.000000000000010658)"><g clip-path="url(#bfe01446e9)"><g clip-path="url(#145787b2f5)"><g clip-path="url(#8b25cfd712)"><path fill="#895921" d="M 0.15625 0.554688 L 166.046875 0.554688 L 166.046875 166.445312 L 0.15625 166.445312 Z M 0.15625 0.554688 " fill-opacity="1" fill-rule="nonzero"/></g></g></g></g></g></g><g clip-path="url(#8a727e4e9a)"><g clip-path="url(#9987fcf0b7)"><g transform="matrix(1, 0, 0, 1, 185, -0.000000000000010658)"><g clip-path="url(#e5c008d360)"><g clip-path="url(#1a757149da)"><g clip-path="url(#88cc965654)"><path fill="#6f4e37" d="M 0.566406 0.554688 L 166.457031 0.554688 L 166.457031 166.445312 L 0.566406 166.445312 Z M 0.566406 0.554688 " fill-opacity="1" fill-rule="nonzero"/></g></g></g></g></g></g><g clip-path="url(#1373b4833a)"><g clip-path="url(#7222558d5e)"><g transform="matrix(1, 0, 0, 1, 0, -0.000000000000010658)"><g clip-path="url(#05ca87d8c0)"><g clip-path="url(#d0b5d122be)"><g clip-path="url(#e3046369cd)"><path fill="#6b7a6a" d="M 0.976562 0.554688 L 166.867188 0.554688 L 166.867188 166.445312 L 0.976562 166.445312 Z M 0.976562 0.554688 " fill-opacity="1" fill-rule="nonzero"/></g></g></g></g></g></g></g></g></svg>