<?xml version="1.0" encoding="UTF-8"?>
<svg version="1.1" xmlns="http://www.w3.org/2000/svg" width="512" height="512">
<path d="M0 0 C0.97305084 0.00215515 1.94610168 0.0043103 2.94863892 0.00653076 C17.29535732 0.05752743 31.34115345 0.40115583 45.4375 3.3125 C46.42057129 3.51117676 47.40364258 3.70985352 48.41650391 3.91455078 C71.58063126 8.73214075 92.85938281 16.54098525 114.0703125 26.96875 C115.6790625 27.75886475 115.6790625 27.75886475 117.3203125 28.56494141 C120.4375 30.3125 120.4375 30.3125 123.0859375 32.47802734 C134.16742791 41.20121873 147.73709823 39.22769839 161.15570068 38.97564697 C165.86154759 38.88729483 170.56632439 38.82317516 175.27301025 38.80502319 C177.76756977 38.79464491 180.26222359 38.75630619 182.75579834 38.68545532 C190.57012488 38.64253313 195.70869656 39.80711951 201.4375 45.3125 C206.65683555 51.5398639 206.03931464 58.26746045 206.046875 66.12109375 C206.06187498 67.45632414 206.07860593 68.79153609 206.09698486 70.12672424 C206.1404679 73.62011622 206.16061453 77.11325801 206.17572021 80.60687256 C206.19536072 84.18012165 206.23732255 87.75310323 206.27734375 91.32617188 C206.35243861 98.32151327 206.40285501 105.31684441 206.4375 112.3125 C207.30074387 112.30250725 207.30074387 112.30250725 208.181427 112.29231262 C214.1837199 112.22582275 220.18590775 112.18064279 226.18847656 112.14770508 C228.42712658 112.13264036 230.66574719 112.11218467 232.90429688 112.08618164 C236.12637602 112.04969717 239.34806411 112.03275017 242.5703125 112.01953125 C244.06596237 111.99630547 244.06596237 111.99630547 245.59182739 111.97261047 C252.49332149 111.97094775 256.76730186 113.01488765 262.125 117.625 C267.68887785 124.09112832 267.87372979 129.595465 267.83863831 137.79316711 C267.84543498 138.95575599 267.85223164 140.11834487 267.85923427 141.31616372 C267.87492158 144.53477752 267.87719223 147.75307457 267.87365115 150.97171438 C267.87303813 154.44628765 267.88960484 157.92078633 267.90382385 161.39532471 C267.92872376 168.19947478 267.93698748 175.00354687 267.93866099 181.8077387 C267.9400874 187.33956664 267.94625631 192.87136889 267.95576286 198.40318871 C267.98217726 214.09335748 267.99602182 229.78346474 267.99377144 245.47365592 C267.99365157 246.31919273 267.9935317 247.16472954 267.9934082 248.03588867 C267.99328556 248.88246008 267.99316292 249.72903149 267.99303656 250.60125657 C267.99181729 264.32010361 268.02052413 278.03870359 268.0628233 291.75747917 C268.1059317 305.85011484 268.12663293 319.94263006 268.12404197 334.03533334 C268.12304664 341.94482273 268.13126189 349.8540531 268.16357613 357.76348305 C268.19091399 364.49792277 268.19739884 371.23198606 268.17704786 377.96645728 C268.1672629 381.40070442 268.16703987 384.83422969 268.1931076 388.26840782 C268.21625141 391.99654363 268.2023484 395.72278711 268.17921448 399.45088196 C268.19464517 400.52949393 268.21007586 401.6081059 268.22597414 402.71940309 C268.12527903 410.06905663 266.3284938 414.77643307 261.4375 420.3125 C255.78013915 425.35244694 249.4163484 424.83650072 242.16015625 424.703125 C240.9936705 424.69746521 239.82718475 424.69180542 238.62535095 424.68597412 C234.91647513 424.66366584 231.20858159 424.61347707 227.5 424.5625 C224.97852962 424.54242795 222.45704403 424.52417842 219.93554688 424.5078125 C213.7691987 424.4638191 207.60341955 424.39696137 201.4375 424.3125 C201.44813477 425.4164209 201.45876953 426.5203418 201.46972656 427.65771484 C201.41848132 433.46939128 199.74677597 438.20830647 196.6875 443.125 C191.14486303 448.51367483 186.75628302 449.76006364 179.20211792 449.71295166 C178.16346588 449.68908386 177.12481384 449.66521606 176.0546875 449.640625 C173.81250219 449.63561749 171.5703141 449.63174758 169.328125 449.62890625 C165.82598994 449.60198934 162.32495102 449.5627178 158.82324219 449.50146484 C144.53903856 449.28552676 134.91043843 449.15514274 123.4375 458.3125 C121.60796037 459.39683768 119.75356018 460.44049694 117.875 461.4375 C116.98723877 461.9123584 116.09947754 462.3872168 115.18481445 462.87646484 C94.31715132 473.78409788 72.34479125 481.83411337 49.25 486.5625 C48.51579834 486.71364258 47.78159668 486.86478516 47.02514648 487.02050781 C31.76674356 489.9470031 16.62711092 490.72065745 1.125 490.6875 C-0.31774796 490.68668427 -0.31774796 490.68668427 -1.78964233 490.68585205 C-56.97876793 490.54299495 -112.05735231 472.09701769 -154.5625 436.3125 C-155.1404834 435.83458008 -155.7184668 435.35666016 -156.31396484 434.86425781 C-168.64471528 424.66761109 -179.60953701 413.86267779 -189.5625 401.3125 C-190.28953125 400.45269531 -191.0165625 399.59289062 -191.765625 398.70703125 C-202.48587203 386.0189067 -210.8656026 371.9875427 -218.5625 357.3125 C-218.9426123 356.59707031 -219.32272461 355.88164062 -219.71435547 355.14453125 C-237.44969771 321.35120234 -245.02671612 283.60395532 -244.875 245.6875 C-244.87284485 244.71694672 -244.8706897 243.74639343 -244.86846924 242.74642944 C-244.8174334 228.41819102 -244.47008438 214.39064218 -241.5625 200.3125 C-241.36382324 199.32942871 -241.16514648 198.34635742 -240.96044922 197.33349609 C-236.14285925 174.16936874 -228.33401475 152.89061719 -217.90625 131.6796875 C-217.3793457 130.60710693 -216.85244141 129.53452637 -216.30957031 128.42944336 C-214.5625 125.3125 -214.5625 125.3125 -212.40136719 122.66625977 C-203.67890684 111.57525038 -205.57533651 97.96983255 -205.78277588 84.53601074 C-205.85164582 79.81863202 -205.87808979 75.10147459 -205.88323975 70.38362122 C-205.88804904 67.88257934 -205.91356501 65.381464 -205.96295166 62.88090515 C-205.99845733 56.25637303 -205.94218763 50.57898195 -201.5625 45.3125 C-196.99467261 40.73796229 -192.74568137 38.97315478 -186.30273438 38.69824219 C-183.92011407 38.72467293 -181.53769143 38.77990924 -179.15625 38.859375 C-177.20114264 38.87468055 -175.24603275 38.88992302 -173.29090118 38.90173721 C-168.52144257 38.94010997 -163.75334381 39.04362655 -158.98535156 39.16455078 C-142.78907992 39.55033116 -130.36382452 39.61765444 -117.19158936 29.51818848 C-95.84558907 13.72002094 -63.29891376 6.23089588 -37.5625 2.3125 C-36.39952393 2.12921143 -35.23654785 1.94592285 -34.03833008 1.75708008 C-22.68957194 0.1376772 -11.45082207 -0.04561157 0 0 Z " fill="#FEE0A7" transform="translate(244.5625,10.6875)"/>
<path d="M0 0 C0.66712509 -0.00817749 1.33425018 -0.01635498 2.02159119 -0.02478027 C4.22979857 -0.04959088 6.43794155 -0.06614474 8.64624023 -0.08056641 C9.40328688 -0.08589008 10.16033352 -0.09121376 10.94032097 -0.09669876 C14.95239117 -0.12341968 18.96443046 -0.1427924 22.9765625 -0.15722656 C26.28316135 -0.17052855 29.58913761 -0.19831205 32.89550781 -0.23925781 C36.89964004 -0.28883694 40.90321063 -0.31337889 44.90763664 -0.32045364 C46.42615835 -0.32712716 47.94466945 -0.34224649 49.4630146 -0.36634445 C59.49307211 -0.51636948 67.67885499 -0.1477186 75.30082703 6.97680664 C81.80008368 15.38274285 80.24465378 27.12246103 80.19702148 37.16943359 C80.20828271 39.30750011 80.22216817 41.44555427 80.23855591 43.58358765 C80.2744825 49.18303453 80.27498144 54.78193415 80.2678833 60.38146973 C80.26696815 66.10646252 80.29986089 71.83125269 80.32983398 77.55615234 C80.38359167 88.76844929 80.39989061 99.98045944 80.39233398 111.19287109 C81.84639648 111.65693359 81.84639648 111.65693359 83.32983398 112.13037109 C86.39233398 113.19287109 86.39233398 113.19287109 87.39233398 114.19287109 C90.27486043 114.35310672 93.13611926 114.45241138 96.02124023 114.50927734 C97.31758644 114.54044899 97.31758644 114.54044899 98.64012146 114.57225037 C101.41160843 114.63784223 104.1831932 114.69667527 106.95483398 114.75537109 C108.82919322 114.79854717 110.70354242 114.84216115 112.57788086 114.88623047 C117.18259735 114.99353337 121.78741256 115.09477324 126.39233398 115.19287109 C126.38345154 113.97035645 126.37456909 112.7478418 126.36541748 111.48828125 C126.28424395 99.9533675 126.22432634 88.4185119 126.1850853 76.88337708 C126.16423268 70.95338005 126.135957 65.02361407 126.09057617 59.09375 C126.04703625 53.36844621 126.02317938 47.64336432 126.01282501 41.91790771 C126.00544833 39.73627226 125.99104337 37.55464861 125.96941376 35.37310791 C125.94027209 32.3114623 125.93638256 29.25072739 125.93823242 26.18896484 C125.92385132 25.29200394 125.90947021 24.39504303 125.89465332 23.47090149 C125.94035685 16.45578566 127.71739573 11.18613214 132.42749023 5.91552734 C133.09651367 5.36767578 133.76553711 4.81982422 134.45483398 4.25537109 C135.46223633 3.40652344 135.46223633 3.40652344 136.48999023 2.54052734 C140.2158839 -0.09896612 143.60178754 0.05182818 148.03173828 0.01586914 C149.0372448 0.00601234 149.0372448 0.00601234 150.06306458 -0.00404358 C152.28089518 -0.02374749 154.49865805 -0.03543459 156.71655273 -0.04541016 C157.47609568 -0.04948568 158.23563862 -0.05356121 159.01819801 -0.05776024 C163.04093782 -0.07861179 167.06364364 -0.09291564 171.08642578 -0.10229492 C175.22790064 -0.11333831 179.36883509 -0.1477163 183.51011944 -0.18746662 C186.70588635 -0.21370104 189.90152603 -0.22199292 193.09739113 -0.2255764 C194.62312265 -0.23042728 196.14884906 -0.24199834 197.67447472 -0.2606144 C214.56612814 -0.45386617 214.56612814 -0.45386617 220.89579773 5.64042664 C224.31123451 9.50636593 226.65054165 13.04348359 226.623703 18.24681091 C226.62475037 19.04442841 226.62579773 19.8420459 226.62687683 20.66383362 C226.61362114 21.96295937 226.61362114 21.96295937 226.60009766 23.28833008 C226.59889923 24.20747192 226.59770081 25.12661377 226.59646606 26.0736084 C226.59331743 28.0679418 226.58600815 30.06227199 226.57503319 32.05657768 C226.56018938 35.21306864 226.56177553 38.36913589 226.56867981 41.52565002 C226.58752278 50.49957632 226.59387704 59.47317257 226.546875 68.44702148 C226.51930586 73.93731115 226.52558454 79.42667451 226.55388832 84.91694832 C226.55815232 87.00893518 226.54964896 89.10098837 226.52815819 91.19286919 C226.49933167 94.11896613 226.51356624 97.04194475 226.53759766 99.96801758 C226.51863937 100.83207718 226.49968109 101.69613678 226.48014832 102.58638 C226.55310352 107.10978423 226.55310352 107.10978423 228.85899734 110.84893703 C233.52088944 114.37698548 237.5407334 114.94300665 243.29077148 114.89208984 C244.54236557 114.9028228 244.54236557 114.9028228 245.81924438 114.91377258 C247.57569316 114.92151906 249.33223892 114.91660237 251.08862305 114.8996582 C253.75423957 114.88046538 256.41461008 114.91982025 259.07983398 114.96435547 C260.79598288 114.96464596 262.51213649 114.96150249 264.22827148 114.95458984 C265.01293793 114.96987228 265.79760437 114.98515472 266.60604858 115.00090027 C271.78478482 114.89367115 276.43926113 113.89465299 280.64648438 110.77272034 C285.00929524 104.32577654 283.49067374 95.0073028 283.34936523 87.54443359 C283.34485844 85.487096 283.34490151 83.42974386 283.34928894 81.37240601 C283.35125184 75.95954242 283.30300257 70.54838877 283.24072266 65.13592529 C283.14711151 56.48119293 283.11900572 47.82636451 283.11108971 39.17118454 C283.0995497 36.15514407 283.06018005 33.1404048 283.01753235 30.12466431 C283.00725345 28.26410364 282.99778608 26.40353826 282.98925781 24.54296875 C282.97008804 23.71153854 282.95091827 22.88010834 282.9311676 22.02348328 C282.93885372 15.36794697 284.67838657 9.93807318 289.42749023 5.13427734 C290.09651367 4.67923828 290.76553711 4.22419922 291.45483398 3.75537109 C292.12643555 3.28228516 292.79803711 2.80919922 293.48999023 2.32177734 C297.34401928 0.03468413 300.64177023 0.05150363 305.03173828 0.01586914 C306.0372448 0.00601234 306.0372448 0.00601234 307.06306458 -0.00404358 C309.28089518 -0.02374749 311.49865805 -0.03543459 313.71655273 -0.04541016 C314.47609568 -0.04948568 315.23563862 -0.05356121 316.01819801 -0.05776024 C320.04093782 -0.07861179 324.06364364 -0.09291564 328.08642578 -0.10229492 C332.22790064 -0.11333831 336.36883509 -0.1477163 340.51011944 -0.18746662 C343.70588635 -0.21370104 346.90152603 -0.22199292 350.09739113 -0.2255764 C351.62312265 -0.23042728 353.14884906 -0.24199834 354.67447472 -0.2606144 C369.51196221 -0.43036514 369.51196221 -0.43036514 376.39233398 4.19287109 C378.45092773 6.26318359 378.45092773 6.26318359 379.82983398 8.31787109 C380.30291992 9.00107422 380.77600586 9.68427734 381.26342773 10.38818359 C383.09020724 13.30850239 383.52548479 15.04940514 383.57073975 18.47291565 C383.58486404 19.37138718 383.59898834 20.2698587 383.61354065 21.19555664 C383.62400925 22.18410645 383.63447784 23.17265625 383.64526367 24.19116211 C383.66734138 25.74999367 383.66734138 25.74999367 383.68986511 27.34031677 C383.73692067 30.79242401 383.7762122 34.24455914 383.81420898 37.69677734 C383.83499889 39.46445119 383.83499889 39.46445119 383.8562088 41.26783562 C383.92954553 47.50915595 383.99708697 53.75050769 384.05981445 59.99194336 C384.12559554 66.43250949 384.2102227 72.8726799 384.29938889 79.31295872 C384.36463833 84.26894696 384.41604416 89.22501066 384.46372223 94.18119621 C384.48891967 96.55461543 384.51925763 98.92798599 384.55489349 101.30127144 C384.60354162 104.63048829 384.63257171 107.95934731 384.65698242 111.28881836 C384.67554794 112.26319855 384.69411346 113.23757874 384.71324158 114.2414856 C384.73586861 121.54425111 383.53418547 127.75060977 379.64233398 134.00537109 C374.09969702 139.39404592 369.71111701 140.64043473 362.1569519 140.59332275 C361.11829987 140.56945496 360.07964783 140.54558716 359.00952148 140.52099609 C356.76733617 140.51598858 354.52514809 140.51211867 352.28295898 140.50927734 C348.78082392 140.48236043 345.279785 140.44308889 341.77807617 140.38183594 C327.49387254 140.16589785 317.86527242 140.03551383 306.39233398 149.19287109 C304.56279435 150.27720878 302.70839417 151.32086803 300.82983398 152.31787109 C299.94207275 152.79272949 299.05431152 153.26758789 298.13964844 153.75683594 C277.2719853 164.66446897 255.29962524 172.71448447 232.20483398 177.44287109 C231.47063232 177.59401367 230.73643066 177.74515625 229.97998047 177.90087891 C214.72157755 180.8273742 199.5819449 181.60102854 184.07983398 181.56787109 C182.63708603 181.56705536 182.63708603 181.56705536 181.16519165 181.56622314 C125.97606605 181.42336605 70.89748167 162.97738879 28.39233398 127.19287109 C27.81435059 126.71495117 27.23636719 126.23703125 26.64086914 125.74462891 C14.31265795 115.55008196 3.33548172 104.74789641 -6.60766602 92.19287109 C-8.85769996 89.48908031 -11.11081911 86.78797644 -13.36938477 84.09130859 C-14.47733398 82.65658203 -14.47733398 82.65658203 -15.60766602 81.19287109 C-16.10449387 80.60136765 -16.60132172 80.0098642 -17.11320496 79.4004364 C-22.16706179 72.80993687 -22.46156938 67.25145932 -22.33422852 59.12646484 C-22.33522552 57.8929982 -22.33622253 56.65953156 -22.33724976 55.38868713 C-22.33258792 52.79250614 -22.31324691 50.19631446 -22.2800293 47.6003418 C-22.23276684 43.63882218 -22.23893007 39.67999257 -22.25219727 35.71826172 C-22.24104429 33.1876468 -22.22682488 30.65704316 -22.20922852 28.12646484 C-22.21105133 26.9491832 -22.21287415 25.77190155 -22.2147522 24.5589447 C-22.08198049 16.81768104 -21.24296754 10.8700379 -15.57250977 5.13427734 C-14.90348633 4.67923828 -14.23446289 4.22419922 -13.54516602 3.75537109 C-12.87356445 3.28228516 -12.20196289 2.80919922 -11.51000977 2.32177734 C-7.66957314 0.04275027 -4.37474969 0.0466232 0 0 Z " fill="#6254B1" transform="translate(61.607666015625,319.80712890625)"/>
<path d="M0 0 C0.97305084 0.00215515 1.94610168 0.0043103 2.94863892 0.00653076 C17.29535732 0.05752743 31.34115345 0.40115583 45.4375 3.3125 C46.42057129 3.51117676 47.40364258 3.70985352 48.41650391 3.91455078 C71.58063126 8.73214075 92.85938281 16.54098525 114.0703125 26.96875 C115.6790625 27.75886475 115.6790625 27.75886475 117.3203125 28.56494141 C120.4375 30.3125 120.4375 30.3125 123.0859375 32.47802734 C134.16742791 41.20121873 147.73709823 39.22769839 161.15570068 38.97564697 C165.86154759 38.88729483 170.56632439 38.82317516 175.27301025 38.80502319 C177.76756977 38.79464491 180.26222359 38.75630619 182.75579834 38.68545532 C189.51107246 38.64835025 193.98156661 39.41514763 199.54669189 43.33480835 C216.20050443 60.75387161 206.13372047 94.08572841 206.4375 112.3125 C154.9575 112.3125 103.4775 112.3125 50.4375 112.3125 C50.1075 93.5025 49.7775 74.6925 49.4375 55.3125 C44.99526598 46.42615645 44.99526598 46.42615645 37.17524719 41.19883728 C33.86272362 40.1264179 31.0535386 40.0367687 27.57104492 40.00610352 C26.56510033 39.99361824 26.56510033 39.99361824 25.53883362 39.98088074 C23.33181878 39.95687602 21.12510011 39.94802013 18.91796875 39.94140625 C17.37486182 39.93243201 15.83175574 39.92331002 14.28865051 39.91404724 C11.05658865 39.89758013 7.82463009 39.88986142 4.5925293 39.88696289 C0.46663022 39.88158415 -3.65828746 39.84391668 -7.7839098 39.79821873 C-10.97111996 39.76836065 -14.15809637 39.76123744 -17.34543419 39.76023674 C-18.86559222 39.75605103 -20.38575202 39.74368332 -21.90577126 39.72271919 C-33.6686418 39.52524142 -33.6686418 39.52524142 -43.5625 45.3125 C-58.59040494 61.11106673 -49.4056798 103.21692854 -49.5625 112.3125 C-101.0425 112.3125 -152.5225 112.3125 -205.5625 112.3125 C-205.5625 49.7145172 -205.5625 49.7145172 -199.67443848 43.23468018 C-192.96882273 38.61686017 -187.12157157 38.59358204 -179.15625 38.859375 C-177.20114264 38.87468055 -175.24603275 38.88992302 -173.29090118 38.90173721 C-168.52144257 38.94010997 -163.75334381 39.04362655 -158.98535156 39.16455078 C-142.78907992 39.55033116 -130.36382452 39.61765444 -117.19158936 29.51818848 C-95.84558907 13.72002094 -63.29891376 6.23089588 -37.5625 2.3125 C-36.39952393 2.12921143 -35.23654785 1.94592285 -34.03833008 1.75708008 C-22.68957194 0.1376772 -11.45082207 -0.04561157 0 0 Z " fill="#00C3FA" transform="translate(244.5625,10.6875)"/>
<path d="M0 0 C1.00550652 -0.0098568 1.00550652 -0.0098568 2.03132629 -0.01991272 C4.2491569 -0.03961663 6.46691976 -0.05130373 8.68481445 -0.0612793 C9.4443574 -0.06535482 10.20390034 -0.06943035 10.98645973 -0.07362938 C15.00919954 -0.09448093 19.03190536 -0.10878478 23.0546875 -0.11816406 C27.19616236 -0.12920746 31.33709681 -0.16358544 35.47838116 -0.20333576 C38.67414806 -0.22957018 41.86978775 -0.23786206 45.06565285 -0.24144554 C46.59138437 -0.24629642 48.11711078 -0.25786748 49.64273643 -0.27648354 C64.48022393 -0.44623428 64.48022393 -0.44623428 71.3605957 4.17700195 C73.41918945 6.24731445 73.41918945 6.24731445 74.7980957 8.30200195 C75.27118164 8.98520508 75.74426758 9.6684082 76.23168945 10.37231445 C78.05846896 13.29263325 78.49374651 15.033536 78.53900146 18.45704651 C78.55312576 19.35551804 78.56725006 20.25398956 78.58180237 21.1796875 C78.59227097 22.1682373 78.60273956 23.15678711 78.61352539 24.17529297 C78.6356031 25.73412453 78.6356031 25.73412453 78.65812683 27.32444763 C78.70518238 30.77655487 78.74447392 34.22869 78.7824707 37.6809082 C78.79633064 38.85935743 78.81019058 40.03780666 78.82447052 41.25196648 C78.89780724 47.4932868 78.96534869 53.73463855 79.02807617 59.97607422 C79.09385726 66.41664035 79.17848442 72.85681076 79.2676506 79.29708958 C79.33290005 84.25307782 79.38430588 89.20914152 79.43198395 94.16532707 C79.45718139 96.53874629 79.48751935 98.91211685 79.52315521 101.2854023 C79.57180334 104.61461915 79.60083343 107.94347817 79.62524414 111.27294922 C79.65309242 112.7345195 79.65309242 112.7345195 79.6815033 114.22561646 C79.70413033 121.52838197 78.50244719 127.73474063 74.6105957 133.98950195 C69.06795874 139.37817678 64.67937872 140.62456559 57.12521362 140.57745361 C56.08656158 140.55358582 55.04790955 140.52971802 53.9777832 140.50512695 C51.73559789 140.50011944 49.49340981 140.49624953 47.2512207 140.4934082 C43.74908564 140.46649129 40.24804672 140.42721975 36.74633789 140.3659668 C22.47108379 140.150164 12.82611557 140.01564946 1.3605957 149.17700195 C-0.41180972 150.209772 -2.20836661 151.20257646 -4.0300293 152.14575195 C-4.84084961 152.57114258 -5.65166992 152.9965332 -6.48706055 153.43481445 C-7.27983398 153.84473633 -8.07260742 154.2546582 -8.8894043 154.67700195 C-9.72858398 155.11786133 -10.56776367 155.5587207 -11.43237305 156.01293945 C-17.49518846 159.17700195 -17.49518846 159.17700195 -18.6394043 159.17700195 C-18.6394043 152.90700195 -18.6394043 146.63700195 -18.6394043 140.17700195 C-20.6194043 140.17700195 -22.5994043 140.17700195 -24.6394043 140.17700195 C-28.8737555 138.5010591 -31.96965509 136.09790711 -34.6394043 132.42700195 C-36.3438427 126.88757716 -36.61034713 122.32996214 -34.2019043 116.98950195 C-31.6394043 114.17700195 -31.6394043 114.17700195 -29.45405579 113.31576538 C-26.32926322 111.99077546 -24.75744418 110.8623862 -22.6394043 108.17700195 C-20.84659371 101.57119222 -21.5541224 94.30181447 -21.68237305 87.52856445 C-21.68687985 85.47122686 -21.68683677 83.41387472 -21.68244934 81.35653687 C-21.68048644 75.94367328 -21.72873572 70.53251963 -21.79101562 65.12005615 C-21.88462677 56.46532379 -21.91273256 47.81049536 -21.92064857 39.1553154 C-21.93218858 36.13927493 -21.97155823 33.12453566 -22.01420593 30.10879517 C-22.02448483 28.2482345 -22.0339522 26.38766912 -22.04248047 24.52709961 C-22.06165024 23.6956694 -22.08082001 22.8642392 -22.10057068 22.00761414 C-22.09288456 15.35207783 -20.35335171 9.92220404 -15.60424805 5.1184082 C-14.93522461 4.66336914 -14.26620117 4.20833008 -13.5769043 3.73950195 C-12.90530273 3.26641602 -12.23370117 2.79333008 -11.54174805 2.3059082 C-7.687719 0.01881499 -4.38996805 0.03563449 0 0 Z " fill="#6354B1" transform="translate(366.639404296875,319.822998046875)"/>
<path d="M0 0 C2.67795871 -0.03784027 5.29631591 -0.00628921 7.96728516 0.08747864 C9.43642346 0.09115038 10.90558558 0.08907785 12.37471008 0.08172607 C16.34523244 0.07800941 20.3106049 0.15417902 24.27993393 0.24518752 C28.43431908 0.3267011 32.58883506 0.33410953 36.74389648 0.34951782 C44.6035671 0.38985464 52.46087468 0.49642936 60.31950665 0.62706119 C69.26961014 0.77259227 78.2198292 0.84389902 87.17082214 0.90910184 C105.57566827 1.044827 123.97831772 1.27334162 142.38134766 1.56330872 C142.38134766 1.89330872 142.38134766 2.22330872 142.38134766 2.56330872 C141.70257568 2.65829651 141.02380371 2.7532843 140.32446289 2.85115051 C113.932072 6.61510977 92.16477969 14.08977912 70.38134766 29.56330872 C69.68912109 28.98323059 69.68912109 28.98323059 68.98291016 28.39143372 C60.87881797 21.92097276 53.1992602 18.69203426 42.69775391 19.05158997 C34.85455253 20.26178947 27.34106264 24.14576424 22.56103516 30.59455872 C17.63253861 38.8195993 16.07634718 46.46736865 17.81884766 55.94221497 C20.04746465 63.95130728 25.55413371 69.86416541 31.38134766 75.56330872 C30.92244141 76.4953009 30.46353516 77.42729309 29.99072266 78.38752747 C26.95347623 84.66765426 24.21691466 90.6589349 22.44384766 97.43830872 C20.83801563 103.11780986 18.38143909 106.34597615 14.27978516 110.50862122 C7.8148339 117.50566722 5.90016438 126.80563807 6.06884766 136.05158997 C6.9978208 146.49092568 10.92627248 156.10823354 18.38134766 163.56330872 C18.80322266 165.31330872 18.80322266 165.31330872 19.13134766 167.56330872 C20.36290352 174.36666165 22.70115863 180.77320886 24.94384766 187.29377747 C26.22083977 191.019738 27.3352975 194.76634781 28.38134766 198.56330872 C26.57150391 198.60198059 26.57150391 198.60198059 24.72509766 198.64143372 C23.11048027 198.69775758 21.49589833 198.75510391 19.88134766 198.81330872 C19.08986328 198.8274884 18.29837891 198.84166809 17.48291016 198.85627747 C10.90519135 199.12585611 5.32806622 200.65412797 0.54150391 205.37971497 C0.17927734 205.9559259 -0.18294922 206.53213684 -0.55615234 207.12580872 C-1.1265625 207.99399231 -1.1265625 207.99399231 -1.70849609 208.87971497 C-3.56622558 212.31611586 -3.7637265 215.21445132 -3.82397461 219.04450989 C-3.84391983 220.1654454 -3.86386505 221.28638092 -3.88441467 222.44128418 C-3.90948341 224.25545586 -3.90948341 224.25545586 -3.93505859 226.10627747 C-3.95583969 227.34501114 -3.97662079 228.58374481 -3.99803162 229.86001587 C-4.05237032 233.14956128 -4.10261185 236.43913598 -4.15087891 239.72877502 C-4.2011588 243.08708686 -4.25681096 246.44530918 -4.31201172 249.80354309 C-4.41918282 256.3900603 -4.5209537 262.97664456 -4.61865234 269.56330872 C-6.93460477 266.74084626 -9.09240677 263.99077009 -10.88037109 260.80549622 C-11.27224609 260.10843567 -11.66412109 259.41137512 -12.06787109 258.69319153 C-14.28013693 254.66470429 -16.46813089 250.6251354 -18.61865234 246.56330872 C-19.00746582 245.83337708 -19.3962793 245.10344543 -19.796875 244.35139465 C-37.51804221 210.57403288 -45.08277953 172.83253763 -44.93115234 134.93830872 C-44.92899719 133.96775543 -44.92684204 132.99720215 -44.92462158 131.99723816 C-44.87358574 117.66899974 -44.52623673 103.6414509 -41.61865234 89.56330872 C-41.41997559 88.58023743 -41.22129883 87.59716614 -41.01660156 86.58430481 C-35.99896679 62.45831409 -27.92706125 39.7769871 -16.39811707 17.97191143 C-15.22613478 15.7269543 -14.10959415 13.45203726 -13.05490112 11.14964771 C-9.84578473 4.87057308 -7.54399543 0.83536532 0 0 Z " fill="#FECC6B" transform="translate(44.61865234375,121.43669128417969)"/>
<path d="M0 0 C0.66712509 -0.00817749 1.33425018 -0.01635498 2.02159119 -0.02478027 C4.22979857 -0.04959088 6.43794155 -0.06614474 8.64624023 -0.08056641 C9.40328688 -0.08589008 10.16033352 -0.09121376 10.94032097 -0.09669876 C14.95239117 -0.12341968 18.96443046 -0.1427924 22.9765625 -0.15722656 C26.28316135 -0.17052855 29.58913761 -0.19831205 32.89550781 -0.23925781 C36.89964004 -0.28883694 40.90321063 -0.31337889 44.90763664 -0.32045364 C46.42615835 -0.32712716 47.94466945 -0.34224649 49.4630146 -0.36634445 C59.49307211 -0.51636948 67.67885499 -0.1477186 75.30082703 6.97680664 C81.80008368 15.38274285 80.24465378 27.12246103 80.19702148 37.16943359 C80.20828271 39.30750011 80.22216817 41.44555427 80.23855591 43.58358765 C80.2744825 49.18303453 80.27498144 54.78193415 80.2678833 60.38146973 C80.26696815 66.10646252 80.29986089 71.83125269 80.32983398 77.55615234 C80.38359167 88.76844929 80.39989061 99.98045944 80.39233398 111.19287109 C81.34841553 111.49322266 82.30449707 111.79357422 83.28955078 112.10302734 C87.94744606 113.73909977 90.1788022 116.76580753 92.39233398 121.19287109 C93.05550479 126.53085248 92.75773191 131.0991352 89.81420898 135.68505859 C87.15246824 138.50767378 83.93973806 139.71478606 80.39233398 141.19287109 C80.06233398 146.80287109 79.73233398 152.41287109 79.39233398 158.19287109 C74.33314695 156.50647542 70.10594517 154.66944372 65.45483398 152.19287109 C64.34156738 151.60010376 64.34156738 151.60010376 63.20581055 150.99536133 C36.53346446 136.53222773 12.19627504 115.93625319 -6.60766602 92.19287109 C-8.85769996 89.48908031 -11.11081911 86.78797644 -13.36938477 84.09130859 C-14.47733398 82.65658203 -14.47733398 82.65658203 -15.60766602 81.19287109 C-16.10449387 80.60136765 -16.60132172 80.0098642 -17.11320496 79.4004364 C-22.16706179 72.80993687 -22.46156938 67.25145932 -22.33422852 59.12646484 C-22.33522552 57.8929982 -22.33622253 56.65953156 -22.33724976 55.38868713 C-22.33258792 52.79250614 -22.31324691 50.19631446 -22.2800293 47.6003418 C-22.23276684 43.63882218 -22.23893007 39.67999257 -22.25219727 35.71826172 C-22.24104429 33.1876468 -22.22682488 30.65704316 -22.20922852 28.12646484 C-22.21105133 26.9491832 -22.21287415 25.77190155 -22.2147522 24.5589447 C-22.08198049 16.81768104 -21.24296754 10.8700379 -15.57250977 5.13427734 C-14.90348633 4.67923828 -14.23446289 4.22419922 -13.54516602 3.75537109 C-12.87356445 3.28228516 -12.20196289 2.80919922 -11.51000977 2.32177734 C-7.66957314 0.04275027 -4.37474969 0.0466232 0 0 Z " fill="#6354B1" transform="translate(61.607666015625,319.80712890625)"/>
<path d="M0 0 C0.68823853 -0.00978378 1.37647705 -0.01956757 2.08557129 -0.02964783 C4.36350589 -0.0595602 6.64138171 -0.08098039 8.91943359 -0.09985352 C9.69979351 -0.10642534 10.48015343 -0.11299717 11.28416061 -0.11976814 C15.41826312 -0.15235011 19.55234005 -0.17679883 23.68652344 -0.19628906 C27.09706469 -0.21406752 30.5067737 -0.24883188 33.91699219 -0.29882812 C38.04433953 -0.35925934 42.17091833 -0.38979615 46.29868698 -0.39946175 C47.8655123 -0.40798191 49.43231899 -0.42671478 50.99888992 -0.45620537 C66.18381913 -0.72657187 66.18381913 -0.72657187 72.50662231 4.48373413 C79.18934529 11.32005512 78.79399073 17.79756662 78.80224609 27.01733398 C78.81787598 28.18977661 78.83350586 29.36221924 78.84960938 30.57019043 C78.90201086 34.92866956 78.92044172 39.28750382 78.94287109 43.64624023 C79.02537109 53.40186523 79.10787109 63.15749023 79.19287109 73.20874023 C45.86287109 73.20874023 12.53287109 73.20874023 -21.80712891 73.20874023 C-21.88962891 63.80374023 -21.97212891 54.39874023 -22.05712891 44.70874023 C-22.09354492 41.75356445 -22.12996094 38.79838867 -22.16748047 35.75366211 C-22.1791698 33.39494553 -22.18936104 31.03622085 -22.19775391 28.67749023 C-22.21821777 27.46609375 -22.23868164 26.25469727 -22.25976562 25.0065918 C-22.26303974 17.03740293 -21.61811463 11.06361447 -15.77197266 5.15014648 C-15.10294922 4.69510742 -14.43392578 4.24006836 -13.74462891 3.77124023 C-13.07302734 3.2981543 -12.40142578 2.82506836 -11.70947266 2.33764648 C-7.81478584 0.02642577 -4.43789522 0.05658136 0 0 Z " fill="#53469D" transform="translate(371.80712890625,49.791259765625)"/>
<path d="M0 0 C1.58222959 0.00103939 3.16446178 -0.00000446 4.74668884 -0.00302124 C8.04937724 -0.00284264 11.35108067 0.01784068 14.65356445 0.05419922 C18.86902813 0.09961109 23.08305824 0.10064705 27.29869938 0.08716393 C30.56148333 0.08045506 33.82394533 0.09379819 37.08666801 0.11342239 C38.64025624 0.12107366 40.19388043 0.12344489 41.74748421 0.1202507 C56.78463563 0.11507949 56.78463563 0.11507949 63.65234375 4.7265625 C65.7109375 6.796875 65.7109375 6.796875 67.08984375 8.8515625 C67.56292969 9.53476562 68.03601563 10.21796875 68.5234375 10.921875 C70.63972153 14.30500034 70.7743769 16.37098054 70.76586914 20.36962891 C70.76574829 21.56724854 70.76562744 22.76486816 70.76550293 23.9987793 C70.76038696 25.26246338 70.755271 26.52614746 70.75 27.828125 C70.74899292 28.98594482 70.74798584 30.14376465 70.74694824 31.33666992 C70.7417036 35.67497748 70.72774242 40.01327095 70.71484375 44.3515625 C70.69421875 54.0453125 70.67359375 63.7390625 70.65234375 73.7265625 C37.65234375 73.7265625 4.65234375 73.7265625 -29.34765625 73.7265625 C-29.43015625 64.1565625 -29.51265625 54.5865625 -29.59765625 44.7265625 C-29.63407227 41.71917969 -29.67048828 38.71179688 -29.70800781 35.61328125 C-29.71969687 33.21354892 -29.72988818 30.81380862 -29.73828125 28.4140625 C-29.75874512 27.18107422 -29.77920898 25.94808594 -29.80029297 24.67773438 C-29.80355779 16.59404915 -29.32133001 10.92292757 -23.65437317 4.93838501 C-16.69532376 -0.76024496 -8.51886451 -0.11109379 0 0 Z " fill="#53469D" transform="translate(68.34765625,49.2734375)"/>
<path d="M0 0 C0.6704837 -0.00671722 1.34096741 -0.01343445 2.0317688 -0.02035522 C4.24423682 -0.03932222 6.45640108 -0.04325917 8.66894531 -0.04541016 C10.21348188 -0.05184066 11.75801724 -0.05856921 13.30255127 -0.06558228 C16.54059673 -0.07755297 19.77853554 -0.08126349 23.01660156 -0.08007812 C27.15024164 -0.07987533 31.28319118 -0.10713712 35.41666794 -0.14162254 C38.60816538 -0.1639505 41.79949845 -0.16791382 44.99106598 -0.16685867 C46.51399355 -0.16920732 48.03692616 -0.17798914 49.55977631 -0.19352341 C58.74155539 -0.27838997 66.00023838 -0.23714422 73.27050781 6.03662109 C73.93953125 6.87386719 73.93953125 6.87386719 74.62207031 7.72802734 C75.31429687 8.56140625 75.31429687 8.56140625 76.02050781 9.41162109 C78.72919632 13.56091781 79.49592839 17.17303031 79.47412109 22.09057617 C79.47387939 23.24722778 79.4736377 24.40387939 79.47338867 25.59558105 C79.46315674 26.80073364 79.4529248 28.00588623 79.44238281 29.24755859 C79.44036865 30.36304077 79.43835449 31.47852295 79.4362793 32.62780762 C79.425832 36.78625615 79.39790942 40.94464597 79.37207031 45.10302734 C79.33082031 54.40490234 79.28957031 63.70677734 79.24707031 73.29052734 C46.24707031 73.29052734 13.24707031 73.29052734 -20.75292969 73.29052734 C-20.81480469 63.86490234 -20.87667969 54.43927734 -20.94042969 44.72802734 C-20.9677417 41.76374756 -20.99505371 38.79946777 -21.02319336 35.74536133 C-21.03195888 33.38411872 -21.03960266 31.02287157 -21.04589844 28.66162109 C-21.06124634 27.44510864 -21.07659424 26.22859619 -21.09240723 24.97521973 C-21.09462514 17.77660896 -21.00183124 12.00678828 -16.06933594 6.36474609 C-15.49054688 5.90712891 -14.91175781 5.44951172 -14.31542969 4.97802734 C-13.73921875 4.50751953 -13.16300781 4.03701172 -12.56933594 3.55224609 C-8.28836162 0.57858006 -5.26210712 0.03313934 0 0 Z " fill="#53469D" transform="translate(215.7529296875,49.70947265625)"/>
<path d="M0 0 C1.11342522 -0.0099852 1.11342522 -0.0099852 2.24934387 -0.02017212 C3.81504864 -0.03025483 5.380796 -0.0349905 6.9465332 -0.03466797 C9.30820077 -0.0390186 11.66796198 -0.07531846 14.02929688 -0.11328125 C27.61202726 -0.21504736 38.99083906 2.55360159 49.1171875 12.21875 C57.0918065 20.85368777 60.79112427 31.05780894 60.45703125 42.85546875 C58.9412158 54.88725388 53.75545263 65.03907585 44.4296875 72.765625 C34.19322012 79.79991541 24.52471903 80.5954719 12.54833984 80.68603516 C10.95997356 80.7024899 9.37167805 80.72963943 7.78369141 80.76806641 C-7.13156572 81.1262319 -18.27763107 78.16301831 -29.5 67.8203125 C-37.74397611 59.22153235 -40.30366593 47.36172568 -40.19921875 35.8203125 C-39.15780264 25.26414016 -33.174416 16.11540749 -25.48046875 9.0859375 C-18.03300519 3.03590088 -9.57146957 0.0304278 0 0 Z " fill="#8479C1" transform="translate(89.85546875,215.6640625)"/>
<path d="M0 0 C3.49017419 0.07236406 4.70130419 0.34618003 7.8125 2.1875 C10.27625642 6.24077669 10.0760816 9.0133 9.73046875 13.65625 C9.75240615 16.70993608 10.58460924 18.57806218 11.75 21.375 C12.8487594 29.8073396 11.22405928 36.48276309 6.32421875 43.3828125 C1.62451238 49.18761778 -2.99967443 51.5596205 -10.25 53.375 C-13.58152771 53.63569641 -13.58152771 53.63569641 -17.06811523 53.6496582 C-18.38315536 53.65919022 -19.6981955 53.66872223 -21.05308533 53.67854309 C-22.47158841 53.67828163 -23.8900915 53.67734442 -25.30859375 53.67578125 C-26.78158182 53.67967437 -28.25456878 53.6840103 -29.72755432 53.68876648 C-32.80644377 53.69620351 -35.8852185 53.69595562 -38.96411133 53.69067383 C-42.89242022 53.68488016 -46.82025745 53.70181958 -50.74848843 53.7250185 C-53.78813888 53.73981222 -56.82767717 53.74061996 -59.86735725 53.73750877 C-61.31491086 53.73801908 -62.76247122 53.74320174 -64.20998955 53.75332069 C-75.80287666 53.8244308 -83.60826683 52.86201602 -92.26171875 44.671875 C-97.38569872 38.75262113 -99.02970674 31.83572169 -98.69140625 24.109375 C-97.45023466 16.42070145 -93.42970322 10.91443307 -87.703125 5.84765625 C-78.8923502 0.55838539 -69.78942277 0.99326214 -59.875 1.1171875 C-58.29842812 1.12533587 -56.7218479 1.13199468 -55.14526367 1.13723755 C-51.02248043 1.15425123 -46.90003349 1.18846168 -42.77740479 1.22729492 C-36.15150506 1.28681905 -29.52542923 1.32028329 -22.89935303 1.35306168 C-20.58533007 1.3670495 -18.27147131 1.38862262 -15.95751953 1.41134644 C-14.55110789 1.42136199 -13.14469517 1.43122756 -11.73828125 1.44091797 C-9.89036987 1.45782181 -9.89036987 1.45782181 -8.00512695 1.47506714 C-4.96415937 1.36461817 -3.21441983 0.13836907 0 0 Z " fill="#FEA901" transform="translate(299.25,228.625)"/>
<path d="M0 0 C0.692005 -0.00671722 1.38401001 -0.01343445 2.09698486 -0.02035522 C4.3719412 -0.03926107 6.64660096 -0.04325657 8.92163086 -0.04541016 C10.51859148 -0.05184662 12.11555094 -0.0585756 13.71250916 -0.06558228 C17.05885546 -0.07753901 20.4050987 -0.0812651 23.75146484 -0.08007812 C28.00561626 -0.07987581 32.25909309 -0.10709409 36.51308537 -0.14162254 C39.81372509 -0.16404961 43.11420703 -0.16791077 46.41491508 -0.16685867 C47.98115789 -0.16919417 49.54740645 -0.17789971 51.11357307 -0.19352341 C65.62829131 -0.32468444 78.92720324 1.76519176 89.78881836 12.17333984 C97.7798991 20.7895157 101.47032377 31.02101023 101.13647461 42.81005859 C99.60031084 55.00335855 94.36083677 65.02726937 84.89038086 72.79052734 C74.11643511 80.61131216 62.22455229 80.6240135 49.39819336 80.66162109 C47.80312526 80.6706077 46.20805792 80.67972985 44.61299133 80.6889801 C41.28038498 80.70539795 37.94787823 80.71315708 34.61523438 80.71606445 C30.37551357 80.72144326 26.13674766 80.75913298 21.89729595 80.80480862 C18.6052775 80.83476257 15.31348411 80.84179194 12.02134132 80.8427906 C10.45983313 80.846956 8.89832192 80.85923958 7.3369503 80.88030815 C-7.06336983 81.05918466 -18.09155265 77.66291552 -28.82055664 67.77490234 C-36.29429204 59.97951251 -39.49945082 48.8783035 -39.56323242 38.33520508 C-39.33224105 27.46693126 -34.02753084 18.22483712 -26.51977539 10.61083984 C-19.04576961 3.78231638 -10.13616253 0.06210225 0 0 Z M68.82397461 14.29052734 C66.66252776 14.36903182 64.4984749 14.37622944 62.33569336 14.35644531 C61.65750046 14.35177246 60.97930756 14.34709961 60.28056335 14.34228516 C58.8018334 14.3317546 57.32311754 14.31908293 55.84442139 14.30456161 C53.4979223 14.28258793 51.15150357 14.26847466 48.80493164 14.25686646 C42.13066566 14.22324387 35.45653049 14.18200715 28.7824707 14.11914062 C24.70293517 14.08128078 20.62353918 14.05840098 16.54385376 14.04483414 C14.99382662 14.03682296 13.44381715 14.02327575 11.89389038 14.00390244 C-0.06670721 13.85716193 -9.22031727 14.41946746 -18.22290039 23.06005859 C-23.31016186 28.86971119 -24.90008928 34.86652003 -24.54711914 42.52490234 C-23.42211065 50.90917616 -20.10062731 56.07905961 -13.78540039 61.59912109 C-5.5465252 66.93958959 2.39771345 66.73553121 11.94506836 66.68896484 C13.41423181 66.69098982 14.88339428 66.69390477 16.35255432 66.69766235 C19.42133214 66.70206721 22.48984671 66.6957154 25.55859375 66.68164062 C29.46999083 66.66456473 33.38076946 66.67439108 37.29214382 66.69235802 C40.32327332 66.70325889 43.35425904 66.69972058 46.38539314 66.69197464 C47.82652931 66.68998921 49.26767902 66.69237292 50.70879936 66.6994133 C61.91626398 66.7421562 70.70278428 66.13941807 79.09741211 58.26318359 C85.27101787 51.2096295 86.37384371 43.36976139 85.82397461 34.29052734 C85.17864383 31.95120328 84.5133727 29.61724588 83.82397461 27.29052734 C83.85343497 25.74787559 83.9177524 24.20561127 84.01147461 22.66552734 C84.07163904 19.14590822 83.87582232 18.37248018 81.88647461 15.22802734 C78.63736832 13.17247031 72.08013727 11.03436468 68.82397461 14.29052734 Z " fill="#6F62B6" transform="translate(225.176025390625,215.70947265625)"/>
<path d="M0 0 C0.99245476 0.00212242 0.99245476 0.00212242 2.00495911 0.00428772 C4.11402953 0.00987629 6.22299302 0.0224266 8.33203125 0.03515625 C9.76367034 0.04017273 11.1953111 0.04473538 12.62695312 0.04882812 C16.13284713 0.05984195 19.63867875 0.0770987 23.14453125 0.09765625 C21.1875111 1.40233635 19.20870668 2.67507992 17.20703125 3.91015625 C12.60419228 7.19789837 9.78860872 10.68794968 8.14453125 16.09765625 C7.84613161 19.54898309 7.86111401 22.98990134 7.86987305 26.45239258 C7.86476212 27.49365799 7.85965118 28.5349234 7.85438538 29.60774231 C7.84049063 33.04844926 7.84144633 36.48895583 7.84375 39.9296875 C7.83986254 42.32476374 7.83552777 44.71983929 7.83076477 47.11491394 C7.82330246 52.13595819 7.82359361 57.15693213 7.82885742 62.17797852 C7.83464697 68.60386841 7.81773327 75.0294696 7.79451275 81.45531178 C7.7797598 86.40278296 7.77890594 91.3501849 7.78202248 96.29767418 C7.78150989 98.66628274 7.77628388 101.03489524 7.76621056 103.40348244 C7.75383584 106.72075609 7.76064492 110.03747121 7.7722168 113.35473633 C7.76457306 114.32799866 7.75692932 115.30126099 7.74905396 116.30401611 C7.7994455 122.85951169 8.42486302 128.96004346 12.8984375 134.12109375 C13.49527344 134.56710937 14.09210938 135.013125 14.70703125 135.47265625 C15.30644531 135.93414062 15.90585938 136.395625 16.5234375 136.87109375 C17.05839844 137.27585937 17.59335938 137.680625 18.14453125 138.09765625 C19.13453125 139.08765625 19.13453125 139.08765625 20.14453125 140.09765625 C16.12450495 140.19706721 12.10496162 140.26937688 8.08398438 140.31738281 C6.71829757 140.33740944 5.35269556 140.36463957 3.98730469 140.39941406 C2.01666023 140.44832057 0.04537142 140.46856972 -1.92578125 140.48828125 C-3.10930176 140.50922852 -4.29282227 140.53017578 -5.51220703 140.55175781 C-10.59632307 139.86120313 -14.40303648 137.11932765 -17.60546875 133.16015625 C-22.09772912 127.04569075 -22.15275078 122.01924214 -22.14599609 114.65112305 C-22.15271332 113.60010406 -22.15943054 112.54908508 -22.16635132 111.46621704 C-22.18534289 107.99305488 -22.1892562 104.52008585 -22.19140625 101.046875 C-22.1978336 98.62937847 -22.20456191 96.21188271 -22.21157837 93.79438782 C-22.22355421 88.7262695 -22.22725889 83.65821936 -22.22607422 78.59008789 C-22.22587107 72.10359526 -22.2531681 65.61754095 -22.28761864 59.13115215 C-22.3098833 54.13735455 -22.31391187 49.14366248 -22.31285477 44.14982033 C-22.31521156 41.75887352 -22.32403946 39.36792384 -22.3395195 36.97702599 C-22.35916883 33.62849842 -22.35334464 30.28091665 -22.34130859 26.93237305 C-22.35254761 25.94975998 -22.36378662 24.96714691 -22.37536621 23.95475769 C-22.30903642 16.67329128 -20.72107556 11.30427577 -15.8203125 5.8203125 C-15.15128906 5.27246094 -14.48226562 4.72460938 -13.79296875 4.16015625 C-13.12136719 3.59425781 -12.44976562 3.02835937 -11.7578125 2.4453125 C-7.95613698 -0.24786625 -4.51592814 -0.01905455 0 0 Z " fill="#55479D" transform="translate(209.85546875,319.90234375)"/>
<path d="M0 0 C1.20849609 0.00322266 2.41699219 0.00644531 3.66210938 0.00976562 C5.55606445 0.02233398 5.55606445 0.02233398 7.48828125 0.03515625 C9.39963867 0.04192383 9.39963867 0.04192383 11.34960938 0.04882812 C14.50004689 0.06062752 17.65039074 0.07709028 20.80078125 0.09765625 C18.69874183 1.49901586 16.54691641 2.82717761 14.36328125 4.09765625 C9.70482218 7.54864989 8.13617074 11.53156873 6.80078125 17.09765625 C6.1811464 22.67359369 6.25896543 28.29544886 6.28436089 33.89841461 C6.29709231 36.72401059 6.28561101 39.54864431 6.26832581 42.37420654 C6.24174418 47.34983097 6.236026 52.32521557 6.23742676 57.30090332 C6.23966386 65.27744756 6.22548911 73.25369684 6.1818409 81.23012543 C6.17202728 84.00768207 6.18070341 86.78477015 6.1905365 89.56231689 C6.18439181 91.26843572 6.17747992 92.97455201 6.16967773 94.68066406 C6.177397 95.44754547 6.18511627 96.21442688 6.19306946 97.00454712 C6.13899902 102.74495781 4.97017274 106.96263135 0.828125 111.0390625 C0.13847656 111.57402344 -0.55117188 112.10898437 -1.26171875 112.66015625 C-5.88553517 116.54585886 -6.98809357 118.91602938 -7.57421875 124.97265625 C-7.43221444 129.6676738 -6.00180388 132.336292 -3.19921875 136.09765625 C-0.11541089 138.05948684 -0.11541089 138.05948684 2.80078125 139.09765625 C2.80078125 139.42765625 2.80078125 139.75765625 2.80078125 140.09765625 C-1.53219255 140.24385813 -5.86452513 140.33203355 -10.19921875 140.41015625 C-12.03033203 140.47299805 -12.03033203 140.47299805 -13.8984375 140.53710938 C-21.24080792 140.6363306 -26.6581585 140.25050714 -32.19921875 135.09765625 C-35.58617205 130.44059547 -36.06479677 125.68365394 -35.19921875 120.09765625 C-33.68248303 116.73445965 -32.53634188 114.6246108 -29.01387024 113.23641968 C-25.88907767 111.91142976 -24.31725863 110.7830405 -22.19921875 108.09765625 C-20.40640817 101.49184651 -21.11393685 94.22246876 -21.2421875 87.44921875 C-21.2466943 85.39188116 -21.24665122 83.33452901 -21.24226379 81.27719116 C-21.24030089 75.86432758 -21.28855017 70.45317393 -21.35083008 65.04071045 C-21.44444122 56.38597809 -21.47254701 47.73114966 -21.48046303 39.0759697 C-21.49200304 36.05992922 -21.53137268 33.04518996 -21.57402039 30.02944946 C-21.58429929 28.1688888 -21.59376666 26.30832342 -21.60229492 24.44775391 C-21.62146469 23.6163237 -21.64063446 22.78489349 -21.66038513 21.92826843 C-21.65269902 15.27273212 -19.91316616 9.84285834 -15.1640625 5.0390625 C-14.49503906 4.58402344 -13.82601563 4.12898438 -13.13671875 3.66015625 C-12.46511719 3.18707031 -11.79351562 2.71398437 -11.1015625 2.2265625 C-7.35975971 0.00606762 -4.25676857 -0.01998483 0 0 Z " fill="#54469D" transform="translate(366.19921875,319.90234375)"/>
<path d="M0 0 C7.16252508 4.5999043 11.35117086 10.95683997 14 19 C15.43443955 28.35695951 13.74011313 36.36502849 8.52734375 44.21875 C3.62622295 50.42915366 -2.59646998 53.53215666 -10 56 C-19.68068559 57.10039448 -26.94213509 55.52944395 -35 50 C-41.60125778 44.42348621 -45.21822552 37.40444094 -46.44921875 28.89453125 C-46.9537259 19.51069818 -44.28367347 11.97516793 -38.13671875 4.8359375 C-27.38784797 -5.28824941 -13.01717952 -7.47985444 0 0 Z " fill="#857AC0" transform="translate(417,144)"/>
<path d="M0 0 C7.16252508 4.5999043 11.35117086 10.95683997 14 19 C15.43443955 28.35695951 13.74011313 36.36502849 8.52734375 44.21875 C3.62622295 50.42915366 -2.59646998 53.53215666 -10 56 C-19.68068559 57.10039448 -26.94213509 55.52944395 -35 50 C-41.60125778 44.42348621 -45.21822552 37.40444094 -46.44921875 28.89453125 C-46.9537259 19.51069818 -44.28367347 11.97516793 -38.13671875 4.8359375 C-27.38784797 -5.28824941 -13.01717952 -7.47985444 0 0 Z " fill="#857AC0" transform="translate(272,144)"/>
<path d="M0 0 C8.31558715 4.77825334 13.26283386 11.15504549 16.27734375 20.30859375 C17.7117833 29.66555326 16.01745688 37.67362224 10.8046875 45.52734375 C4.90606909 53.00171602 -2.89876179 56.45695447 -12.1953125 57.6171875 C-21.03024122 58.05693508 -28.3036411 55.25051169 -34.9296875 49.33984375 C-41.82871282 41.78722656 -44.13176307 34.30864103 -43.99609375 24.21484375 C-43.20867091 15.84566385 -39.10223525 8.69784099 -32.72265625 3.30859375 C-22.50440377 -3.7033449 -11.39940697 -5.33943049 0 0 Z " fill="#857ABF" transform="translate(104.72265625,142.69140625)"/>
<path d="M0 0 C3.37035988 2.07441376 5.58160108 3.57806921 7.92578125 6.80078125 C8.59944679 10.25883049 8.533586 13.60227663 8.42578125 17.11328125 C8.42964844 18.48129883 8.42964844 18.48129883 8.43359375 19.87695312 C8.32633969 27.35792371 7.01586035 34.68867492 1.63671875 40.34765625 C-8.73114336 49.15323777 -20.30236681 49.16186948 -33.37011719 48.14648438 C-41.10917275 47.15709266 -46.83855444 43.79746697 -51.69921875 37.67578125 C-52.98828125 35.73046875 -52.98828125 35.73046875 -54.07421875 33.80078125 C-54.44289063 33.218125 -54.8115625 32.63546875 -55.19140625 32.03515625 C-57.66036033 25.78629902 -57.16228448 17.04429277 -55.046875 10.73828125 C-44.40267378 -8.60408994 -17.8305119 -7.95894822 0 0 Z " fill="#FD5758" transform="translate(124.07421875,234.19921875)"/>
<path d="M0 0 C11.88 0 23.76 0 36 0 C35.34 1.65 34.68 3.3 34 5 C33.25418206 10.56941969 33.64299336 15.34350692 37 20 C41.25498263 23.35241056 44.52116234 24.08686039 50 25 C50 31.27 50 37.54 50 44 C42.0937056 48.21317309 34.06267275 51.27020753 25.5625 54.0625 C24.9064679 54.28033142 24.25043579 54.49816284 23.57452393 54.72259521 C-1.44192035 63 -1.44192035 63 -13 63 C-13 50.79 -13 38.58 -13 26 C-9.7 25.01 -6.4 24.02 -3 23 C1.0200789 19.06196353 2.83278128 16.25745273 3.25 10.625 C2.98448127 6.77497846 2.14160243 5.12317021 0 2 C0 1.34 0 0.68 0 0 Z " fill="#00C0FA" transform="translate(298,435)"/>
<path d="M0 0 C0.99245476 0.00212242 0.99245476 0.00212242 2.00495911 0.00428772 C4.11402953 0.00987629 6.22299302 0.0224266 8.33203125 0.03515625 C9.76367034 0.04017273 11.1953111 0.04473538 12.62695312 0.04882812 C16.13284713 0.05984195 19.63867875 0.0770987 23.14453125 0.09765625 C21.50864495 1.18824712 19.86822395 2.27257659 18.20703125 3.32421875 C17.52640625 3.78570312 16.84578125 4.2471875 16.14453125 4.72265625 C15.46390625 5.16867187 14.78328125 5.6146875 14.08203125 6.07421875 C8.96884264 11.41420202 8.70009961 18.46429376 8.7121582 25.45117188 C8.70196655 26.34966858 8.6917749 27.24816528 8.68127441 28.17388916 C8.65129583 31.11729287 8.64190168 34.06037033 8.6328125 37.00390625 C8.61595459 39.05514596 8.59780286 41.10637541 8.57841492 43.15759277 C8.53102966 48.53658848 8.50114608 53.91554256 8.47497559 59.29467773 C8.44511212 64.79158748 8.39860168 70.28835401 8.35351562 75.78515625 C8.26761306 86.55591449 8.20020979 97.32670231 8.14453125 108.09765625 C4.25914955 104.91439603 0.97037318 101.93252271 -2.16796875 97.97265625 C-2.93367188 97.01359375 -3.699375 96.05453125 -4.48828125 95.06640625 C-5.66003906 93.596875 -5.66003906 93.596875 -6.85546875 92.09765625 C-9.10588454 89.39418646 -11.35862329 86.69275987 -13.6171875 83.99609375 C-14.72513672 82.56136719 -14.72513672 82.56136719 -15.85546875 81.09765625 C-16.3522966 80.5061528 -16.84912445 79.91464935 -17.36100769 79.30522156 C-22.41486452 72.71472202 -22.70937211 67.15624447 -22.58203125 59.03125 C-22.58302826 57.79778336 -22.58402527 56.56431671 -22.58505249 55.29347229 C-22.58039065 52.6972913 -22.56104965 50.10109962 -22.52783203 47.50512695 C-22.48056957 43.54360734 -22.48673281 39.58477772 -22.5 35.62304688 C-22.48884702 33.09243196 -22.47462761 30.56182831 -22.45703125 28.03125 C-22.45885406 26.85396835 -22.46067688 25.67668671 -22.46255493 24.46372986 C-22.32978323 16.72246619 -21.49077028 10.77482306 -15.8203125 5.0390625 C-15.15128906 4.58402344 -14.48226562 4.12898438 -13.79296875 3.66015625 C-13.12136719 3.18707031 -12.44976562 2.71398437 -11.7578125 2.2265625 C-7.82291055 -0.10852305 -4.4800175 -0.01890303 0 0 Z " fill="#54469D" transform="translate(61.85546875,319.90234375)"/>
<path d="M0 0 C12.54 0 25.08 0 38 0 C38.495 4.95 38.495 4.95 39 10 C40.91310036 15.00349325 42.26782004 17.62832514 46.60571289 20.67822266 C48.65956202 22.39743316 49.82125498 23.42099674 50.61642456 25.99676514 C50.80762165 28.32720264 50.78905202 30.5625993 50.68359375 32.8984375 C50.67368912 33.73339752 50.66378448 34.56835754 50.65357971 35.42861938 C50.61458574 38.07924765 50.52680706 40.72563757 50.4375 43.375 C50.40236608 45.17832533 50.3704307 46.981716 50.34179688 48.78515625 C50.26487474 53.19172169 50.14420848 57.59514397 50 62 C48.58849725 61.85507838 47.17735071 61.70668539 45.76635742 61.55688477 C44.98048752 61.4746315 44.19461761 61.39237823 43.38493347 61.30763245 C39.61165351 60.82091726 35.98377121 59.91864981 32.3125 58.9375 C31.51086426 58.72488525 30.70922852 58.51227051 29.88330078 58.29321289 C16.55815523 54.62873391 3.56966074 49.72391245 -9 44 C-9 38.06 -9 32.12 -9 26 C-7.576875 25.29875 -6.15375 24.5975 -4.6875 23.875 C-0.45832746 21.49442804 1.60882425 19.8227426 3 15 C3.78465801 8.67724852 2.98783306 5.97566613 0 0 Z " fill="#00C0FA" transform="translate(150,435)"/>
<path d="M0 0 C0.33 0 0.66 0 1 0 C1.14924688 5.53170182 1.25763603 11.06221092 1.32958984 16.59545898 C1.35960914 18.4742476 1.40043883 20.35289789 1.45263672 22.23120117 C1.96094792 41.00383163 1.96094792 41.00383163 -3.01708984 47.36352539 C-10.14105444 53.24285741 -15.42874758 53.55410766 -24.49609375 53.390625 C-26.27911644 53.38213531 -26.27911644 53.38213531 -28.09815979 53.37347412 C-31.87835707 53.35116226 -35.6575913 53.30097263 -39.4375 53.25 C-42.00714773 53.22992842 -44.57681038 53.21167881 -47.14648438 53.1953125 C-53.43165515 53.15472373 -59.71475519 53.07641635 -66 53 C-66 40.46 -66 27.92 -66 15 C-62.3390625 14.97421875 -58.678125 14.9484375 -54.90625 14.921875 C-51.3449752 14.88341883 -47.78384343 14.83826986 -44.22265625 14.79248047 C-41.75527826 14.7643244 -39.28781097 14.74308332 -36.8203125 14.72900391 C-33.26516174 14.70750098 -29.71107861 14.66080982 -26.15625 14.609375 C-24.51203064 14.60753204 -24.51203064 14.60753204 -22.83459473 14.60565186 C-15.04079746 14.45794719 -9.27858539 13.36486395 -3.625 7.5625 C-2.05916268 5.093295 -0.9467995 2.76149854 0 0 Z " fill="#FECD6B" transform="translate(511,382)"/>
<path d="M0 0 C0 18.15 0 36.3 0 55 C-17.82 55 -35.64 55 -54 55 C-54 44.44 -54 33.88 -54 23 C-14.93650794 0 -14.93650794 0 0 0 Z " fill="#00D0FB" transform="translate(194,68)"/>
<path d="M0 0 C0.82483887 0.00757324 1.64967773 0.01514648 2.49951172 0.02294922 C14.50457498 0.3431154 24.97170705 3.94219741 33.71484375 12.3203125 C41.7059245 20.93648836 45.39634916 31.16798289 45.0625 42.95703125 C43.52633623 55.1503312 38.28686216 65.17424203 28.81640625 72.9375 C17.50063274 81.15159646 3.28878333 82.0876516 -10.21875 79.97265625 C-18.76245659 77.68802585 -25.84341977 73.39327614 -31.25 66.4375 C-29.54855835 66.41562622 -29.54855835 66.41562622 -27.81274414 66.39331055 C-23.56878525 66.3349506 -19.3253362 66.25772272 -15.08178711 66.17504883 C-13.25179372 66.14197569 -11.42170263 66.11389001 -9.59155273 66.09106445 C-6.94733387 66.05719193 -4.30399621 66.00486359 -1.66015625 65.94921875 C-0.85353043 65.94282883 -0.0469046 65.9364389 0.78416443 65.92985535 C8.95259666 65.72259843 16.1539974 63.84141772 22.24609375 58.1875 C28.25043648 51.20062846 29.28936853 43.34335255 28.75 34.4375 C28.10466922 32.09817594 27.43939809 29.76421854 26.75 27.4375 C26.75534375 25.87445368 26.79884395 24.3111991 26.875 22.75 C26.9220757 19.68484873 26.85456493 18.62389836 25.3125 15.875 C21.56477605 13.77261827 17.96304981 13.91620986 13.75 14.4375 C13.42 14.7675 13.09 15.0975 12.75 15.4375 C11.36724444 15.50104504 9.98117221 15.49470954 8.59741211 15.45922852 C7.27615578 15.42908409 7.27615578 15.42908409 5.9282074 15.39833069 C4.97092239 15.37129562 4.01363739 15.34426056 3.02734375 15.31640625 C2.05213272 15.29279526 1.07692169 15.26918427 0.07215881 15.24485779 C-3.05620134 15.16801362 -6.18432672 15.08407909 -9.3125 15 C-11.42772272 14.94680007 -13.54295704 14.89405956 -15.65820312 14.84179688 C-20.85561541 14.71237061 -26.052852 14.57711577 -31.25 14.4375 C-25.74574138 7.72657328 -25.74574138 7.72657328 -22.5 5.75 C-21.90703125 5.37488281 -21.3140625 4.99976563 -20.703125 4.61328125 C-13.86940082 1.33788161 -7.5661938 -0.09850593 0 0 Z " fill="#8479C0" transform="translate(281.25,215.5625)"/>
<path d="M0 0 C18.48 0 36.96 0 56 0 C56.061875 5.053125 56.12375 10.10625 56.1875 15.3125 C56.22846802 17.69915894 56.22846802 17.69915894 56.27026367 20.1340332 C56.27775635 21.38531006 56.28524902 22.63658691 56.29296875 23.92578125 C56.3086792 25.20880127 56.32438965 26.49182129 56.34057617 27.8137207 C56 31 56 31 54.91918945 32.69213867 C53.96919067 33.33953003 53.96919067 33.33953003 53 34 C51.96810547 34.71019287 50.93621094 35.42038574 49.87304688 36.15209961 C45.63452968 38.48124552 41.79008855 38.59609624 37.03125 38.56640625 C36.1921106 38.57260483 35.35297119 38.57880341 34.48840332 38.58518982 C32.72356316 38.5922578 30.9586559 38.58916705 29.19384766 38.57641602 C26.50688124 38.56253555 23.82339254 38.59667943 21.13671875 38.63476562 C19.41406166 38.63571687 17.69140024 38.6338577 15.96875 38.62890625 C15.17376099 38.64216446 14.37877197 38.65542267 13.55969238 38.66908264 C8.64489672 38.58778561 5.15645169 37.70872312 1.28964233 34.56739807 C-1.01663311 31.7644103 -0.86271461 28.7289057 -0.68359375 25.29296875 C-0.67654419 24.64928345 -0.66949463 24.00559814 -0.66223145 23.34240723 C-0.62582852 20.95653969 -0.52809417 18.57192483 -0.4375 16.1875 C-0.293125 10.845625 -0.14875 5.50375 0 0 Z " fill="#FECD6B" transform="translate(289,397)"/>
<path d="M0 0 C1.59374916 0.47686306 3.18739847 0.95405987 4.78100586 1.43139648 C6.11221718 1.82995094 6.11221718 1.82995094 7.47032166 2.23655701 C10.50902886 3.15362211 13.53548832 4.10761892 16.5625 5.0625 C26.78054541 8.19095861 36.20150726 9.56020097 47 11 C47 23.54 47 36.08 47 49 C41.57311495 49.0921112 36.14896939 49.17166133 30.72192383 49.21972656 C28.87808006 49.23977361 27.03429932 49.2670188 25.19067383 49.30175781 C22.5319051 49.35058208 19.87398085 49.37303772 17.21484375 49.390625 C16.39789536 49.41127014 15.58094696 49.43191528 14.73924255 49.45318604 C9.01866166 49.45540104 5.69912217 48.30509663 1 45 C-0.15410254 42.69179492 -0.1210297 41.39215724 -0.11352539 38.82568359 C-0.11344986 37.96494232 -0.11337433 37.10420105 -0.11329651 36.21737671 C-0.10813522 35.28712677 -0.10297394 34.35687683 -0.09765625 33.3984375 C-0.0962413 32.44683746 -0.09482635 31.49523743 -0.09336853 30.51480103 C-0.08776012 27.46816903 -0.07520619 24.42160987 -0.0625 21.375 C-0.05748608 19.31250106 -0.05292299 17.25000097 -0.04882812 15.1875 C-0.03778796 10.12497183 -0.02051767 5.06249827 0 0 Z " fill="#FECC6B" transform="translate(141,386)"/>
<path d="M0 0 C14.85 0 29.7 0 45 0 C45 13.2 45 26.4 45 40 C39.07343808 40.02294153 33.14702991 40.04285926 27.22045898 40.05493164 C25.20385211 40.05996382 23.1872489 40.06679014 21.1706543 40.07543945 C18.27391661 40.08755373 15.37722712 40.09323943 12.48046875 40.09765625 C11.57725388 40.10281754 10.674039 40.10797882 9.74345398 40.11329651 C8.4824865 40.11340981 8.4824865 40.11340981 7.19604492 40.11352539 C6.45658127 40.115746 5.71711761 40.11796661 4.95524597 40.12025452 C3 40 3 40 0 39 C0 26.13 0 13.26 0 0 Z " fill="#00C1FA" transform="translate(220,461)"/>
<path d="M0 0 C1.67642578 0.01353516 1.67642578 0.01353516 3.38671875 0.02734375 C6.13303462 0.05081654 8.87890472 0.08365272 11.625 0.125 C11.625 0.455 11.625 0.785 11.625 1.125 C10.87476563 1.27195313 10.12453125 1.41890625 9.3515625 1.5703125 C-2.82993297 4.23980899 -11.70567403 9.34790397 -18.55078125 19.9453125 C-19.5383408 21.64589767 -20.4577896 23.38546303 -21.375 25.125 C-22.48875 26.5790625 -22.48875 26.5790625 -23.625 28.0625 C-26.96488564 33.96741781 -26.23504046 41.62976905 -25.375 48.125 C-23.85869883 51.90107904 -21.79767876 54.8806646 -19.375 58.125 C-18.75393196 59.32473384 -18.14807518 60.53254835 -17.5625 61.75 C-13.06408685 69.64555504 -4.66887033 75.246555 3.90234375 77.8046875 C5.79857944 78.29124358 7.71079184 78.71481254 9.625 79.125 C9.625 79.455 9.625 79.785 9.625 80.125 C-6.59613937 80.82866662 -19.7528147 80.58424239 -32.375 69.125 C-39.88889896 62.20007649 -43.70371914 52.26934629 -44.6484375 42.21484375 C-45.0256644 30.50630123 -41.29712881 20.78497414 -33.375 12.125 C-28.95831448 7.64581421 -24.18920636 4.5158886 -18.375 2.125 C-17.55902344 1.76148438 -16.74304688 1.39796875 -15.90234375 1.0234375 C-10.61274816 -0.32385706 -5.43303793 -0.08319139 0 0 Z " fill="#7062B6" transform="translate(94.375,215.875)"/>
<path d="M0 0 C3.55562674 1.1409725 5.13593713 2.33580603 7.62304688 5.0847168 C8.64205078 6.18493164 8.64205078 6.18493164 9.68164062 7.30737305 C10.17792969 7.87327148 10.67421875 8.43916992 11.18554688 9.0222168 C10.13367188 10.0122168 10.13367188 10.0122168 9.06054688 11.0222168 C2.00794988 18.13492115 -2.84816117 25.249399 -3.18945312 35.4597168 C-2.87764698 44.50209487 -0.13292786 50.26919629 5.75976562 57.0769043 C7.18554688 59.0222168 7.18554688 59.0222168 7.18554688 62.0222168 C4.77970643 65.06489736 3.1592815 66.76255423 -0.62695312 67.7722168 C-9.2640177 65.73996631 -16.63922448 55.34772495 -22.68945312 49.2722168 C-23.64761886 48.31762146 -24.60595125 47.36319337 -25.56445312 46.40893555 C-26.92183594 45.04961914 -26.92183594 45.04961914 -28.30664062 43.6628418 C-29.12503418 42.84332031 -29.94342773 42.02379883 -30.78662109 41.17944336 C-32.97882776 38.84735353 -34.59424262 36.94317038 -35.34790039 33.79125977 C-34.48662623 29.32051762 -31.42892848 26.86375271 -28.27929688 23.7175293 C-27.6078212 23.03415497 -26.93634552 22.35078064 -26.24452209 21.646698 C-24.82091261 20.20654774 -23.39066133 18.77293723 -21.9543457 17.34545898 C-19.76126301 15.15650914 -17.6050853 12.9352545 -15.44921875 10.7097168 C-14.06136129 9.31437928 -12.67145229 7.92107869 -11.27929688 6.5300293 C-10.63733871 5.86246613 -9.99538055 5.19490295 -9.33396912 4.5071106 C-4.739365 0.02760383 -4.739365 0.02760383 0 0 Z " fill="#FEAA01" transform="translate(64.814453125,133.977783203125)"/>
<path d="M0 0 C3.55652313 1.1371382 5.1339739 2.33167017 7.62084961 5.08032227 C8.63985352 6.18053711 8.63985352 6.18053711 9.67944336 7.30297852 C10.17573242 7.86887695 10.67202148 8.43477539 11.18334961 9.01782227 C10.13147461 10.00782227 10.13147461 10.00782227 9.05834961 11.01782227 C2.07263792 18.0432255 -2.88575852 25.1817204 -3.25415039 35.33032227 C-2.96453799 45.85290599 0.86329147 52.65664021 8.18334961 60.01782227 C3.41794205 66.64207674 3.41794205 66.64207674 -0.69165039 67.89282227 C-8.95140982 65.58008962 -15.75750139 56.38345747 -21.76464844 50.47485352 C-22.76407374 49.49721539 -23.76972461 48.52590429 -24.78125 47.56079102 C-26.26490115 46.14419889 -27.7277451 44.70873214 -29.18774414 43.26782227 C-30.05326904 42.42735352 -30.91879395 41.58688477 -31.81054688 40.72094727 C-34.39599693 37.23718153 -35.04573477 35.36955008 -34.81665039 31.01782227 C-33.07904285 28.10776195 -30.79559438 25.87509164 -28.37915039 23.51782227 C-27.70625977 22.83727783 -27.03336914 22.1567334 -26.34008789 21.45556641 C-24.91387698 20.02391823 -23.47753949 18.60229702 -22.03198242 17.19018555 C-19.82372817 15.02476277 -17.6613874 12.81999554 -15.50024414 10.60766602 C-14.10827068 9.22097914 -12.71381754 7.83677604 -11.31665039 6.45532227 C-10.67155518 5.7940332 -10.02645996 5.13274414 -9.36181641 4.45141602 C-4.74582166 0.02216113 -4.74582166 0.02216113 0 0 Z " fill="#FEAA02" transform="translate(374.816650390625,133.982177734375)"/>
<path d="M0 0 C3.55652313 1.1371382 5.1339739 2.33167017 7.62084961 5.08032227 C8.63985352 6.18053711 8.63985352 6.18053711 9.67944336 7.30297852 C10.17573242 7.86887695 10.67202148 8.43477539 11.18334961 9.01782227 C10.13147461 10.00782227 10.13147461 10.00782227 9.05834961 11.01782227 C2.07263792 18.0432255 -2.88575852 25.1817204 -3.25415039 35.33032227 C-2.96453799 45.85290599 0.86329147 52.65664021 8.18334961 60.01782227 C3.41794205 66.64207674 3.41794205 66.64207674 -0.69165039 67.89282227 C-8.95140982 65.58008962 -15.75750139 56.38345747 -21.76464844 50.47485352 C-22.76407374 49.49721539 -23.76972461 48.52590429 -24.78125 47.56079102 C-26.26490115 46.14419889 -27.7277451 44.70873214 -29.18774414 43.26782227 C-30.05326904 42.42735352 -30.91879395 41.58688477 -31.81054688 40.72094727 C-34.39599693 37.23718153 -35.04573477 35.36955008 -34.81665039 31.01782227 C-33.07904285 28.10776195 -30.79559438 25.87509164 -28.37915039 23.51782227 C-27.70625977 22.83727783 -27.03336914 22.1567334 -26.34008789 21.45556641 C-24.91387698 20.02391823 -23.47753949 18.60229702 -22.03198242 17.19018555 C-19.82372817 15.02476277 -17.6613874 12.81999554 -15.50024414 10.60766602 C-14.10827068 9.22097914 -12.71381754 7.83677604 -11.31665039 6.45532227 C-10.67155518 5.7940332 -10.02645996 5.13274414 -9.36181641 4.45141602 C-4.74582166 0.02216113 -4.74582166 0.02216113 0 0 Z " fill="#FEAA02" transform="translate(229.816650390625,133.982177734375)"/>
<path d="M0 0 C1.24716797 0.01353516 2.49433594 0.02707031 3.77929688 0.04101562 C6.83248967 0.0761098 9.8847599 0.12527733 12.9375 0.1875 C11.9475 0.8475 10.9575 1.5075 9.9375 2.1875 C9.28394531 2.65027344 8.63039062 3.11304688 7.95703125 3.58984375 C4.25754862 6.1631122 0.85363 8.37683543 -3.4375 9.8125 C-6.96411677 10.94280899 -6.96411677 10.94280899 -9.125 12.8125 C-10.60929517 16.57271444 -10.05700363 20.31417008 -9.0625 24.1875 C-8.4025 24.8475 -7.7425 25.5075 -7.0625 26.1875 C-6.54684111 27.92147386 -6.09673732 29.67537224 -5.6875 31.4375 C-3.43261671 39.9571822 0.61584614 44.51903952 7.9375 49.1875 C10.72999393 50.5439525 10.72999393 50.5439525 12.9375 51.1875 C12.9375 51.5175 12.9375 51.8475 12.9375 52.1875 C8.43762438 52.27517743 3.937971 52.32812009 -0.5625 52.375 C-1.8309375 52.40013672 -3.099375 52.42527344 -4.40625 52.45117188 C-15.19393808 52.53545069 -22.07004579 51.05999984 -30.07421875 43.484375 C-35.19819872 37.56512113 -36.84220674 30.64822169 -36.50390625 22.921875 C-35.26273466 15.23320145 -31.24220322 9.72693307 -25.515625 4.66015625 C-17.35722755 -0.23748043 -9.31689327 -0.19317323 0 0 Z " fill="#FC9403" transform="translate(237.0625,229.8125)"/>
<path d="M0 0 C4.78440226 2.71730757 8.68850395 7.21195125 10.390625 12.484375 C11.49558817 18.68177714 11.26707011 24.07267901 8.16015625 29.640625 C4.97515928 33.84023319 0.72329456 36.84223515 -4.25 38.5 C-11.00490217 39.23188105 -16.75997547 38.74389476 -22.25 34.5 C-27.57338659 28.73589731 -29.64517218 23.97575322 -29.51953125 16.12890625 C-28.98942126 10.95841313 -27.12692225 7.23341512 -23.30859375 3.70703125 C-16.29751793 -1.72881206 -8.46346013 -3.7017446 0 0 Z " fill="#6E61B7" transform="translate(410.25,151.5)"/>
<path d="M0 0 C4.78440226 2.71730757 8.68850395 7.21195125 10.390625 12.484375 C11.49558817 18.68177714 11.26707011 24.07267901 8.16015625 29.640625 C4.97515928 33.84023319 0.72329456 36.84223515 -4.25 38.5 C-11.00490217 39.23188105 -16.75997547 38.74389476 -22.25 34.5 C-27.57338659 28.73589731 -29.64517218 23.97575322 -29.51953125 16.12890625 C-28.98942126 10.95841313 -27.12692225 7.23341512 -23.30859375 3.70703125 C-16.29751793 -1.72881206 -8.46346013 -3.7017446 0 0 Z " fill="#6E61B7" transform="translate(265.25,151.5)"/>
<path d="M0 0 C4.39896616 3.39106599 7.83724534 7.88570645 8.82421875 13.40625 C9.28761666 20.47306812 7.9611493 25.00299023 4.13671875 31.09375 C-0.29051275 35.5209815 -4.89546794 37.62605141 -11.17578125 37.90625 C-16.20064347 37.65192415 -20.22842866 36.60977598 -24.17578125 33.40625 C-29.02606842 27.45698708 -31.55266863 22.73907819 -31.453125 15.07421875 C-30.87243901 9.48818312 -28.41436811 5.23253629 -24.23828125 1.53125 C-16.74161498 -3.67051843 -8.14015439 -4.62321142 0 0 Z " fill="#6E61B7" transform="translate(102.17578125,152.59375)"/>
<path d="M0 0 C4.04806213 2.71597587 7.49066242 5.74002532 8.58984375 10.6171875 C8.75 13.25 8.75 13.25 8.671875 15.703125 C8.76929327 18.17681589 8.76929327 18.17681589 10.96972656 19.70800781 C15.03624266 24.29873089 13.97037719 31.59172296 14 37.5 C14.00735168 38.22865265 14.01470337 38.9573053 14.02227783 39.70803833 C14.0468886 54.74625768 14.0468886 54.74625768 8.9921875 60.484375 C4.60902488 64.42286895 0.91046057 66.15513301 -5 67 C-5.00410889 65.98164063 -5.00821777 64.96328125 -5.01245117 63.9140625 C-5.03436713 60.10415328 -5.08878296 56.29525866 -5.15258789 52.48583984 C-5.17566008 50.84303577 -5.19013813 49.20008605 -5.19555664 47.55712891 C-4.89273543 34.75585936 -4.89273543 34.75585936 -11 24 C-15.11796742 20.59820083 -18.90637209 19.2224707 -24 18 C-8.02547771 -1.33757962 -8.02547771 -1.33757962 0 0 Z " fill="#FDA903" transform="translate(293,302)"/>
<path d="M0 0 C-1.875 4.75 -1.875 4.75 -3 7 C-3.41654299 11.52589985 -3.51073318 15.66641891 -1.875 19.9375 C1.06533469 23.17186816 3.76653868 24.8660711 8.21484375 25.1328125 C12.54717922 24.88772197 14.55615251 24.36062608 18 21.5625 C21.65161701 16.8838657 21.54808814 12.80059944 21 7 C19.6490712 4.0745356 19.6490712 4.0745356 18 2 C18 1.34 18 0.68 18 0 C23.63901397 1.32682682 26.02885699 5.38620088 29 10 C31.50621967 14.44284395 31.65126685 19.01530369 31 24 C29.06525892 30.62465142 24.5941446 35.14556145 19 39 C13.72521833 41.543806 8.75846347 41.77642204 3 41 C-3.8266279 38.38156738 -8.77578229 32.84183059 -12.375 26.625 C-14.12496624 19.2751418 -13.12756295 13.87007241 -9.50390625 7.2421875 C-7.2718869 3.91444956 -4.31609056 0 0 0 Z " fill="#877CBF" transform="translate(422,226)"/>
<path d="M0 0 C0.66 0.33 1.32 0.66 2 1 C1.01 2.1446875 1.01 2.1446875 0 3.3125 C-2.99418222 7.77192032 -2.64677554 12.83331633 -2 18 C-0.84512205 21.81759613 -0.84512205 21.81759613 2.0625 24.3125 C7.69746011 25.63132045 12.20187864 25.91540724 17.4375 23.25 C20.3599044 20.68398638 21.7134829 18.77240813 22.3359375 14.921875 C22.44438434 8.89223046 21.02952992 5.20700454 18 0 C23.83198409 1.54376049 27.06121496 5.91108824 30.15234375 10.8359375 C32.24066714 16.16741748 31.78081839 22.94097099 30.3828125 28.41796875 C28.03449691 33.79000042 23.97177117 37.04960602 19 40 C13.26556587 41.91147804 6.25810392 42.20171718 0.54296875 40.09375 C-4.64183108 37.00071453 -8.27539446 32.95646664 -11.3125 27.75 C-12.96457506 21.14169976 -12.7960464 14.89713328 -9.421875 8.89453125 C-6.78536285 5.3815961 -3.4526481 2.68166843 0 0 Z " fill="#7264B4" transform="translate(363,250)"/>
<path d="M0 0 C1.6640625 1.05078125 1.6640625 1.05078125 3 3 C3.27400149 5.5352348 3.42047896 7.90136564 3.4375 10.4375 C3.41170742 14.37429773 3.41170742 14.37429773 4 18 C4.65726074 18.56364258 5.31452148 19.12728516 5.99169922 19.70800781 C8.84764349 22.96738112 8.62962607 26.1004243 8.63671875 30.23828125 C8.64766068 31.03727341 8.6586026 31.83626556 8.6698761 32.6594696 C8.68572052 34.34802819 8.69094357 36.03671532 8.6862793 37.7253418 C8.68749175 40.29500896 8.74719601 42.85894328 8.81054688 45.42773438 C8.95706863 59.15663838 8.95706863 59.15663838 4.64453125 63.60546875 C2.38329249 65.34951087 0.74911909 66.08362697 -2 67 C-1.99887207 65.98687744 -1.99774414 64.97375488 -1.99658203 63.92993164 C-2.00028245 60.13299023 -2.04333933 56.33729805 -2.09765625 52.54077148 C-2.11570672 50.90478622 -2.1234048 49.2686499 -2.12011719 47.63256836 C-1.95448572 35.34414946 -1.95448572 35.34414946 -7.33374023 24.57788086 C-12.14319384 20.02352208 -17.5442157 18.53798202 -24 18 C-8.55361596 -0.69825436 -8.55361596 -0.69825436 0 0 Z " fill="#FDAA03" transform="translate(447,302)"/>
<path d="M0 0 C4.07457264 0.68827241 5.66127575 2.19020573 8.421875 5.14453125 C10.7273098 8.82341657 11.03798926 12.54891411 11.40625 16.81640625 C11.59674276 19.51862404 11.59674276 19.51862404 13.38500977 20.70336914 C16.70303332 24.63689763 15.53128205 31.37863302 15.55639648 36.37426758 C15.57790701 38.65269144 15.6579893 40.92424296 15.74023438 43.20117188 C15.93253584 53.8424874 15.93253584 53.8424874 13.09619141 58.32275391 C11.12482448 60.32142143 9.25731099 61.98410955 6.890625 63.48828125 C6.560625 63.48828125 6.230625 63.48828125 5.890625 63.48828125 C5.88651611 62.62662354 5.88240723 61.76496582 5.87817383 60.87719727 C5.85099018 57.63929852 5.80169223 54.40265476 5.73803711 51.1652832 C5.71503033 49.77184483 5.70050253 48.37823684 5.69506836 46.98461914 C5.65599044 38.60691531 5.48681607 31.19516673 -0.109375 24.48828125 C-5.81555737 19.73153091 -12.87141934 18.65768021 -20.109375 18.48828125 C-16.43996673 14.02548741 -12.59053691 9.73759707 -8.609375 5.55078125 C-7.7121875 4.59300781 -6.815 3.63523437 -5.890625 2.6484375 C-3.109375 0.48828125 -3.109375 0.48828125 0 0 Z " fill="#FDA901" transform="translate(135.109375,301.51171875)"/>
<path d="M0 0 C3.93539483 0.2997155 6.68003836 0.81811425 10.171875 2.7421875 C13.30542008 8.09953876 12.97543737 13.99946808 12.109375 20.0546875 C10.703125 22.48828125 10.703125 22.48828125 9.109375 24.0546875 C8.449375 24.0546875 7.789375 24.0546875 7.109375 24.0546875 C7.13294067 25.66694214 7.13294067 25.66694214 7.15698242 27.31176758 C7.21126611 31.29801953 7.24571921 35.28423878 7.27416992 39.27075195 C7.28926016 40.99639377 7.30973475 42.72199722 7.33569336 44.44750977 C7.37206709 46.92734238 7.38909859 49.40666814 7.40234375 51.88671875 C7.42556953 53.04467705 7.42556953 53.04467705 7.44926453 54.22602844 C7.45093337 59.53261185 7.45093337 59.53261185 5.78637695 62.0769043 C4.109375 63.0546875 4.109375 63.0546875 0.984375 62.8671875 C0.035625 62.5990625 -0.913125 62.3309375 -1.890625 62.0546875 C-3.47707857 58.88178037 -3.01140713 55.46643366 -2.98828125 51.984375 C-2.9868663 51.18814728 -2.98545135 50.39191956 -2.98399353 49.57156372 C-2.97838845 47.0242337 -2.96583514 44.47699103 -2.953125 41.9296875 C-2.94811065 40.20442835 -2.94354763 38.47916783 -2.93945312 36.75390625 C-2.92841737 32.52079959 -2.91114936 28.28775836 -2.890625 24.0546875 C-3.880625 23.7246875 -4.870625 23.3946875 -5.890625 23.0546875 C-9.27316719 17.98087422 -8.59656758 11.97214736 -7.890625 6.0546875 C-6.47588579 3.45421362 -5.41389405 2.71635248 -2.890625 1.0546875 C-1.890625 0.0546875 -1.890625 0.0546875 0 0 Z " fill="#847AC0" transform="translate(457.890625,299.9453125)"/>
<path d="M0 0 C3.93539483 0.2997155 6.68003836 0.81811425 10.171875 2.7421875 C13.30542008 8.09953876 12.97543737 13.99946808 12.109375 20.0546875 C10.703125 22.48828125 10.703125 22.48828125 9.109375 24.0546875 C8.449375 24.0546875 7.789375 24.0546875 7.109375 24.0546875 C7.13294067 25.66694214 7.13294067 25.66694214 7.15698242 27.31176758 C7.21126611 31.29801953 7.24571921 35.28423878 7.27416992 39.27075195 C7.28926016 40.99639377 7.30973475 42.72199722 7.33569336 44.44750977 C7.37206709 46.92734238 7.38909859 49.40666814 7.40234375 51.88671875 C7.42556953 53.04467705 7.42556953 53.04467705 7.44926453 54.22602844 C7.45093337 59.53261185 7.45093337 59.53261185 5.78637695 62.0769043 C4.109375 63.0546875 4.109375 63.0546875 0.984375 62.8671875 C0.035625 62.5990625 -0.913125 62.3309375 -1.890625 62.0546875 C-3.47707857 58.88178037 -3.01140713 55.46643366 -2.98828125 51.984375 C-2.9868663 51.18814728 -2.98545135 50.39191956 -2.98399353 49.57156372 C-2.97838845 47.0242337 -2.96583514 44.47699103 -2.953125 41.9296875 C-2.94811065 40.20442835 -2.94354763 38.47916783 -2.93945312 36.75390625 C-2.92841737 32.52079959 -2.91114936 28.28775836 -2.890625 24.0546875 C-3.880625 23.7246875 -4.870625 23.3946875 -5.890625 23.0546875 C-9.27316719 17.98087422 -8.59656758 11.97214736 -7.890625 6.0546875 C-6.47588579 3.45421362 -5.41389405 2.71635248 -2.890625 1.0546875 C-1.890625 0.0546875 -1.890625 0.0546875 0 0 Z " fill="#847AC1" transform="translate(308.890625,299.9453125)"/>
<path d="M0 0 C1.423125 0.4021875 1.423125 0.4021875 2.875 0.8125 C4.46145357 3.98540713 3.99578213 7.40075384 3.97265625 10.8828125 C3.9712413 11.67904022 3.96982635 12.47526794 3.96836853 13.29562378 C3.96276345 15.8429538 3.95021014 18.39019647 3.9375 20.9375 C3.93248565 22.66275915 3.92792263 24.38801967 3.92382812 26.11328125 C3.91279237 30.34638791 3.89552436 34.57942914 3.875 38.8125 C4.865 39.1425 5.855 39.4725 6.875 39.8125 C9.99384447 44.49076671 9.33820658 49.33363467 8.875 54.8125 C7.63227413 58.60608424 6.97420187 60.15892051 3.5625 62.1875 C0.39868264 62.92327148 -1.89054472 63.2841914 -5.125 62.8125 C-8.22664769 60.26225635 -9.85066416 58.63550753 -11.125 54.8125 C-11.26949151 52.83685647 -11.34561999 50.85570239 -11.375 48.875 C-11.41367187 47.31458984 -11.41367187 47.31458984 -11.453125 45.72265625 C-11.08707432 42.47613536 -10.40858409 41.11271213 -8.125 38.8125 C-7.465 38.8125 -6.805 38.8125 -6.125 38.8125 C-6.14071045 37.73766357 -6.1564209 36.66282715 -6.17260742 35.55541992 C-6.22689111 31.56916797 -6.26134421 27.58294872 -6.28979492 23.59643555 C-6.30488516 21.87079373 -6.32535975 20.14519028 -6.35131836 18.41967773 C-6.38769209 15.93984512 -6.40472359 13.46051936 -6.41796875 10.98046875 C-6.43345261 10.20849655 -6.44893646 9.43652435 -6.46488953 8.64115906 C-6.46655837 3.33457565 -6.46655837 3.33457565 -4.80200195 0.7902832 C-3.125 -0.1875 -3.125 -0.1875 0 0 Z " fill="#847AC1" transform="translate(451.125,140.1875)"/>
<path d="M0 0 C1.423125 0.4021875 1.423125 0.4021875 2.875 0.8125 C4.46145357 3.98540713 3.99578213 7.40075384 3.97265625 10.8828125 C3.9712413 11.67904022 3.96982635 12.47526794 3.96836853 13.29562378 C3.96276345 15.8429538 3.95021014 18.39019647 3.9375 20.9375 C3.93248565 22.66275915 3.92792263 24.38801967 3.92382812 26.11328125 C3.91279237 30.34638791 3.89552436 34.57942914 3.875 38.8125 C4.865 39.1425 5.855 39.4725 6.875 39.8125 C9.99384447 44.49076671 9.33820658 49.33363467 8.875 54.8125 C7.63227413 58.60608424 6.97420187 60.15892051 3.5625 62.1875 C0.39868264 62.92327148 -1.89054472 63.2841914 -5.125 62.8125 C-8.22664769 60.26225635 -9.85066416 58.63550753 -11.125 54.8125 C-11.26949151 52.83685647 -11.34561999 50.85570239 -11.375 48.875 C-11.41367187 47.31458984 -11.41367187 47.31458984 -11.453125 45.72265625 C-11.08707432 42.47613536 -10.40858409 41.11271213 -8.125 38.8125 C-7.465 38.8125 -6.805 38.8125 -6.125 38.8125 C-6.14071045 37.73766357 -6.1564209 36.66282715 -6.17260742 35.55541992 C-6.22689111 31.56916797 -6.26134421 27.58294872 -6.28979492 23.59643555 C-6.30488516 21.87079373 -6.32535975 20.14519028 -6.35131836 18.41967773 C-6.38769209 15.93984512 -6.40472359 13.46051936 -6.41796875 10.98046875 C-6.43345261 10.20849655 -6.44893646 9.43652435 -6.46488953 8.64115906 C-6.46655837 3.33457565 -6.46655837 3.33457565 -4.80200195 0.7902832 C-3.125 -0.1875 -3.125 -0.1875 0 0 Z " fill="#847AC1" transform="translate(306.125,140.1875)"/>
<path d="M0 0 C3.49406769 1.66762322 4.82670681 2.74006022 7 6 C7.30078125 8.9609375 7.30078125 8.9609375 7.3125 12.375 C7.32925781 13.49648438 7.34601563 14.61796875 7.36328125 15.7734375 C6.96656924 19.29692269 6.15147437 21.20465374 4 24 C3.34 24 2.68 24 2 24 C2.02356567 25.61225464 2.02356567 25.61225464 2.04760742 27.25708008 C2.10189111 31.24333203 2.13634421 35.22955128 2.16479492 39.21606445 C2.17988516 40.94170627 2.20035975 42.66730972 2.22631836 44.39282227 C2.26269209 46.87265488 2.27972359 49.35198064 2.29296875 51.83203125 C2.31619453 52.98998955 2.31619453 52.98998955 2.33988953 54.17134094 C2.34156262 59.49143211 2.34156262 59.49143211 0.6418457 62.0222168 C-1 63 -1 63 -3.5625 62.8125 C-6 62 -6 62 -8 60 C-8.20909429 57.31414531 -8.30110137 54.72298276 -8.30859375 52.03515625 C-8.3337515 50.41470991 -8.35914955 48.79426729 -8.38476562 47.17382812 C-8.41353308 44.6149998 -8.43754591 42.05623598 -8.45629883 39.49731445 C-8.47792365 37.03042172 -8.51735825 34.56428758 -8.55859375 32.09765625 C-8.55870956 31.33195816 -8.55882538 30.56626007 -8.5589447 29.77735901 C-8.56211133 25.67406773 -8.56211133 25.67406773 -10.46508789 22.18139648 C-10.97160889 21.79153564 -11.47812988 21.4016748 -12 21 C-13.54462213 16.36613361 -13.63442261 11.83402446 -13 7 C-10.02038826 1.25201765 -6.28248952 -0.49274428 0 0 Z " fill="#847AC0" transform="translate(158,300)"/>
<path d="M0 0 C1.423125 0.4021875 1.423125 0.4021875 2.875 0.8125 C4.46145357 3.98540713 3.99578213 7.40075384 3.97265625 10.8828125 C3.9712413 11.67904022 3.96982635 12.47526794 3.96836853 13.29562378 C3.96276345 15.8429538 3.95021014 18.39019647 3.9375 20.9375 C3.93248565 22.66275915 3.92792263 24.38801967 3.92382812 26.11328125 C3.91279237 30.34638791 3.89552436 34.57942914 3.875 38.8125 C4.865 39.1425 5.855 39.4725 6.875 39.8125 C9.23116475 43.34674712 9.1731228 44.99894102 9.1875 49.1875 C9.20425781 50.30898437 9.22101563 51.43046875 9.23828125 52.5859375 C8.84043005 56.11954066 7.96474284 57.96983511 5.875 60.8125 C2.65946554 63.14099047 -0.23521377 63.35707007 -4.125 62.8125 C-7.55265324 60.74477415 -9.83209412 58.69121765 -11.125 54.8125 C-11.29371733 53.02575587 -11.39080465 51.23158464 -11.4375 49.4375 C-11.47488281 48.50164062 -11.51226562 47.56578125 -11.55078125 46.6015625 C-11.125 43.8125 -11.125 43.8125 -9.12988281 41.65429688 C-6.53151237 37.97126815 -6.57385818 34.89716209 -6.62109375 30.5546875 C-6.61167252 29.76981964 -6.60225128 28.98495178 -6.59254456 28.17630005 C-6.56396207 25.67976503 -6.56081468 23.18418523 -6.5625 20.6875 C-6.55889377 18.18381401 -6.54940162 15.6808179 -6.52174377 13.17727661 C-6.50493594 11.62257649 -6.50209531 10.06764836 -6.51475525 8.51290894 C-6.46406808 3.32605817 -6.46406808 3.32605817 -4.79711914 0.80126953 C-3.125 -0.1875 -3.125 -0.1875 0 0 Z " fill="#847AC1" transform="translate(141.125,140.1875)"/>
<path d="M0 0 C6.6 0 13.2 0 20 0 C20.02290839 5.25111196 20.04283563 10.50205178 20.05493164 15.75317383 C20.05997218 17.54094021 20.06680454 19.32870245 20.07543945 21.11645508 C20.0875173 23.68051168 20.09323094 26.24451397 20.09765625 28.80859375 C20.10281754 29.6127623 20.10797882 30.41693085 20.11329651 31.24546814 C20.11349215 33.16401715 20.06201983 35.08245368 20 37 C15.23321678 41.76678322 6.70420936 39.29429375 0 40 C0 26.8 0 13.6 0 0 Z " fill="#978FCC" transform="translate(265,461)"/>
<path d="M0 0 C0.99 0.33 1.98 0.66 3 1 C8.61 1.33 14.22 1.66 20 2 C20 14.87 20 27.74 20 41 C7 40 7 40 0 38 C0 25.46 0 12.92 0 0 Z " fill="#978FCC" transform="translate(200,459)"/>
<path d="M0 0 C7.17697151 3.03391892 10.94065839 12.17961826 14 19 C15.33345156 24.30080001 14.68519089 27.55055774 12.375 32.4375 C9.1903226 35.8735993 6.60866075 37.88938541 1.7890625 38.09375 C-3.24859041 37.75902223 -6.43138789 36.78489163 -10 33 C-12.72354647 28.2804971 -13.20599522 24.32323698 -12 19 C-8.98938551 12.42483024 -5.14018192 5.14018192 0 0 Z " fill="#FDA903" transform="translate(430,214)"/>
<path d="M0 0 C1.32 0 2.64 0 4 0 C6.40498096 2.63079888 7.99553902 5.84532008 9.75 8.9375 C10.25660156 9.76830078 10.76320313 10.59910156 11.28515625 11.45507812 C14.50521891 17.03160173 16.00546894 21.54699039 15 28 C13.16669816 32.58325461 10.38253554 34.80873223 6 37 C1.68825807 37.68440348 -1.83285584 37.48208128 -5.875 35.8125 C-9.79895475 32.46559742 -11.2586808 29.40688533 -11.875 24.3125 C-11.75526136 18.08609048 -8.89045834 13.50429635 -5.75 8.3125 C-5.25999512 7.4975708 -4.76999023 6.6826416 -4.26513672 5.84301758 C-1.47851535 1.49257062 -1.47851535 1.49257062 0 0 Z " fill="#FDA902" transform="translate(371,239)"/>
<path d="M0 0 C1.28132813 0.00902344 2.56265625 0.01804688 3.8828125 0.02734375 C4.87023437 0.03894531 5.85765625 0.05054688 6.875 0.0625 C5.885 0.7225 4.895 1.3825 3.875 2.0625 C-3.59977823 7.15824203 -8.25399267 11.86338062 -10.125 21.0625 C-11.11573108 29.24353699 -8.74781868 35.80082429 -3.875 42.375 C-0.59965831 45.57590211 2.69166975 47.29781974 6.875 49.0625 C6.875 49.3925 6.875 49.7225 6.875 50.0625 C-1.41178494 50.70729306 -7.99142268 50.82346606 -14.99609375 45.98828125 C-19.65734474 41.77177348 -23.84793325 36.06464098 -24.43359375 29.71875 C-24.76633874 21.94213203 -24.70846364 15.7129927 -20.05078125 9.12109375 C-14.20176584 2.86869797 -8.44030736 -0.07673007 0 0 Z " fill="#FD4344" transform="translate(92.125,230.9375)"/>
<path d="M0 0 C12.54 0 25.08 0 38 0 C38.495 4.95 38.495 4.95 39 10 C39.67375142 12.84560742 39.67375142 12.84560742 40.5625 15.125 C40.83191406 15.87007813 41.10132813 16.61515625 41.37890625 17.3828125 C41.58386719 17.91648437 41.78882813 18.45015625 42 19 C36.28064534 18.40597914 31.30809978 16.89682787 25.9375 14.875 C24.69818726 14.41130005 24.69818726 14.41130005 23.43383789 13.93823242 C3.08170804 6.16341608 3.08170804 6.16341608 0 0 Z " fill="#00D0FB" transform="translate(150,435)"/>
<path d="M0 0 C11.88 0 23.76 0 36 0 C33 8 33 8 30.99804688 9.5949707 C30.24587891 9.86913818 29.49371094 10.14330566 28.71875 10.42578125 C27.88118164 10.74611328 27.04361328 11.06644531 26.18066406 11.39648438 C25.29604492 11.69876953 24.41142578 12.00105469 23.5 12.3125 C22.60249023 12.64443359 21.70498047 12.97636719 20.78027344 13.31835938 C14.62345962 15.5567962 8.40353708 17.59004688 2 19 C2.15984375 18.2471875 2.3196875 17.494375 2.484375 16.71875 C3.3591551 12.10627311 3.75028031 8.40677558 1.5 4.1875 C1.005 3.465625 0.51 2.74375 0 2 C0 1.34 0 0.68 0 0 Z " fill="#00D0FB" transform="translate(298,435)"/>
<path d="M0 0 C10.89 0 21.78 0 33 0 C29.63366917 3.36633083 26.20856844 5.43254737 22.125 7.8125 C20.99783569 8.47354736 20.99783569 8.47354736 19.84790039 9.14794922 C13.39560809 12.87812731 6.83511946 16.01454552 0 19 C0 12.73 0 6.46 0 0 Z " fill="#978FCC" transform="translate(348,460)"/>
<path d="M0 0 C2.84669025 1.59734122 5.01740458 3.40211635 7 6 C7.70771676 10.03398552 7.4111303 12.1190065 5.6875 15.8125 C4 18 4 18 1 20 C-2.0169088 20.34061873 -4.09407815 20.57212107 -7 20 C-10.61391202 17.07811368 -12.74312565 14.88374526 -13.375 10.25 C-12.8528401 5.7246142 -11.15770622 4.2328897 -8 1 C-5.04206277 -0.47896861 -3.29779776 -0.4355582 0 0 Z " fill="#FF7878" transform="translate(101,254)"/>
<path d="M0 0 C3.03978021 0.68164768 4.80055419 2.23591662 6.93359375 4.43359375 C8.54206557 7.65053739 8.54668524 10.95496597 7.93359375 14.43359375 C4.98782408 18.07704571 2.8146519 20.22458729 -1.87890625 20.74609375 C-5.84339392 20.35741849 -7.27799457 19.22200543 -10.06640625 16.43359375 C-12.10280858 13.74924522 -12.06634957 12.43047636 -12.00390625 8.99609375 C-10.25818254 2.36234363 -6.71441757 -0.41885781 0 0 Z " fill="#FFC040" transform="translate(284.06640625,251.56640625)"/>
<path d="M0 0 C2.8100346 1.79363911 4.50940468 3.01880935 6 6 C6.12243863 10.53022942 5.81830145 13.98332245 2.9375 17.5625 C-0.88844599 19.43477144 -3.82161996 19.80191132 -8 19 C-10.9375 17.5625 -10.9375 17.5625 -13 15 C-13.96992656 11.94187861 -14.30767308 9.1963814 -14 6 C-10.48028041 0.17425724 -6.63382773 -0.95313617 0 0 Z " fill="#FFC041" transform="translate(240,239)"/>
<path d="M0 0 C2.47573357 3.71360036 2.486633 7.11394869 1.625 11.4375 C-0.3125 14.5 -0.3125 14.5 -3.375 16.4375 C-8.12558323 17.47695854 -11.31641507 17.107217 -15.4375 14.5 C-17.69463706 10.93226722 -18.10272485 8.75029153 -17.8671875 4.59375 C-17.0637565 1.07395705 -15.22513747 -0.48967275 -12.375 -2.5625 C-7.93121967 -4.71271629 -3.86050541 -2.53980619 0 0 Z " fill="#FE797A" transform="translate(130.375,238.5625)"/>
<path d="M0 0 C3.0625 1.9375 3.0625 1.9375 5 5 C6.03945854 9.75058323 5.669717 12.94141507 3.0625 17.0625 C-1.05858493 19.669717 -4.24941677 20.03945854 -9 19 C-12.0625 17.0625 -12.0625 17.0625 -14 14 C-15.03945854 9.24941677 -14.669717 6.05858493 -12.0625 1.9375 C-7.94141507 -0.669717 -4.75058323 -1.03945854 0 0 Z " fill="#FDC043" transform="translate(304,229)"/>
<path d="M0 0 C10.23 0 20.46 0 31 0 C31 5.61 31 11.22 31 17 C24.24273725 14.74757908 24.24273725 14.74757908 20.9765625 13.01171875 C19.90921875 12.44614258 19.90921875 12.44614258 18.8203125 11.86914062 C18.09585938 11.47919922 17.37140625 11.08925781 16.625 10.6875 C15.90828125 10.30916016 15.1915625 9.93082031 14.453125 9.54101562 C9.52699195 6.91344827 4.55890786 4.23493209 0 1 C0 0.67 0 0.34 0 0 Z " fill="#988FCC" transform="translate(110,461)"/>
<path d="M0 0 C1.1055189 0.93590504 2.20935453 1.87379858 3.3125 2.8125 C3.92738281 3.33457031 4.54226563 3.85664063 5.17578125 4.39453125 C6.07876953 5.18923828 6.07876953 5.18923828 7 6 C7.57105469 6.41636719 8.14210938 6.83273437 8.73046875 7.26171875 C10.89103562 10.22003339 10.50642759 12.46250948 10 16 C8.21456581 18.32665313 6.7021117 20.02059881 4.5625 21.9375 C4.04623047 22.43056641 3.52996094 22.92363281 2.99804688 23.43164062 C-0.78807646 27 -0.78807646 27 -2 27 C-2 18.42 -2 9.84 -2 1 C-1.34 0.67 -0.68 0.34 0 0 Z " fill="#FEAA03" transform="translate(467,323)"/>
<path d="M0 0 C8.94795946 7.66967954 8.94795946 7.66967954 9.37109375 10.35546875 C8.88364272 13.82919869 7.60019253 14.9442843 5.0625 17.3125 C4.33160156 18.00988281 3.60070312 18.70726562 2.84765625 19.42578125 C1 21 1 21 0 21 C0 14.07 0 7.14 0 0 Z " fill="#FDAA06" transform="translate(160,325)"/>
<path d="M0 0 C7 6 7 6 7.875 9.5 C7 13 7 13 0 19 C0 12.73 0 6.46 0 0 Z " fill="#FFAB04" transform="translate(316,326)"/>
</svg>
