<svg xmlns="http://www.w3.org/2000/svg" xmlns:xlink="http://www.w3.org/1999/xlink" width="500" zoomAndPan="magnify" viewBox="0 0 375 374.999991" height="500" preserveAspectRatio="xMidYMid meet" version="1.0"><defs><g/><clipPath id="13b757037e"><path d="M 0.160156 45 L 56 45 L 56 127 L 0.160156 127 Z M 0.160156 45 " clip-rule="nonzero"/></clipPath><clipPath id="30bc449660"><rect x="0" width="58" y="0" height="160"/></clipPath></defs><rect x="-37.5" width="450" fill="#ffffff" y="-37.499999" height="449.999989" fill-opacity="1"/><rect x="-37.5" width="450" fill="#ffffff" y="-37.499999" height="449.999989" fill-opacity="1"/><g fill="#4e2a2a" fill-opacity="1"><g transform="translate(111.652622, 226.874985)"><g><path d="M 140.984375 25.046875 C 136.742188 26.503906 132.398438 27.597656 127.953125 28.328125 C 123.515625 29.054688 119.039062 29.421875 114.53125 29.421875 C 104.851562 29.421875 97 27.832031 90.96875 24.65625 C 84.9375 21.476562 79.960938 17.367188 76.046875 12.328125 C 72.140625 7.285156 69.023438 1.6875 66.703125 -4.46875 C 64.390625 -10.632812 62.140625 -16.734375 59.953125 -22.765625 C 57.765625 -28.796875 55.273438 -34.429688 52.484375 -39.671875 C 49.703125 -44.910156 45.992188 -49.050781 41.359375 -52.09375 C 40.960938 -52.363281 40.53125 -52.597656 40.0625 -52.796875 C 39.601562 -52.992188 39.175781 -53.09375 38.78125 -53.09375 C 38.25 -53.09375 37.484375 -52.660156 36.484375 -51.796875 C 35.492188 -50.929688 34.46875 -49.96875 33.40625 -48.90625 C 32.34375 -47.851562 31.347656 -46.757812 30.421875 -45.625 C 29.492188 -44.5 28.832031 -43.738281 28.4375 -43.34375 C 27.507812 -42.28125 26.878906 -41.453125 26.546875 -40.859375 C 26.210938 -40.265625 26.046875 -39.238281 26.046875 -37.78125 L 26.046875 -13.125 C 26.046875 -10.46875 26.507812 -7.847656 27.4375 -5.265625 C 28.363281 -2.679688 30.222656 -0.925781 33.015625 0 L 6.765625 0 C 9.804688 -0.925781 11.757812 -2.679688 12.625 -5.265625 C 13.488281 -7.847656 13.921875 -10.535156 13.921875 -13.328125 L 13.921875 -85.296875 C 13.921875 -87.953125 13.421875 -90.4375 12.421875 -92.75 C 11.429688 -95.070312 9.546875 -96.632812 6.765625 -97.4375 L 33.015625 -97.4375 C 30.222656 -96.507812 28.363281 -94.882812 27.4375 -92.5625 C 26.507812 -90.238281 26.046875 -87.753906 26.046875 -85.109375 L 26.046875 -43.15625 L 65.015625 -84.90625 C 65.679688 -85.570312 66.210938 -86.332031 66.609375 -87.1875 C 67.003906 -88.050781 67.203125 -89.015625 67.203125 -90.078125 C 67.203125 -91.796875 66.640625 -93.285156 65.515625 -94.546875 C 64.390625 -95.804688 63.097656 -96.769531 61.640625 -97.4375 L 83.71875 -97.4375 C 81.195312 -96.632812 78.476562 -95.007812 75.5625 -92.5625 C 72.644531 -90.113281 70.257812 -87.957031 68.40625 -86.09375 L 40.359375 -55.875 C 40.097656 -55.613281 39.96875 -55.28125 39.96875 -54.875 L 40.5625 -54.078125 L 44.140625 -52.09375 C 45.460938 -51.4375 46.59375 -50.640625 47.53125 -49.703125 C 49.113281 -48.378906 50.664062 -46.789062 52.1875 -44.9375 C 53.71875 -43.082031 55.144531 -41.09375 56.46875 -38.96875 C 57.789062 -36.851562 59.082031 -34.734375 60.34375 -32.609375 C 61.601562 -30.484375 62.695312 -28.492188 63.625 -26.640625 C 66.8125 -20.941406 70.160156 -14.941406 73.671875 -8.640625 C 77.179688 -2.347656 81.222656 3.378906 85.796875 8.546875 C 90.367188 13.722656 95.570312 17.96875 101.40625 21.28125 C 107.238281 24.59375 114 26.25 121.6875 26.25 C 128.445312 26.25 134.878906 25.253906 140.984375 23.265625 Z M 140.984375 25.046875 "/></g></g></g><g fill="#4e2a2a" fill-opacity="1"><g transform="translate(188.666419, 223.726245)"><g><path d="M 59.453125 -78.421875 C 61.960938 -82.722656 63.441406 -86.265625 63.890625 -89.046875 C 64.335938 -91.828125 64.25 -93.21875 63.625 -93.21875 L 45.0625 -93.21875 C 41.65625 -92.863281 38.601562 -92.367188 35.90625 -91.734375 C 33.21875 -91.109375 30.726562 -90.347656 28.4375 -89.453125 C 26.15625 -88.554688 24.003906 -87.566406 21.984375 -86.484375 C 19.972656 -85.410156 17.9375 -84.25 15.875 -83 L 14.65625 -83 L 14.65625 -94.4375 L 83.671875 -94.4375 L 83.671875 -93.21875 C 82.679688 -93.21875 81.535156 -92.519531 80.234375 -91.125 C 78.929688 -89.738281 77.519531 -87.925781 76 -85.6875 L 71.96875 -79.765625 L 69 -75.46875 L 28.375 -16 C 26.945312 -13.488281 25.875 -11.3125 25.15625 -9.46875 C 24.4375 -7.632812 23.941406 -6.113281 23.671875 -4.90625 C 23.398438 -3.695312 23.3125 -2.773438 23.40625 -2.140625 C 23.5 -1.515625 23.675781 -1.203125 23.9375 -1.203125 L 46.40625 -1.203125 C 49.726562 -1.566406 52.753906 -2.0625 55.484375 -2.6875 C 58.222656 -3.3125 60.734375 -4.050781 63.015625 -4.90625 C 65.304688 -5.757812 67.457031 -6.722656 69.46875 -7.796875 C 71.488281 -8.878906 73.53125 -10.046875 75.59375 -11.296875 L 76.671875 -11.296875 L 76.671875 0 L 4.03125 0 L 4.03125 -1.203125 C 4.570312 -1.203125 5.3125 -1.671875 6.25 -2.609375 C 7.195312 -3.554688 8.296875 -4.835938 9.546875 -6.453125 C 10.804688 -8.066406 12.21875 -9.945312 13.78125 -12.09375 C 15.351562 -14.25 16.992188 -16.539062 18.703125 -18.96875 Z M 59.453125 -78.421875 "/></g></g></g><g transform="matrix(1, 0, 0, 1, 170, 124)"><g clip-path="url(#30bc449660)"><g clip-path="url(#13b757037e)"><g fill="#d9f4cd" fill-opacity="1"><g transform="translate(57.879829, 48.386037)"><g><path d="M -18.191406 10.683594 C -18.191406 13.996094 -18.929688 16.992188 -20.40625 19.679688 C -21.851562 22.308594 -23.714844 24.804688 -25.996094 27.164062 L -26.589844 26.589844 L -26.074219 25.945312 C -23.496094 28.019531 -20.847656 30.109375 -18.128906 32.21875 C -15.378906 34.359375 -12.875 36.605469 -10.613281 38.960938 C -8.335938 41.34375 -6.464844 43.855469 -5 46.5 C -3.503906 49.207031 -2.753906 52.140625 -2.753906 55.296875 C -2.753906 58.765625 -3.5625 61.933594 -5.179688 64.800781 C -6.78125 67.636719 -8.875 70.058594 -11.46875 72.0625 C -14.046875 74.058594 -16.984375 75.605469 -20.28125 76.710938 C -23.578125 77.816406 -26.914062 78.371094 -30.289062 78.371094 C -32.996094 78.371094 -35.4375 78.023438 -37.613281 77.332031 C -39.804688 76.636719 -41.675781 75.65625 -43.226562 74.398438 C -44.792969 73.125 -45.996094 71.578125 -46.832031 69.757812 C -47.664062 67.945312 -48.082031 65.960938 -48.082031 63.808594 C -48.082031 61.613281 -47.722656 59.730469 -47.007812 58.152344 C -46.300781 56.59375 -45.40625 55.269531 -44.316406 54.183594 C -43.242188 53.109375 -42.078125 52.238281 -40.832031 51.574219 C -39.617188 50.925781 -38.476562 50.425781 -37.414062 50.078125 C -36.355469 49.734375 -35.457031 49.496094 -34.710938 49.375 L -32.785156 49.050781 L -32.367188 53.128906 L -33.28125 53.128906 C -33.308594 53.128906 -33.597656 53.183594 -34.152344 53.289062 C -34.726562 53.402344 -35.429688 53.589844 -36.261719 53.851562 C -37.074219 54.113281 -37.957031 54.492188 -38.914062 55 C -39.835938 55.488281 -40.691406 56.125 -41.472656 56.90625 C -42.246094 57.675781 -42.882812 58.625 -43.390625 59.746094 C -43.886719 60.851562 -44.136719 62.203125 -44.136719 63.808594 C -44.136719 66.105469 -43.675781 67.9375 -42.753906 69.300781 C -41.8125 70.695312 -40.648438 71.761719 -39.261719 72.5 C -37.835938 73.257812 -36.320312 73.765625 -34.707031 74.027344 C -33.046875 74.292969 -31.574219 74.425781 -30.289062 74.425781 C -27.109375 74.425781 -24.265625 73.929688 -21.761719 72.929688 C -19.257812 71.933594 -17.152344 70.628906 -15.449219 69.019531 C -13.746094 67.410156 -12.449219 65.601562 -11.554688 63.589844 C -10.664062 61.582031 -10.21875 59.582031 -10.21875 57.585938 C -10.21875 55.03125 -10.855469 52.65625 -12.132812 50.457031 C -13.445312 48.1875 -15.144531 46.003906 -17.230469 43.902344 C -19.335938 41.777344 -21.675781 39.714844 -24.25 37.722656 C -26.859375 35.703125 -29.417969 33.675781 -31.925781 31.636719 L -31.40625 30.992188 L -30.867188 31.621094 C -33.378906 33.78125 -35.984375 35.914062 -38.671875 38.015625 C -41.324219 40.085938 -43.734375 42.222656 -45.902344 44.429688 C -48.042969 46.609375 -49.800781 48.90625 -51.171875 51.332031 C -52.507812 53.6875 -53.175781 56.300781 -53.175781 59.167969 C -53.175781 60.351562 -53.011719 61.59375 -52.675781 62.898438 C -52.335938 64.21875 -51.84375 65.582031 -51.199219 66.984375 L -50.851562 67.738281 L -54.410156 69.363281 L -54.753906 68.613281 C -56.292969 65.253906 -57.0625 62.070312 -57.0625 59.050781 C -57.0625 56.921875 -56.710938 54.898438 -56.011719 52.988281 C -55.324219 51.101562 -54.382812 49.289062 -53.1875 47.550781 C -52.007812 45.828125 -50.636719 44.167969 -49.078125 42.566406 C -47.535156 40.988281 -45.898438 39.4375 -44.160156 37.914062 C -42.425781 36.398438 -40.644531 34.914062 -38.816406 33.457031 C -37.007812 32.019531 -35.269531 30.5625 -33.59375 29.082031 L -33.046875 29.703125 L -33.578125 30.335938 C -35.238281 28.953125 -36.78125 27.558594 -38.207031 26.152344 C -39.652344 24.730469 -40.914062 23.253906 -42 21.726562 C -43.097656 20.183594 -43.960938 18.585938 -44.589844 16.9375 C -45.234375 15.257812 -45.554688 13.503906 -45.554688 11.679688 C -45.554688 9.578125 -45.191406 7.640625 -44.464844 5.878906 C -43.738281 4.113281 -42.75 2.605469 -41.5 1.351562 C -40.246094 0.101562 -38.78125 -0.875 -37.09375 -1.582031 C -35.410156 -2.292969 -33.589844 -2.644531 -31.640625 -2.644531 C -29.660156 -2.644531 -27.851562 -2.335938 -26.210938 -1.710938 C -24.558594 -1.085938 -23.132812 -0.195312 -21.9375 0.960938 C -20.734375 2.121094 -19.808594 3.527344 -19.160156 5.1875 C -18.515625 6.828125 -18.191406 8.660156 -18.191406 10.683594 Z M -19.84375 10.683594 C -19.84375 8.871094 -20.128906 7.238281 -20.699219 5.789062 C -21.261719 4.355469 -22.054688 3.144531 -23.085938 2.148438 C -24.121094 1.152344 -25.355469 0.378906 -26.796875 -0.167969 C -28.246094 -0.71875 -29.863281 -0.992188 -31.640625 -0.992188 C -33.367188 -0.992188 -34.972656 -0.683594 -36.457031 -0.0585938 C -37.941406 0.5625 -39.230469 1.425781 -40.328125 2.523438 C -41.425781 3.617188 -42.296875 4.945312 -42.9375 6.507812 C -43.582031 8.070312 -43.902344 9.792969 -43.902344 11.679688 C -43.902344 13.300781 -43.617188 14.855469 -43.046875 16.347656 C -42.464844 17.867188 -41.667969 19.339844 -40.652344 20.769531 C -39.621094 22.21875 -38.421875 23.621094 -37.046875 24.976562 C -35.652344 26.347656 -34.144531 27.710938 -32.519531 29.066406 L -31.777344 29.683594 L -32.5 30.320312 C -34.195312 31.816406 -35.957031 33.292969 -37.789062 34.75 C -39.597656 36.191406 -41.359375 37.660156 -43.070312 39.160156 C -44.777344 40.652344 -46.382812 42.171875 -47.894531 43.722656 C -49.386719 45.253906 -50.699219 46.839844 -51.824219 48.484375 C -52.941406 50.109375 -53.820312 51.800781 -54.460938 53.554688 C -55.09375 55.28125 -55.410156 57.113281 -55.410156 59.050781 C -55.410156 61.828125 -54.691406 64.785156 -53.253906 67.925781 L -54.003906 68.269531 L -54.347656 67.515625 L -52.292969 66.578125 L -51.949219 67.328125 L -52.699219 67.675781 C -53.386719 66.179688 -53.910156 64.726562 -54.277344 63.308594 C -54.644531 61.871094 -54.832031 60.492188 -54.832031 59.167969 C -54.832031 56.011719 -54.089844 53.125 -52.609375 50.515625 C -51.164062 47.96875 -49.324219 45.550781 -47.082031 43.269531 C -44.863281 41.011719 -42.398438 38.828125 -39.691406 36.710938 C -37.019531 34.625 -34.4375 32.511719 -31.945312 30.367188 L -31.417969 29.917969 L -30.882812 30.351562 C -28.382812 32.382812 -25.835938 34.402344 -23.238281 36.414062 C -20.605469 38.453125 -18.210938 40.5625 -16.054688 42.738281 C -13.871094 44.941406 -12.085938 47.238281 -10.703125 49.628906 C -9.277344 52.085938 -8.566406 54.738281 -8.566406 57.585938 C -8.566406 59.816406 -9.058594 62.039062 -10.046875 64.261719 C -11.03125 66.472656 -12.453125 68.460938 -14.3125 70.21875 C -16.171875 71.972656 -18.449219 73.390625 -21.148438 74.464844 C -23.847656 75.542969 -26.894531 76.082031 -30.289062 76.082031 C -31.664062 76.082031 -33.222656 75.941406 -34.96875 75.660156 C -36.761719 75.371094 -38.453125 74.804688 -40.039062 73.957031 C -41.667969 73.089844 -43.027344 71.847656 -44.125 70.226562 C -45.234375 68.582031 -45.789062 66.441406 -45.789062 63.808594 C -45.789062 61.964844 -45.492188 60.386719 -44.894531 59.066406 C -44.304688 57.757812 -43.554688 56.652344 -42.644531 55.738281 C -41.742188 54.839844 -40.757812 54.105469 -39.6875 53.539062 C -38.644531 52.988281 -37.671875 52.566406 -36.761719 52.277344 C -35.871094 51.992188 -35.105469 51.789062 -34.46875 51.667969 C -33.808594 51.539062 -33.414062 51.476562 -33.28125 51.476562 L -33.28125 52.300781 L -34.105469 52.386719 L -34.339844 50.097656 L -33.519531 50.011719 L -33.382812 50.828125 L -34.4375 51.003906 C -35.101562 51.113281 -35.921875 51.328125 -36.902344 51.648438 C -37.871094 51.96875 -38.925781 52.429688 -40.054688 53.03125 C -41.15625 53.617188 -42.1875 54.390625 -43.148438 55.351562 C -44.09375 56.296875 -44.878906 57.460938 -45.503906 58.835938 C -46.117188 60.195312 -46.425781 61.851562 -46.425781 63.808594 C -46.425781 65.722656 -46.0625 67.476562 -45.328125 69.066406 C -44.597656 70.652344 -43.550781 72.003906 -42.183594 73.117188 C -40.796875 74.242188 -39.105469 75.125 -37.113281 75.757812 C -35.101562 76.398438 -32.824219 76.714844 -30.289062 76.714844 C -27.09375 76.714844 -23.929688 76.191406 -20.808594 75.144531 C -17.6875 74.097656 -14.910156 72.636719 -12.480469 70.753906 C -10.0625 68.886719 -8.109375 66.628906 -6.621094 63.988281 C -5.144531 61.375 -4.40625 58.476562 -4.40625 55.296875 C -4.40625 52.425781 -5.085938 49.761719 -6.445312 47.300781 C -7.839844 44.78125 -9.628906 42.382812 -11.808594 40.105469 C -14.011719 37.808594 -16.457031 35.613281 -19.144531 33.523438 C -21.867188 31.410156 -24.523438 29.3125 -27.109375 27.234375 L -27.816406 26.667969 L -27.1875 26.015625 C -25.007812 23.761719 -23.230469 21.382812 -21.855469 18.886719 C -20.515625 16.445312 -19.84375 13.710938 -19.84375 10.683594 Z M -39.207031 8.277344 C -39.207031 9.695312 -38.925781 11.085938 -38.359375 12.453125 C -37.78125 13.851562 -36.984375 15.21875 -35.972656 16.550781 C -34.941406 17.90625 -33.738281 19.230469 -32.363281 20.53125 C -30.96875 21.847656 -29.460938 23.164062 -27.832031 24.480469 L -28.351562 25.125 L -28.945312 24.550781 C -26.886719 22.410156 -25.21875 20.171875 -23.941406 17.832031 C -22.699219 15.546875 -22.074219 13.125 -22.074219 10.566406 C -22.074219 7.675781 -22.949219 5.410156 -24.691406 3.773438 C -26.449219 2.121094 -28.804688 1.296875 -31.757812 1.296875 C -33.089844 1.296875 -34.222656 1.5 -35.15625 1.902344 C -36.082031 2.304688 -36.835938 2.832031 -37.421875 3.484375 C -38.015625 4.148438 -38.460938 4.898438 -38.753906 5.734375 C -39.054688 6.585938 -39.207031 7.433594 -39.207031 8.277344 Z M -40.859375 8.277344 C -40.859375 7.242188 -40.679688 6.210938 -40.3125 5.183594 C -39.945312 4.140625 -39.390625 3.207031 -38.652344 2.382812 C -37.90625 1.550781 -36.960938 0.882812 -35.8125 0.386719 C -34.671875 -0.109375 -33.320312 -0.355469 -31.757812 -0.355469 C -28.367188 -0.355469 -25.636719 0.617188 -23.558594 2.566406 C -21.46875 4.53125 -20.421875 7.195312 -20.421875 10.566406 C -20.421875 13.40625 -21.113281 16.09375 -22.488281 18.621094 C -23.835938 21.09375 -25.59375 23.453125 -27.757812 25.699219 L -28.285156 26.242188 L -28.871094 25.765625 C -30.53125 24.421875 -32.074219 23.078125 -33.5 21.734375 C -34.941406 20.371094 -36.203125 18.976562 -37.285156 17.554688 C -38.386719 16.105469 -39.253906 14.617188 -39.886719 13.082031 C -40.535156 11.515625 -40.859375 9.914062 -40.859375 8.277344 Z M -40.859375 8.277344 "/></g></g></g></g><g fill="#d29f51" fill-opacity="1"><g transform="translate(57.879829, 48.386037)"><g><path d="M -19.015625 10.6875 C -19.015625 13.851562 -19.71875 16.71875 -21.125 19.28125 C -22.539062 21.84375 -24.363281 24.28125 -26.59375 26.59375 C -24.007812 28.664062 -21.359375 30.757812 -18.640625 32.875 C -15.921875 34.988281 -13.441406 37.207031 -11.203125 39.53125 C -8.972656 41.863281 -7.144531 44.320312 -5.71875 46.90625 C -4.289062 49.488281 -3.578125 52.285156 -3.578125 55.296875 C -3.578125 58.617188 -4.347656 61.648438 -5.890625 64.390625 C -7.441406 67.128906 -9.46875 69.46875 -11.96875 71.40625 C -14.476562 73.34375 -17.335938 74.847656 -20.546875 75.921875 C -23.753906 77.003906 -27.003906 77.546875 -30.296875 77.546875 C -32.910156 77.546875 -35.265625 77.210938 -37.359375 76.546875 C -39.453125 75.878906 -41.234375 74.945312 -42.703125 73.75 C -44.171875 72.5625 -45.296875 71.113281 -46.078125 69.40625 C -46.859375 67.707031 -47.25 65.84375 -47.25 63.8125 C -47.25 61.738281 -46.914062 59.96875 -46.25 58.5 C -45.59375 57.03125 -44.753906 55.785156 -43.734375 54.765625 C -42.710938 53.742188 -41.613281 52.921875 -40.4375 52.296875 C -39.269531 51.671875 -38.175781 51.191406 -37.15625 50.859375 C -36.132812 50.523438 -35.269531 50.300781 -34.5625 50.1875 C -33.863281 50.070312 -33.515625 50.015625 -33.515625 50.015625 L -33.28125 52.296875 C -33.363281 52.296875 -33.707031 52.351562 -34.3125 52.46875 C -34.914062 52.59375 -35.644531 52.789062 -36.5 53.0625 C -37.363281 53.332031 -38.296875 53.734375 -39.296875 54.265625 C -40.296875 54.796875 -41.21875 55.476562 -42.0625 56.3125 C -42.90625 57.15625 -43.597656 58.179688 -44.140625 59.390625 C -44.691406 60.609375 -44.96875 62.082031 -44.96875 63.8125 C -44.96875 66.269531 -44.457031 68.253906 -43.4375 69.765625 C -42.414062 71.273438 -41.148438 72.429688 -39.640625 73.234375 C -38.140625 74.035156 -36.535156 74.570312 -34.828125 74.84375 C -33.128906 75.113281 -31.617188 75.25 -30.296875 75.25 C -27.003906 75.25 -24.054688 74.726562 -21.453125 73.6875 C -18.847656 72.65625 -16.65625 71.296875 -14.875 69.609375 C -13.09375 67.929688 -11.734375 66.035156 -10.796875 63.921875 C -9.859375 61.804688 -9.390625 59.691406 -9.390625 57.578125 C -9.390625 54.878906 -10.0625 52.363281 -11.40625 50.03125 C -12.757812 47.707031 -14.503906 45.46875 -16.640625 43.3125 C -18.773438 41.164062 -21.140625 39.082031 -23.734375 37.0625 C -26.335938 35.050781 -28.894531 33.03125 -31.40625 31 C -33.90625 33.144531 -36.492188 35.265625 -39.171875 37.359375 C -41.859375 39.453125 -44.296875 41.613281 -46.484375 43.84375 C -48.679688 46.070312 -50.484375 48.429688 -51.890625 50.921875 C -53.296875 53.410156 -54 56.160156 -54 59.171875 C -54 60.421875 -53.820312 61.726562 -53.46875 63.09375 C -53.125 64.46875 -52.617188 65.878906 -51.953125 67.328125 L -54 68.265625 C -55.488281 65.015625 -56.234375 61.941406 -56.234375 59.046875 C -56.234375 57.015625 -55.898438 55.085938 -55.234375 53.265625 C -54.566406 51.453125 -53.65625 49.703125 -52.5 48.015625 C -51.351562 46.335938 -50.015625 44.710938 -48.484375 43.140625 C -46.960938 41.578125 -45.335938 40.039062 -43.609375 38.53125 C -41.890625 37.03125 -40.117188 35.554688 -38.296875 34.109375 C -36.484375 32.660156 -34.734375 31.191406 -33.046875 29.703125 C -34.691406 28.328125 -36.21875 26.945312 -37.625 25.5625 C -39.03125 24.175781 -40.257812 22.738281 -41.3125 21.25 C -42.375 19.757812 -43.207031 18.222656 -43.8125 16.640625 C -44.425781 15.054688 -44.734375 13.40625 -44.734375 11.6875 C -44.734375 9.6875 -44.390625 7.851562 -43.703125 6.1875 C -43.015625 4.53125 -42.082031 3.113281 -40.90625 1.9375 C -39.738281 0.757812 -38.363281 -0.15625 -36.78125 -0.8125 C -35.195312 -1.476562 -33.484375 -1.8125 -31.640625 -1.8125 C -29.765625 -1.8125 -28.050781 -1.519531 -26.5 -0.9375 C -24.957031 -0.351562 -23.628906 0.472656 -22.515625 1.546875 C -21.398438 2.628906 -20.535156 3.941406 -19.921875 5.484375 C -19.316406 7.035156 -19.015625 8.769531 -19.015625 10.6875 Z M -40.03125 8.28125 C -40.03125 9.800781 -39.726562 11.296875 -39.125 12.765625 C -38.519531 14.234375 -37.6875 15.660156 -36.625 17.046875 C -35.570312 18.441406 -34.335938 19.800781 -32.921875 21.125 C -31.515625 22.457031 -29.992188 23.789062 -28.359375 25.125 C -26.242188 22.9375 -24.53125 20.632812 -23.21875 18.21875 C -21.90625 15.8125 -21.25 13.257812 -21.25 10.5625 C -21.25 7.4375 -22.207031 4.972656 -24.125 3.171875 C -26.039062 1.367188 -28.582031 0.46875 -31.75 0.46875 C -33.195312 0.46875 -34.441406 0.691406 -35.484375 1.140625 C -36.523438 1.585938 -37.375 2.179688 -38.03125 2.921875 C -38.695312 3.671875 -39.195312 4.515625 -39.53125 5.453125 C -39.863281 6.398438 -40.03125 7.34375 -40.03125 8.28125 Z M -40.03125 8.28125 "/></g></g></g></g></g></svg>